SplineFontDB: 3.0
FontName: PfennigBold
FullName: Pfennig Bold
FamilyName: Pfennig
Weight: Bold
Copyright: Copyright 2009, 2010 by Daniel Johnson.  Released under the terms of the SIL Open Font License.
UComments: "2009-7-16: Created." 
Version: 20100423
ItalicAngle: 0
UnderlinePosition: -100
UnderlineWidth: 50
Ascent: 800
Descent: 200
LayerCount: 2
Layer: 0 0 "Back"  1
Layer: 1 0 "Fore"  0
NeedsXUIDChange: 1
XUID: [1021 1003 1579404955 6722392]
FSType: 0
OS2Version: 0
OS2_WeightWidthSlopeOnly: 0
OS2_UseTypoMetrics: 1
CreationTime: 1247766582
ModificationTime: 1272034952
PfmFamily: 33
TTFWeight: 700
TTFWidth: 5
LineGap: 90
VLineGap: 0
OS2TypoAscent: 0
OS2TypoAOffset: 1
OS2TypoDescent: 0
OS2TypoDOffset: 1
OS2TypoLinegap: 90
OS2WinAscent: 0
OS2WinAOffset: 1
OS2WinDescent: 0
OS2WinDOffset: 1
HheadAscent: 0
HheadAOffset: 1
HheadDescent: 0
HheadDOffset: 1
OS2Vendor: 'PfEd'
Lookup: 1 0 0 "'locl' Localized Forms in Sami"  {"'locl' Localized Forms in Sami-1"  } ['locl' ('latn' <'ISM ' > 'latn' <'LSM ' > 'latn' <'NSM ' > 'latn' <'SKS ' > ) ]
Lookup: 4 0 1 "'liga' Standard Ligatures in Latin lookup 0"  {"'liga' Standard Ligatures in Latin lookup 0-1"  } ['liga' ('DFLT' <'dflt' > 'latn' <'dflt' > ) ]
Lookup: 258 0 0 "'kern' Horizontal Kerning lookup 1"  {"'kern' Horizontal Kerning lookup 1-1"  } ['kern' ('DFLT' <'dflt' > 'cyrl' <'dflt' > 'latn' <'dflt' > ) ]
Lookup: 260 0 0 "'mark' Mark Positioning in Latin lookup 0"  {"'mark' Mark Positioning in Latin lookup 0-1"  } ['mark' ('DFLT' <'dflt' > 'latn' <'dflt' > ) ]
MarkAttachClasses: 1
DEI: 91125
KernClass2: 9 9 "'kern' Horizontal Kerning lookup 1-1" 
 109 A L Agrave Aacute Acircumflex Atilde Adieresis Aring Amacron Abreve Aogonek Lacute Lcommaaccent Lcaron Lslash

StartChar: d
Encoding: 100 100 0
Width: 532
VWidth: 0
Flags: W
HStem: -10 50<206.478 312.323> 0 21G<336 461> 400 50<206.608 303.352> 640 20G<336 461>
VStem: 44 125<111.377 328.623> 336 125<0 2 64.5742 359.711 431 660>
AnchorPoint: "top" 260 490 basechar 0
LayerCount: 2
Fore
SplineSet
336 431 m 1xbc
 336 660 l 1
 461 660 l 1
 461 0 l 1
 336 0 l 1x7c
 336 2 l 1
 309 -6 279 -10 246 -10 c 0
 121 -10 44 95 44 220 c 0
 44 345 122 450 246 450 c 0
 279 450 309 443 336 431 c 1xbc
336 196 m 0
 336 288 330 400 261 400 c 0
 176 400 169 305 169 220 c 0
 169 135 176 40 261 40 c 0xbc
 330 40 336 102 336 196 c 0
EndSplineSet
Validated: 1
EndChar

StartChar: a
Encoding: 97 97 1
Width: 476
VWidth: 0
Flags: W
HStem: -10 50<196 293.399> 254 50<195.187 291> 400 50<165.133 269.163>
VStem: 46 125<64.6873 227.812> 294 125<42.2557 253.103 301 376.383>
AnchorPoint: "ogonek" 413 0 basechar 0
AnchorPoint: "top" 239 490 basechar 0
LayerCount: 2
Fore
SplineSet
56 405 m 1
 102 429 159 450 214 450 c 0
 391 450 419 402 419 202 c 2
 419 0 l 1
 296 0 l 1
 278 -7 258 -10 230 -10 c 0
 125 -10 46 32 46 152 c 0
 46 272 150 304 230 304 c 0
 251 304 272 303 291 301 c 1
 285 374 268 400 229 400 c 0
 194 400 166 386 141 353 c 1
 56 405 l 1
294 48 m 1
 294 224 l 2
 294 234 294 243 294 251 c 1
 278 253 262 254 245 254 c 0
 204 254 171 222 171 152 c 0
 171 82 195 40 245 40 c 0
 265 40 280 43 294 48 c 1
EndSplineSet
Validated: 1
EndChar

StartChar: h
Encoding: 104 104 2
Width: 531
VWidth: 0
Flags: W
HStem: 0 21G<72 197 338 463> 400 50<197.939 314.268> 640 20G<72 197>
VStem: 72 125<0 391.817 443 660> 338 125<0 351.628>
AnchorPoint: "top" 189 700 basechar 0
LayerCount: 2
Fore
SplineSet
197 383 m 1
 197 0 l 1
 72 0 l 1
 72 660 l 1
 197 660 l 1
 197 443 l 1
 215 447 234 450 254 450 c 0
 394 450 463 382 463 240 c 2
 463 0 l 1
 338 0 l 1
 338 228 l 2
 338 368 316 400 269 400 c 0
 243 400 219 394 197 383 c 1
EndSplineSet
Validated: 1
EndChar

StartChar: e
Encoding: 101 101 3
Width: 502
VWidth: 0
Flags: W
HStem: -10 50<215.43 344.22> 220 50<171 334> 400 50<207.601 307.185>
VStem: 44 125<114.707 220 270 320.229>
AnchorPoint: "ogonek" 287 0 basechar 0
AnchorPoint: "top" 259 490 basechar 0
LayerCount: 2
Fore
SplineSet
169 220 m 1
 169 110 190 40 285 40 c 0
 336 40 353 63 360 100 c 1
 455 77 l 1
 415 26 352 -10 270 -10 c 0
 140 -10 44 80 44 220 c 0
 44 360 150 450 250 450 c 0
 389 450 460 330 460 220 c 1
 169 220 l 1
171 270 m 1
 334 270 l 1
 331 344 319 400 265 400 c 0
 202 400 177 351 171 270 c 1
EndSplineSet
Validated: 1
EndChar

StartChar: n
Encoding: 110 110 4
Width: 531
VWidth: 0
Flags: W
HStem: 0 21G<72 197 338 463> 400 50<197.701 314.268>
VStem: 72 125<0 391.817> 338 125<0 351.628>
AnchorPoint: "cedilla" 264 0 basechar 0
AnchorPoint: "top" 268 490 basechar 0
LayerCount: 2
Fore
SplineSet
188 440 m 1
 204 445 234 450 254 450 c 0
 394 450 463 382 463 240 c 2
 463 0 l 1
 338 0 l 1
 338 228 l 2
 338 368 316 400 269 400 c 0
 243 400 219 394 197 383 c 1
 197 0 l 1
 72 0 l 1
 72 440 l 1
 188 440 l 1
EndSplineSet
Validated: 1
EndChar

StartChar: c
Encoding: 99 99 5
Width: 497
VWidth: 0
Flags: W
HStem: -10 50<215.43 339.108> 400 50<207.608 310.159>
VStem: 44 125<114.669 320.966>
AnchorPoint: "cedilla" 278 0 basechar 0
AnchorPoint: "top" 260 490 basechar 0
LayerCount: 2
Fore
SplineSet
336 297 m 1
 320 357 320 400 265 400 c 0
 190 400 169 330 169 220 c 0
 169 110 190 40 285 40 c 0
 336 40 342 63 365 100 c 1
 455 77 l 1
 415 26 352 -10 270 -10 c 0
 140 -10 44 80 44 220 c 0
 44 360 150 450 250 450 c 0
 342 450 404 398 436 330 c 1
 336 297 l 1
EndSplineSet
Validated: 1
EndChar

StartChar: b
Encoding: 98 98 6
Width: 527
VWidth: 0
Flags: W
HStem: -10 50<215.349 323.125> 400 50<209.644 324.284> 640 20G<68 193>
VStem: 68 125<71.8813 381.762 438 660> 360 125<105.554 334.446>
AnchorPoint: "top" 282 490 basechar 0
LayerCount: 2
Fore
SplineSet
193 364 m 1
 193 148 l 2
 193 56 222 40 283 40 c 0
 342 40 360 135 360 220 c 0
 360 305 346 400 283 400 c 0
 244 400 215 387 193 364 c 1
193 438 m 1
 216 446 242 450 268 450 c 0
 428 450 485 345 485 220 c 0
 485 95 426 -10 268 -10 c 0
 168 -10 68 16 68 180 c 2
 68 660 l 1
 193 660 l 1
 193 438 l 1
EndSplineSet
Validated: 1
EndChar

StartChar: s
Encoding: 115 115 7
Width: 438
VWidth: 0
Flags: W
HStem: -10 50<139.819 254.694> 399 51<193.908 276.15>
VStem: 61 125<277.673 394.447> 273 125<58.3251 178.381>
AnchorPoint: "cedilla" 219 0 basechar 0
AnchorPoint: "top" 203 490 basechar 0
LayerCount: 2
Fore
SplineSet
369 388 m 1
 295 353 l 1
 276 386 253 399 223 399 c 0
 199 399 186 377 186 336 c 0
 186 296 207 269 233 263 c 0
 333 240 398 194 398 128 c 0
 398 32 317 -10 212 -10 c 0
 135 -10 103 14 43 57 c 1
 105 98 l 1
 132 60 163 40 209 40 c 0
 251 40 273 74 273 128 c 0
 273 179 221 204 190 212 c 0
 116 231 61 272 61 336 c 0
 61 390 107 450 209 450 c 0
 279 450 312 429 369 388 c 1
EndSplineSet
Validated: 1
EndChar

StartChar: i
Encoding: 105 105 8
Width: 244
VWidth: 0
Flags: W
HStem: 0 21G<60 185> 420 20G<60 185> 520 80<70 175>
VStem: 60 125<0 440> 70 105<520 600>
AnchorPoint: "ogonek" 136 0 basechar 0
LayerCount: 2
Fore
SplineSet
70 600 m 5xe8
 175 600 l 5
 175 520 l 5
 70 520 l 5
 70 600 l 5xe8
60 440 m 1xf0
 185 440 l 1
 185 0 l 1
 60 0 l 1
 60 440 l 1xf0
EndSplineSet
Validated: 1
EndChar

StartChar: o
Encoding: 111 111 9
Width: 516
VWidth: 0
Flags: W
HStem: -10 50<207.713 314.523> 400 50<207.83 313.859>
VStem: 44 125<104.505 320.966> 349 125<109 331>
AnchorPoint: "bottom" 252 0 basechar 0
AnchorPoint: "horn" 430 310 basechar 0
AnchorPoint: "ogonek" 262 0 basechar 0
AnchorPoint: "top" 261 490 basechar 0
LayerCount: 2
Fore
SplineSet
349 220 m 0
 349 326 332 400 265 400 c 0
 191 400 169 330 169 220 c 0
 169 110 187 40 265 40 c 0
 335 40 349 114 349 220 c 0
474 220 m 0
 474 66 380 -10 250 -10 c 0
 120 -10 44 80 44 220 c 0
 44 360 150 450 250 450 c 0
 380 450 474 374 474 220 c 0
EndSplineSet
Validated: 1048577
EndChar

StartChar: t
Encoding: 116 116 10
Width: 321
VWidth: 0
Flags: W
HStem: 0 21G<92 217> 390 50<41 92 217 295>
VStem: 92 125<0 390 440 585>
AnchorPoint: "cedilla" 151 0 basechar 0
AnchorPoint: "top" 155 660 basechar 0
LayerCount: 2
Fore
SplineSet
217 390 m 1
 217 0 l 1
 92 0 l 1
 92 390 l 1
 26 390 l 1
 41 440 l 1
 92 440 l 1
 92 585 l 1
 217 600 l 1
 217 440 l 1
 295 440 l 1
 295 390 l 1
 217 390 l 1
EndSplineSet
Validated: 1
EndChar

StartChar: m
Encoding: 109 109 11
Width: 818
VWidth: 0
Flags: W
HStem: 0 21G<72 197 353 478 625 750> 400 50<197.857 323.929 478.488 595.722>
VStem: 72 125<0 395.77> 353 125<0 369.728> 625 125<0 362.565>
AnchorPoint: "top" 394 490 basechar 0
LayerCount: 2
Fore
SplineSet
197 388 m 1
 197 0 l 1
 72 0 l 1
 72 440 l 1
 187 440 l 1
 208 447 230 450 253 450 c 0
 316 450 370 436 403 408 c 1
 436 432 475 450 516 450 c 0
 656 450 750 407 750 265 c 2
 750 0 l 1
 625 0 l 1
 625 244 l 2
 625 377 596 400 531 400 c 0
 511 400 493 397 478 390 c 1
 478 0 l 1
 353 0 l 1
 353 244 l 2
 353 377 324 400 254 400 c 0
 232 400 214 396 197 388 c 1
EndSplineSet
Validated: 1
EndChar

StartChar: f
Encoding: 102 102 12
Width: 288
VWidth: 0
Flags: W
HStem: 0 21G<74 199> 390 50<30 74 199 270> 620 50<208.695 277.654>
VStem: 74 125<0 390 440 606.968>
AnchorPoint: "top" 181 700 basechar 0
LayerCount: 2
Fore
SplineSet
271 605 m 1
 263 615 253 620 236 620 c 0
 208 620 199 597 199 509 c 2
 199 440 l 1
 270 440 l 1
 270 390 l 1
 199 390 l 1
 199 0 l 1
 74 0 l 1
 74 390 l 1
 15 390 l 1
 30 440 l 1
 74 440 l 1
 74 535 l 2
 74 615 141 670 221 670 c 0
 250 670 273 666 292 659 c 1
 271 605 l 1
EndSplineSet
Validated: 1
EndChar

StartChar: j
Encoding: 106 106 13
Width: 292
VWidth: 0
Flags: W
HStem: -170 50<-1.25167 97.8539> 420 20G<108 233> 520 80<118 223>
VStem: 108 125<-99.4098 440> 118 105<520 600>
LayerCount: 2
Fore
SplineSet
16 -95 m 5xf0
 30 -115 50 -120 69 -120 c 4
 105 -120 108 -82 108 0 c 6
 108 440 l 1
 233 440 l 1
 233 -33 l 6
 233 -132 124 -170 54 -170 c 4
 16 -170 -21 -156 -47 -125 c 5
 16 -95 l 5xf0
118 600 m 1xe8
 223 600 l 1
 223 520 l 1
 118 520 l 1
 118 600 l 1xe8
EndSplineSet
Validated: 1
EndChar

StartChar: l
Encoding: 108 108 15
Width: 268
VWidth: 0
Flags: W
HStem: 0 21G<72 197> 640 20G<72 197>
VStem: 72 125<0 660>
AnchorPoint: "cedilla" 131 0 basechar 0
AnchorPoint: "top" 134 700 basechar 0
LayerCount: 2
Fore
SplineSet
197 660 m 25
 197 0 l 25
 72 0 l 25
 72 660 l 25
 197 660 l 25
EndSplineSet
Validated: 1
EndChar

StartChar: p
Encoding: 112 112 16
Width: 531
VWidth: 0
Flags: W
HStem: -8 50<233.542 323.891> 402 50<228.578 329.254>
VStem: 72 125<-200 4 88.6029 369.557> 364 125<123.62 324.66>
AnchorPoint: "top" 284 490 basechar 0
LayerCount: 2
Fore
SplineSet
197 4 m 1
 197 -200 l 1
 72 -200 l 1
 72 442 l 1
 196 442 l 1
 220 449 247 452 277 452 c 0
 402 452 489 347 489 222 c 0
 489 97 391 -8 267 -8 c 0
 241 -8 218 -4 197 4 c 1
197 246 m 0
 197 154 204 42 282 42 c 0
 344 42 364 137 364 222 c 0
 364 307 350 402 292 402 c 0
 209 402 197 342 197 246 c 0
EndSplineSet
Validated: 1
EndChar

StartChar: q
Encoding: 113 113 17
Width: 532
VWidth: 0
Flags: W
HStem: -10 50<204.716 303.997> 400 50<204.131 317.189>
VStem: 44 125<105.554 334.446> 336 125<-200 2 74.3281 368.119>
AnchorPoint: "top" 255 490 basechar 0
LayerCount: 2
Fore
SplineSet
336 2 m 1
 313 -6 287 -10 261 -10 c 0
 101 -10 44 95 44 220 c 0
 44 345 103 450 261 450 c 0
 361 450 461 424 461 260 c 2
 461 -200 l 1
 336 -200 l 1
 336 2 l 1
336 210 m 2
 336 292 l 2
 336 384 314 400 246 400 c 0
 179 400 169 305 169 220 c 0
 169 135 183 40 246 40 c 0
 329 40 336 118 336 210 c 2
EndSplineSet
Validated: 1
EndChar

StartChar: r
Encoding: 114 114 18
Width: 376
VWidth: 0
Flags: W
HStem: 0 21G<72 197> 400 50<218.591 360.813> 420 20G<72 197>
VStem: 72 125<0 377.802 427 440>
AnchorPoint: "cedilla" 135 0 basechar 0
AnchorPoint: "top" 224 490 basechar 0
LayerCount: 2
Fore
SplineSet
373 362 m 1xd0
 358 391 325 400 288 400 c 0xd0
 246 400 221 384 197 359 c 1
 197 0 l 1
 72 0 l 1
 72 440 l 1
 197 440 l 1xb0
 197 427 l 1
 222 442 246 450 281 450 c 0
 318 450 348 445 373 436 c 1
 373 362 l 1xd0
EndSplineSet
Validated: 1
EndChar

StartChar: u
Encoding: 117 117 19
Width: 521
VWidth: 0
Flags: W
HStem: -10 50<219.853 335.515> 420 20G<70 195 336 461>
VStem: 70 125<79.5512 440> 336 125<44.2305 440>
AnchorPoint: "bottom" 260 0 basechar 0
AnchorPoint: "horn" 461 310 basechar 0
AnchorPoint: "ogonek" 457 0 basechar 0
AnchorPoint: "top" 268 490 basechar 0
LayerCount: 2
Fore
SplineSet
336 52 m 1
 336 440 l 1
 461 440 l 1
 461 0 l 1
 337 0 l 1
 312 -7 287 -10 264 -10 c 0
 124 -10 70 58 70 200 c 2
 70 440 l 1
 195 440 l 1
 195 212 l 2
 195 72 209 40 279 40 c 0
 301 40 319 44 336 52 c 1
EndSplineSet
Validated: 1
EndChar

StartChar: g
Encoding: 103 103 20
Width: 507
VWidth: 0
Flags: W
HStem: -170 50<176.52 290.34> -10 50<213.11 310> 400 50<206.372 309.118> 420 20G<311 436>
VStem: 44 125<108.666 329.614> 311 125<-95.9295 -4 41.1484 391.314 436 440>
AnchorPoint: "top" 247 490 basechar 0
LayerCount: 2
Fore
SplineSet
436 440 m 1xdc
 436 78 l 6
 436 -122 408 -170 231 -170 c 4
 176 -170 119 -149 73 -125 c 5
 148 -73 l 5
 180 -108 211 -120 246 -120 c 4
 290 -120 306 -90 310 -4 c 5
 293 -8 274 -10 255 -10 c 0
 125 -10 44 80 44 220 c 0
 44 360 135 450 235 450 c 0xec
 263 450 288 445 311 436 c 1
 311 440 l 1
 436 440 l 1xdc
311 377 m 1
 294 392 274 400 250 400 c 0
 196 400 169 330 169 220 c 0
 169 110 197 40 270 40 c 0
 285 40 299 42 311 46 c 1
 311 49 311 52 311 56 c 2
 311 377 l 1
EndSplineSet
Validated: 1
EndChar

StartChar: v
Encoding: 118 118 21
Width: 415
VWidth: 0
Flags: W
HStem: 0 21G<161.727 256.273> 420 20G<9 124.26 321.74 409>
AnchorPoint: "top" 211 490 basechar 0
LayerCount: 2
Fore
SplineSet
223 148 m 1
 329 440 l 1
 409 440 l 1
 249 0 l 1
 169 0 l 1
 9 440 l 1
 117 440 l 1
 223 148 l 1
EndSplineSet
Validated: 1
EndChar

StartChar: w
Encoding: 119 119 22
Width: 719
VWidth: 0
Flags: W
HStem: 0 21G<166.727 261.285 458.715 553.273> 420 20G<14 129.26 326.74 421.285 618.715 706>
AnchorPoint: "top" 371 490 basechar 0
LayerCount: 2
Fore
SplineSet
228 148 m 1
 334 440 l 1
 414 440 l 1
 520 149 l 1
 626 440 l 1
 706 440 l 1
 546 0 l 1
 466 0 l 1
 360 291 l 1
 254 0 l 1
 174 0 l 1
 14 440 l 1
 122 440 l 1
 228 148 l 1
EndSplineSet
Validated: 1
EndChar

StartChar: x
Encoding: 120 120 23
Width: 417
VWidth: 0
Flags: W
HStem: 0 21G<4 104.032 279.968 415> 420 20G<7 141.12 278.04 377>
AnchorPoint: "top" 206 490 basechar 0
LayerCount: 2
Fore
SplineSet
149 222 m 1
 7 440 l 1
 128 440 l 1
 210 315 l 1
 291 440 l 1
 377 440 l 1
 253 249 l 1
 415 0 l 1
 293 0 l 1
 192 155 l 1
 91 0 l 1
 4 0 l 1
 149 222 l 1
EndSplineSet
Validated: 1
EndChar

StartChar: y
Encoding: 121 121 24
Width: 451
VWidth: 0
Flags: W
HStem: -170 50<102.834 159.397> 420 20G<43 158.285 355.715 443>
AnchorPoint: "top" 246 490 basechar 0
LayerCount: 2
Fore
SplineSet
119 -170 m 0
 80 -170 19 -147 -5 -88 c 1
 91 -74 l 1
 102 -109 123 -120 134 -120 c 0
 151 -120 173 -82 195 -22 c 2
 203 0 l 1
 43 440 l 1
 151 440 l 1
 257 149 l 1
 363 440 l 1
 443 440 l 1
 274 -24 l 2
 241 -115 196 -170 119 -170 c 0
EndSplineSet
Validated: 1
EndChar

StartChar: k
Encoding: 107 107 25
Width: 479
VWidth: 0
Flags: W
HStem: 0 21G<72 197 324.199 446> 420 20G<298.239 428> 640 20G<72 197>
VStem: 72 125<0 181 306 660>
AnchorPoint: "cedilla" 248 0 basechar 0
AnchorPoint: "top" 189 700 basechar 0
LayerCount: 2
Fore
SplineSet
197 306 m 1
 316 440 l 1
 428 440 l 1
 254 245 l 1
 446 0 l 1
 340 0 l 1
 197 181 l 1
 197 0 l 1
 72 0 l 1
 72 660 l 1
 197 660 l 1
 197 306 l 1
EndSplineSet
Validated: 1
EndChar

StartChar: z
Encoding: 122 122 26
Width: 420
VWidth: 0
Flags: W
HStem: 0 50<172 402> 390 50<36 254>
AnchorPoint: "top" 214 490 basechar 0
LayerCount: 2
Fore
SplineSet
254 390 m 1
 21 390 l 1
 36 440 l 1
 399 440 l 1
 172 50 l 1
 402 50 l 1
 402 0 l 1
 26 0 l 1
 254 390 l 1
EndSplineSet
Validated: 1
EndChar

StartChar: A
Encoding: 65 65 27
Width: 634
VWidth: 0
Flags: W
HStem: 0 21G<19 141.3 494.7 617> 200 50<225 411> 680 20G<266.714 369.286>
AnchorPoint: "bottom" 316 0 basechar 0
AnchorPoint: "ogonek" 537 0 basechar 0
AnchorPoint: "top" 318 700 basechar 0
LayerCount: 2
Fore
SplineSet
362 700 m 1
 617 0 l 1
 502 0 l 1
 429 200 l 1
 207 200 l 1
 134 0 l 1
 19 0 l 1
 274 700 l 1
 362 700 l 1
318 505 m 1
 225 250 l 1
 411 250 l 1
 318 505 l 1
EndSplineSet
Validated: 1
EndChar

StartChar: B
Encoding: 66 66 28
Width: 545
VWidth: 0
Flags: W
HStem: 0 50<215 320.324> 355 50<215 280.054> 650 50<215 293.613>
VStem: 85 130<50 355 405 650> 335 130<460.717 606.904> 377 130<105.466 282.83>
AnchorPoint: "top" 245 700 basechar 0
LayerCount: 2
Fore
SplineSet
215 355 m 1xf4
 215 50 l 1
 255 50 l 2
 340 50 377 119 377 189 c 0
 377 259 340 355 255 355 c 2
 215 355 l 1xf4
381 388 m 1
 470 352 507 266 507 189 c 0xf4
 507 89 443 0 285 0 c 2
 85 0 l 1
 85 700 l 1
 265 700 l 2
 425 700 465 618 465 525 c 0xf8
 465 492 446 427 381 388 c 1
215 650 m 1
 215 405 l 1
 299 406 335 486 335 525 c 0xf8
 335 564 320 650 235 650 c 2
 215 650 l 1
EndSplineSet
Validated: 1
EndChar

StartChar: P
Encoding: 80 80 29
Width: 532
VWidth: 0
Flags: W
HStem: 0 21G<85 215> 320 50<215 324.801> 650 50<215 324.801>
VStem: 85 130<0 320 370 650> 377 130<425.964 594.036>
AnchorPoint: "top" 274 700 basechar 0
LayerCount: 2
Fore
SplineSet
215 320 m 1
 215 0 l 1
 85 0 l 1
 85 700 l 1
 290 700 l 2
 450 700 507 590 507 510 c 0
 507 430 448 320 290 320 c 2
 215 320 l 1
215 650 m 1
 215 370 l 1
 260 370 l 2
 345 370 377 450 377 510 c 0
 377 570 345 650 260 650 c 2
 215 650 l 1
EndSplineSet
Validated: 1
EndChar

StartChar: C
Encoding: 67 67 30
Width: 650
VWidth: 0
Flags: W
HStem: -10 50<300.002 458.656> 660 50<278.601 440.536>
VStem: 50 130<215.477 494.263>
AnchorPoint: "cedilla" 370 0 basechar 0
AnchorPoint: "top" 350 700 basechar 0
LayerCount: 2
Fore
SplineSet
610 102 m 1
 560 38 471 -10 362 -10 c 0
 232 -10 50 100 50 350 c 0
 50 600 212 710 343 710 c 0
 479 710 561 665 607 608 c 1
 497 575 l 1
 464 622 442 660 358 660 c 0
 242 660 180 560 180 350 c 0
 180 130 282 40 377 40 c 0
 454 40 479 72 516 129 c 1
 610 102 l 1
EndSplineSet
Validated: 1
EndChar

StartChar: D
Encoding: 68 68 31
Width: 637
VWidth: 0
Flags: W
HStem: 0 50<215 361.574> 650 50<215 368.57>
VStem: 85 130<50 650> 458 130<192.383 523.986>
AnchorPoint: "top" 284 700 basechar 0
LayerCount: 2
Fore
SplineSet
327 0 m 2
 85 0 l 1
 85 700 l 1
 327 700 l 2
 487 700 588 602 588 360 c 0
 588 120 485 0 327 0 c 2
215 650 m 1
 215 50 l 1
 297 50 l 2
 382 50 458 140 458 360 c 0
 458 580 382 650 297 650 c 2
 215 650 l 1
EndSplineSet
Validated: 1
EndChar

StartChar: E
Encoding: 69 69 32
Width: 546
VWidth: 0
Flags: W
HStem: 0 50<215 505> 390 50<215 399> 650 50<215 489>
VStem: 85 130<50 390 440 650>
AnchorPoint: "ogonek" 413 0 basechar 0
AnchorPoint: "top" 300 700 basechar 0
LayerCount: 2
Fore
SplineSet
505 0 m 1
 85 0 l 1
 85 700 l 1
 489 700 l 1
 489 650 l 9
 215 650 l 1
 215 440 l 1
 399 440 l 17
 399 390 l 9
 215 390 l 1
 215 50 l 1
 505 50 l 17
 505 0 l 1
EndSplineSet
Validated: 1
EndChar

StartChar: F
Encoding: 70 70 33
Width: 521
VWidth: 0
Flags: W
HStem: 0 21G<85 215> 390 50<215 399> 650 50<215 489>
VStem: 85 130<0 390 440 650>
AnchorPoint: "top" 295 700 basechar 0
LayerCount: 2
Fore
SplineSet
85 0 m 1
 85 700 l 1
 489 700 l 17
 489 650 l 9
 215 650 l 5
 215 440 l 5
 399 440 l 17
 399 390 l 9
 215 390 l 5
 215 0 l 5
 85 0 l 1
EndSplineSet
Validated: 1
EndChar

StartChar: G
Encoding: 71 71 34
Width: 670
VWidth: 0
Flags: W
HStem: -10 50<300.002 475.667> 350 50<401 485> 650 50<275.414 446.915>
VStem: 50 130<215.477 492.779> 485 125<78.8125 350>
AnchorPoint: "cedilla" 370 0 basechar 0
AnchorPoint: "top" 350 700 basechar 0
LayerCount: 2
Fore
SplineSet
401 400 m 1
 610 400 l 1
 610 102 l 1
 560 38 471 -10 362 -10 c 0
 232 -10 50 100 50 350 c 0
 50 600 212 700 343 700 c 0
 479 700 561 665 607 608 c 1
 497 575 l 1
 464 622 442 650 358 650 c 0
 242 650 180 560 180 350 c 0
 180 130 282 40 377 40 c 0
 418 40 454 49 485 66 c 1
 485 350 l 1
 401 350 l 1
 401 400 l 1
EndSplineSet
Validated: 1
EndChar

StartChar: H
Encoding: 72 72 35
Width: 660
VWidth: 0
Flags: W
HStem: 0 21G<85 215 447 577> 350 50<215 447> 680 20G<85 215 447 577>
VStem: 85 130<0 350 400 700> 447 130<0 350 400 700>
AnchorPoint: "top" 335 700 basechar 0
LayerCount: 2
Fore
SplineSet
215 700 m 1
 215 400 l 1
 447 400 l 1
 447 700 l 1
 577 700 l 1
 577 0 l 1
 447 0 l 1
 447 350 l 1
 215 350 l 1
 215 0 l 1
 85 0 l 1
 85 700 l 1
 215 700 l 1
EndSplineSet
Validated: 1
EndChar

StartChar: I
Encoding: 73 73 36
Width: 296
VWidth: 0
Flags: W
HStem: 0 21G<84 214> 680 20G<84 214>
VStem: 84 130<0 700>
AnchorPoint: "ogonek" 137 0 basechar 0
AnchorPoint: "top" 150 700 basechar 0
LayerCount: 2
Fore
SplineSet
214 700 m 25
 214 0 l 17
 84 0 l 9
 84 700 l 25
 214 700 l 25
EndSplineSet
Validated: 1
EndChar

StartChar: J
Encoding: 74 74 37
Width: 466
VWidth: 0
Flags: W
HStem: -10 50<132.712 228.759> 680 20G<255 385>
VStem: 255 130<67.0062 700>
AnchorPoint: "top" 321 700 basechar 0
LayerCount: 2
Fore
SplineSet
385 238 m 18
 385 38 352 -10 175 -10 c 0
 120 -10 63 11 17 35 c 1
 102 87 l 1
 135 52 172 40 190 40 c 0
 233 40 255 84 255 216 c 2
 255 700 l 17
 385 700 l 9
 385 238 l 18
EndSplineSet
Validated: 1
EndChar

StartChar: K
Encoding: 75 75 38
Width: 607
VWidth: 0
Flags: W
HStem: 0 21G<85 215 477.268 602> 680 20G<85 215 457.192 590>
VStem: 85 130<0 280 408 700>
AnchorPoint: "cedilla" 320 0 basechar 0
AnchorPoint: "top" 281 700 basechar 0
LayerCount: 2
Fore
SplineSet
215 280 m 1
 215 0 l 1
 85 0 l 1
 85 700 l 1
 215 700 l 1
 215 408 l 1
 475 700 l 1
 590 700 l 1
 304 379 l 1
 602 0 l 1
 493 0 l 1
 246 314 l 1
 215 280 l 1
EndSplineSet
Validated: 1
EndChar

StartChar: L
Encoding: 76 76 39
Width: 529
VWidth: 0
Flags: W
HStem: 0 50<215 505> 680 20G<85 215>
VStem: 85 130<50 700>
AnchorPoint: "cedilla" 291 0 basechar 0
AnchorPoint: "top" 260 700 basechar 0
LayerCount: 2
Fore
SplineSet
215 50 m 1
 505 50 l 17
 505 0 l 1
 85 0 l 1
 85 700 l 1
 215 700 l 1
 215 50 l 1
EndSplineSet
Validated: 1
EndChar

StartChar: M
Encoding: 77 77 40
Width: 794
VWidth: 0
Flags: W
HStem: 0 21G<85 215 581 711> 680 20G<85 224.337 571.663 711>
VStem: 85 130<0 511> 581 130<0 511>
AnchorPoint: "top" 398 700 basechar 0
LayerCount: 2
Fore
SplineSet
215 700 m 1
 398 308 l 1
 581 700 l 1
 711 700 l 1
 711 0 l 1
 581 0 l 1
 581 511 l 1
 398 121 l 1
 215 511 l 1
 215 0 l 1
 85 0 l 1
 85 700 l 1
 215 700 l 1
EndSplineSet
Validated: 1
EndChar

StartChar: N
Encoding: 78 78 41
Width: 687
VWidth: 0
Flags: W
HStem: 0 21G<85 215 464.133 604> 680 20G<85 225.904 474 604>
VStem: 85 130<0 525> 474 130<179 700>
AnchorPoint: "cedilla" 340 0 basechar 0
AnchorPoint: "top" 350 700 basechar 0
LayerCount: 2
Fore
SplineSet
604 700 m 1
 604 0 l 1
 474 0 l 1
 215 525 l 1
 215 0 l 1
 85 0 l 1
 85 700 l 1
 215 700 l 1
 216 700 l 1
 474 179 l 1
 474 700 l 1
 604 700 l 1
EndSplineSet
Validated: 1
EndChar

StartChar: O
Encoding: 79 79 42
Width: 701
VWidth: 0
Flags: W
HStem: -10 50<286.381 420.627> 660 50<276.102 417.709>
VStem: 50 130<207.236 494.263> 523 130<202.207 492.764>
AnchorPoint: "bottom" 352 0 basechar 0
AnchorPoint: "horn" 594 530 basechar 0
AnchorPoint: "ogonek" 354 0 basechar 0
AnchorPoint: "top" 345 700 basechar 0
LayerCount: 2
Fore
SplineSet
344 -10 m 0
 211 -10 50 100 50 350 c 0
 50 600 201 710 335 710 c 0
 498 710 653 600 653 350 c 0
 653 100 508 -10 344 -10 c 0
341 660 m 0
 251 660 180 560 180 350 c 0
 180 130 270 40 350 40 c 0
 448 40 523 140 523 350 c 0
 523 570 446 660 341 660 c 0
EndSplineSet
Validated: 1
EndChar

StartChar: Q
Encoding: 81 81 43
Width: 701
VWidth: 0
Flags: W
HStem: -170 210<350 564> -170 50<486.975 564> 660 50<263.534 423.5>
VStem: 50 130<209.406 494.263> 523 130<199.502 492.764>
AnchorPoint: "top" 337 700 basechar 0
LayerCount: 2
Fore
SplineSet
341 660 m 0xb8
 222 660 180 560 180 350 c 0
 180 130 252 40 350 40 c 0
 454 40 523 140 523 350 c 0
 523 570 456 660 341 660 c 0xb8
281 -2 m 1
 165 27 50 139 50 350 c 0
 50 600 201 710 335 710 c 0
 498 710 653 600 653 350 c 0
 653 135 546 24 412 -3 c 1
 424 -73 500 -120 564 -120 c 1x78
 564 -170 l 1
 468 -170 296 -128 281 -2 c 1
EndSplineSet
Validated: 1
EndChar

StartChar: R
Encoding: 82 82 44
Width: 556
VWidth: 0
Flags: W
HStem: 0 21G<85 215 405 532> 320 50<215 265.073> 650 50<215 324.801>
VStem: 85 130<0 320 370 650> 377 130<425.554 594.036> 405 127<0 98.4018>
AnchorPoint: "cedilla" 288 0 basechar 0
AnchorPoint: "top" 274 700 basechar 0
LayerCount: 2
Fore
SplineSet
215 320 m 1xf4
 215 0 l 1
 85 0 l 1
 85 700 l 1
 290 700 l 2
 450 700 507 590 507 510 c 0xf8
 507 447 471 366 379 334 c 1
 445 272 532 95 532 0 c 1
 405 0 l 1
 405 93 318 264 244 320 c 1
 215 320 l 1xf4
215 650 m 1
 215 370 l 1
 260 370 l 2
 345 370 377 450 377 510 c 0
 377 570 345 650 260 650 c 2
 215 650 l 1
EndSplineSet
Validated: 1
EndChar

StartChar: S
Encoding: 83 83 45
Width: 580
VWidth: 0
Flags: W
HStem: -10 50<231.353 352.167> 660 50<238.787 340.495>
VStem: 79 130<474.276 611.447> 398 130<97.6909 248.937>
AnchorPoint: "cedilla" 280 0 basechar 0
AnchorPoint: "top" 278 700 basechar 0
LayerCount: 2
Fore
SplineSet
50 171 m 1
 163 186 l 1
 173 107 232 40 283 40 c 0
 362 40 398 92 398 178 c 0
 398 370 79 316 79 538 c 0
 79 635 182 710 282 710 c 0
 420 710 454 662 494 598 c 1
 385 577 l 1
 355 632 336 660 274 660 c 0
 244 660 209 616 209 538 c 0
 209 374 528 413 528 178 c 0
 528 70 430 -10 276 -10 c 0
 156 -10 74 75 50 171 c 1
EndSplineSet
Validated: 1
EndChar

StartChar: T
Encoding: 84 84 46
Width: 625
VWidth: 0
Flags: W
HStem: 0 21G<248 378> 650 50<20 248 378 605>
VStem: 248 130<0 650>
AnchorPoint: "cedilla" 312 0 basechar 0
AnchorPoint: "top" 314 700 basechar 0
LayerCount: 2
Fore
SplineSet
20 700 m 1
 607 700 l 1
 605 650 l 1
 378 650 l 1
 378 0 l 1
 248 0 l 1
 248 650 l 1
 20 650 l 1
 20 700 l 1
EndSplineSet
Validated: 1
EndChar

StartChar: U
Encoding: 85 85 47
Width: 685
VWidth: 0
Flags: W
HStem: -10 50<275.47 414.062> 680 20G<76 206 479 609>
VStem: 76 130<160.097 700> 479 130<145.107 700>
AnchorPoint: "bottom" 352 0 basechar 0
AnchorPoint: "horn" 609 530 basechar 0
AnchorPoint: "ogonek" 376 0 basechar 0
AnchorPoint: "top" 352 700 basechar 0
LayerCount: 2
Fore
SplineSet
479 700 m 1
 609 700 l 1
 609 298 l 2
 609 48 484 -10 340 -10 c 0
 234 -10 76 48 76 298 c 2
 76 700 l 1
 206 700 l 1
 206 298 l 2
 206 78 278 40 346 40 c 0
 422 40 479 88 479 298 c 2
 479 700 l 1
EndSplineSet
Validated: 1
EndChar

StartChar: V
Encoding: 86 86 48
Width: 563
VWidth: 0
Flags: W
HStem: 0 21G<232.514 333.486> 680 20G<12 137.482 428.518 554>
AnchorPoint: "top" 280 700 basechar 0
LayerCount: 2
Fore
SplineSet
239 0 m 1
 12 700 l 1
 131 700 l 1
 283 231 l 1
 435 700 l 1
 554 700 l 1
 327 0 l 1
 239 0 l 1
EndSplineSet
Validated: 1
EndChar

StartChar: X
Encoding: 88 88 49
Width: 600
VWidth: 0
Flags: W
HStem: 0 21G<42 141.189 390.811 527> 680 20G<44 180.179 387.821 488>
AnchorPoint: "top" 281 700 basechar 0
LayerCount: 2
Fore
SplineSet
329 388 m 1
 527 0 l 1
 401 0 l 1
 266 265 l 1
 131 0 l 1
 42 0 l 1
 221 352 l 1
 44 700 l 1
 170 700 l 1
 284 476 l 1
 398 700 l 1
 488 700 l 1
 329 388 l 1
EndSplineSet
Validated: 1
EndChar

StartChar: W
Encoding: 87 87 50
Width: 865
VWidth: 0
Flags: W
HStem: 0 21G<237.514 338.519 530.544 631.486> 420 20G<378.465 490.457> 680 20G<17 142.459 726.502 852>
AnchorPoint: "top" 427 700 basechar 0
LayerCount: 2
Fore
SplineSet
484 440 m 1
 566 186 l 1
 733 700 l 1
 852 700 l 1
 625 0 l 1
 537 0 l 1
 435 316 l 1
 332 0 l 1
 244 0 l 1
 17 700 l 1
 136 700 l 1
 302 186 l 1
 385 440 l 1
 484 440 l 1
EndSplineSet
Validated: 1
EndChar

StartChar: Y
Encoding: 89 89 51
Width: 483
VWidth: 0
Flags: W
HStem: 0 21G<187 317> 680 20G<11 147.206 374.794 475>
VStem: 187 130<0 355>
AnchorPoint: "top" 251 700 basechar 0
LayerCount: 2
Fore
SplineSet
261 457 m 1
 385 700 l 1
 475 700 l 1
 317 391 l 1
 317 0 l 1
 187 0 l 1
 187 355 l 1
 11 700 l 1
 137 700 l 1
 261 457 l 1
EndSplineSet
Validated: 1
EndChar

StartChar: Z
Encoding: 90 90 52
Width: 508
VWidth: 0
Flags: W
HStem: 0 50<177 480> 650 50<50 328>
AnchorPoint: "top" 250 700 basechar 0
LayerCount: 2
Fore
SplineSet
328 650 m 1
 35 650 l 1
 50 700 l 1
 476 700 l 1
 177 50 l 1
 480 50 l 1
 480 0 l 1
 30 0 l 1
 328 650 l 1
EndSplineSet
Validated: 1
EndChar

StartChar: exclam
Encoding: 33 33 53
Width: 219
VWidth: 0
Flags: W
HStem: 0 80<55 160> 680 20G<45 170>
VStem: 45 125<457.333 700> 55 105<0 80 180 284>
LayerCount: 2
Fore
SplineSet
55 80 m 5xd0
 160 80 l 5
 160 0 l 5
 55 0 l 5
 55 80 l 5xd0
170 700 m 17xe0
 155 180 l 9
 60 180 l 25
 45 700 l 25
 170 700 l 17xe0
EndSplineSet
Validated: 1
EndChar

StartChar: period
Encoding: 46 46 54
Width: 199
VWidth: 0
Flags: W
HStem: 0 80<45 150>
VStem: 45 105<0 80>
LayerCount: 2
Fore
SplineSet
45 80 m 1
 150 80 l 1
 150 0 l 1
 45 0 l 1
 45 80 l 1
EndSplineSet
Validated: 1
EndChar

StartChar: comma
Encoding: 44 44 55
Width: 219
VWidth: 0
Flags: W
HStem: -99 179<-33 18.6473>
VStem: 53 107<-23.6391 80>
LayerCount: 2
Fore
SplineSet
53 80 m 1
 160 80 l 1
 160 -50 137 -72 122 -99 c 1
 50 -99 l 1
 69 -72 74 -50 74 -25 c 0
 74 4 53 35 53 80 c 1
EndSplineSet
Validated: 1
EndChar

StartChar: quotesingle
Encoding: 39 39 56
Width: 209
VWidth: 0
Flags: W
HStem: 500 200<60 145>
VStem: 60 85<500 593.333>
LayerCount: 2
Fore
SplineSet
160 700 m 25
 145 500 l 25
 60 500 l 25
 45 700 l 25
 160 700 l 25
EndSplineSet
Validated: 1
EndChar

StartChar: dollar
Encoding: 36 36 58
Width: 510
VWidth: 0
Flags: W
HStem: 0 21G<188 229 269 310> 73 50<229 269> 77 53<119.697 188> 543 50<229.141 269> 640 20G<188 229 269 310>
VStem: 30 125<415.619 515.801> 188 41<0 73 130 323 406 527 593 660> 269 41<0 74 136 294 377 534 590 660> 350 125<161.692 277.83>
LayerCount: 2
Fore
SplineSet
446 531 m 1xbf80
 388 496 l 1
 366 514 339 526 310 534 c 1
 310 366 l 1
 406 336 475 281 475 226 c 0
 475 150 395 98 310 80 c 1
 310 0 l 1
 269 0 l 1
 269 74 l 1
 261 73 252 73 244 73 c 0
 239 73 234 73 229 73 c 1xdf80
 229 0 l 1
 188 0 l 1
 188 77 l 1
 131 86 75 107 30 140 c 1
 73 177 l 1
 106 154 145 138 188 130 c 1
 188 333 l 1
 107 358 30 402 30 464 c 0
 30 535 111 580 188 590 c 1
 188 660 l 1
 229 660 l 1
 229 593 l 1
 242 593 255 592 269 590 c 1
 269 660 l 1
 310 660 l 1
 310 584 l 1
 360 574 410 557 446 531 c 1xbf80
188 406 m 1
 188 527 l 1
 169 513 155 491 155 464 c 0
 155 440 168 420 188 406 c 1
229 323 m 1
 229 124 l 1
 239 123 249 123 259 123 c 2
 269 123 l 1
 269 314 l 1
 253 319 245 320 229 323 c 1
229 386 m 1
 245 381 253 380 269 377 c 1
 269 541 l 1
 259 542 249 543 239 543 c 0
 236 543 232 543 229 542 c 1
 229 386 l 1
310 294 m 1
 310 136 l 1
 339 154 350 189 350 226 c 0
 350 255 334 278 310 294 c 1
EndSplineSet
Validated: 1
EndChar

StartChar: bar
Encoding: 124 124 59
Width: 174
VWidth: 0
Flags: W
HStem: 0 21G<45 125> 680 20G<45 125>
VStem: 45 80<0 700>
LayerCount: 2
Fore
SplineSet
125 700 m 25
 125 0 l 25
 45 0 l 25
 45 700 l 25
 125 700 l 25
EndSplineSet
Validated: 1
EndChar

StartChar: slash
Encoding: 47 47 60
Width: 442
VWidth: 0
Flags: W
HStem: 0 21G<30 137.086> 680 20G<304.914 412>
LayerCount: 2
Fore
SplineSet
412 700 m 1
 129 0 l 1
 30 0 l 1
 313 700 l 1
 412 700 l 1
EndSplineSet
Validated: 1
EndChar

StartChar: backslash
Encoding: 92 92 61
Width: 442
VWidth: 0
Flags: W
HStem: 0 21G<304.914 412> 680 20G<30 137.086>
LayerCount: 2
Fore
SplineSet
30 700 m 1
 129 700 l 1
 412 0 l 1
 313 0 l 1
 30 700 l 1
EndSplineSet
Validated: 1
EndChar

StartChar: question
Encoding: 63 63 62
Width: 461
VWidth: 0
Flags: W
HStem: 0 80<142 247> 180 105<152 237> 620 50<136.112 255.335>
VStem: 142 105<0 80> 152 85<180 229> 306 125<349.613 540.966>
LayerCount: 2
Fore
SplineSet
142 80 m 1xf4
 247 80 l 1
 247 0 l 1
 142 0 l 1
 142 80 l 1xf4
245 238 m 1
 237 180 l 1
 152 180 l 1xec
 137 285 l 1
 190 285 l 2
 265 285 306 330 306 440 c 0
 306 550 280 620 185 620 c 0
 134 620 138 597 115 560 c 1
 20 583 l 1
 60 634 118 670 200 670 c 0
 330 670 431 580 431 440 c 0
 431 318 336 253 245 238 c 1
EndSplineSet
Validated: 1
EndChar

StartChar: percent
Encoding: 37 37 65
Width: 622
VWidth: 0
Flags: W
HStem: 76 53<412.677 475.323> 231 53<412.677 475.323> 356 53<142.677 205.323> 511 53<142.677 205.323>
VStem: 40 98<412.131 507.869> 210 98<412.131 507.869> 310 98<132.131 227.869> 480 98<132.131 227.869>
LayerCount: 2
Fore
SplineSet
408 180 m 0
 408 152 416 129 444 129 c 0
 472 129 480 152 480 180 c 0
 480 208 472 231 444 231 c 0
 416 231 408 208 408 180 c 0
310 180 m 0
 310 260 386 284 444 284 c 0
 502 284 578 260 578 180 c 0
 578 100 502 76 444 76 c 0
 386 76 310 100 310 180 c 0
138 460 m 0
 138 432 146 409 174 409 c 0
 202 409 210 432 210 460 c 0
 210 488 202 511 174 511 c 0
 146 511 138 488 138 460 c 0
40 460 m 0
 40 540 116 564 174 564 c 0
 232 564 308 540 308 460 c 0
 308 380 232 356 174 356 c 0
 116 356 40 380 40 460 c 0
70 129 m 1
 441 511 l 1
 548 511 l 1
 177 129 l 1
 70 129 l 1
EndSplineSet
Validated: 1
EndChar

StartChar: numbersign
Encoding: 35 35 66
Width: 549
VWidth: 0
Flags: W
HStem: 200 50<50 111 235 277 402 474> 410 50<75 148 272 314 439 499>
LayerCount: 2
Fore
SplineSet
227 200 m 1
 202 60 l 1
 86 60 l 1
 111 200 l 1
 50 200 l 1
 50 250 l 1
 119 250 l 1
 148 410 l 1
 75 410 l 1
 75 460 l 1
 156 460 l 1
 181 600 l 1
 297 600 l 1
 272 460 l 1
 323 460 l 1
 347 600 l 1
 463 600 l 1
 439 460 l 1
 499 460 l 1
 499 410 l 1
 430 410 l 1
 402 250 l 1
 474 250 l 1
 474 200 l 1
 393 200 l 1
 369 60 l 1
 253 60 l 1
 277 200 l 1
 227 200 l 1
235 250 m 1
 286 250 l 1
 314 410 l 1
 264 410 l 1
 235 250 l 1
EndSplineSet
Validated: 1
EndChar

StartChar: zero
Encoding: 48 48 67
Width: 500
VWidth: 0
Flags: W
HStem: -10 50<204.666 299.923> 490 50<208.739 298.446>
VStem: 35 125<140.07 374.202> 340 125<143.775 386.225>
LayerCount: 2
Fore
SplineSet
340 265 m 0
 340 371 324 490 256 490 c 0
 181 490 160 375 160 265 c 0
 160 155 167 40 256 40 c 0
 331 40 340 159 340 265 c 0
465 265 m 0
 465 111 371 -10 241 -10 c 0
 111 -10 35 125 35 265 c 0
 35 405 141 540 241 540 c 0
 371 540 465 419 465 265 c 0
EndSplineSet
Validated: 1
EndChar

StartChar: one
Encoding: 49 49 68
Width: 460
VWidth: 0
Flags: W
HStem: 0 21G<167 292> 469 50<138 167>
VStem: 167 125<0 472>
LayerCount: 2
Fore
SplineSet
292 535 m 1
 292 0 l 1
 167 0 l 1
 167 472 l 1
 138 469 l 1
 138 519 l 1
 292 535 l 1
EndSplineSet
Validated: 1
EndChar

StartChar: two
Encoding: 50 50 69
Width: 460
VWidth: 0
Flags: W
HStem: 0 50<185 400> 480 50<186.081 260.34>
VStem: 60 125<50 105.649> 272 125<300.681 454.994>
LayerCount: 2
Fore
SplineSet
60 0 m 1
 60 226 272 225 272 371 c 0
 272 450 260 480 229 480 c 0
 189 480 177 453 158 404 c 1
 60 428 l 1
 87 484 142 530 244 530 c 0
 330 530 397 462 397 371 c 0
 397 210 185 194 185 50 c 1
 400 50 l 25
 400 0 l 25
 60 0 l 1
EndSplineSet
Validated: 1
EndChar

StartChar: three
Encoding: 51 51 70
Width: 460
VWidth: 0
Flags: W
HStem: -126 50<158.323 258.087> 206 50<175 249.095> 480 50<165.557 258.18>
VStem: 277 125<291.709 445.518> 296 125<-18.9307 146.948>
LayerCount: 2
Fore
SplineSet
175 206 m 1xe8
 175 256 l 1
 255 256 277 290 277 371 c 0
 277 450 256 480 214 480 c 0
 161 480 162 453 143 404 c 1
 55 428 l 1
 82 484 127 530 229 530 c 0
 315 530 402 462 402 371 c 0xf0
 402 305 367 258 308 231 c 1
 384 197 421 132 421 56 c 0
 421 -42 315 -126 229 -126 c 0
 127 -126 66 -78 39 -22 c 1
 127 2 l 1
 146 -47 161 -76 214 -76 c 0
 256 -76 296 -22 296 56 c 0
 296 133 285 206 175 206 c 1xe8
EndSplineSet
Validated: 1
EndChar

StartChar: four
Encoding: 52 52 71
Width: 460
VWidth: 0
Flags: W
HStem: 0 50<109 256 381 435>
VStem: 256 125<-116 0 50 365>
LayerCount: 2
Fore
SplineSet
25 33 m 1
 257 530 l 1
 381 530 l 1
 381 50 l 1
 435 50 l 1
 435 0 l 1
 381 0 l 1
 381 -116 l 1
 256 -116 l 1
 256 0 l 1
 25 0 l 1
 25 33 l 1
256 50 m 1
 256 365 l 1
 109 50 l 1
 256 50 l 1
EndSplineSet
Validated: 1
EndChar

StartChar: five
Encoding: 53 53 72
Width: 460
VWidth: 0
Flags: W
HStem: -126 50<169.631 260.595> 480 50<251 394>
VStem: 286 125<-18.3268 195.606>
LayerCount: 2
Fore
SplineSet
89 271 m 1
 134 530 l 1
 394 530 l 1
 394 480 l 1
 251 480 l 1
 222 310 l 1
 371 280 411 195 411 81 c 0
 411 -44 325 -126 239 -126 c 0
 137 -126 76 -78 49 -22 c 1
 142 2 l 1
 161 -47 171 -76 224 -76 c 0
 266 -76 286 -26 286 81 c 0
 286 188 282 271 89 271 c 1
EndSplineSet
Validated: 1
EndChar

StartChar: six
Encoding: 54 54 73
Width: 460
VWidth: 0
Flags: W
HStem: -10 50<181.833 270.667> 286 50<175.488 275.707>
VStem: 34 125<100.023 276.718> 301 125<83.3258 253.323>
LayerCount: 2
Fore
SplineSet
165 278 m 1
 161 250 159 220 159 188 c 0
 159 90 174 40 224 40 c 0
 281 40 301 102 301 172 c 0
 301 224 284 286 233 286 c 0
 209 286 187 283 165 278 c 1
175 333 m 1
 189 335 203 336 218 336 c 0
 322 336 426 292 426 172 c 0
 426 52 332 -10 239 -10 c 0
 137 -10 34 68 34 188 c 0
 34 520 342 676 342 676 c 1
 376 646 l 1
 376 646 225 553 175 333 c 1
EndSplineSet
Validated: 1
EndChar

StartChar: seven
Encoding: 55 55 74
Width: 460
VWidth: 0
Flags: W
HStem: 480 50<83 276>
VStem: 68 324
LayerCount: 2
Fore
SplineSet
83 530 m 1
 392 530 l 1
 392 480 l 1
 232 -116 l 1
 116 -116 l 1
 276 480 l 1
 68 480 l 1
 83 530 l 1
EndSplineSet
Validated: 1
EndChar

StartChar: nine
Encoding: 57 57 75
Width: 460
VWidth: 0
Flags: W
HStem: 194 50<188.825 286.501> 490 50<185.698 263.515>
VStem: 34 125<277.564 438.73> 301 125<255.396 420.857>
LayerCount: 2
Fore
SplineSet
296 252 m 1
 299 278 301 304 301 332 c 0
 301 430 266 490 221 490 c 0
 176 490 159 418 159 348 c 0
 159 300 192 244 227 244 c 0
 251 244 274 247 296 252 c 1
287 197 m 1
 273 195 257 194 242 194 c 0
 138 194 34 228 34 348 c 0
 34 468 126 540 236 540 c 0
 320 540 426 452 426 332 c 0
 426 0 118 -146 118 -146 c 1
 84 -116 l 1
 84 -116 240 -27 287 197 c 1
EndSplineSet
Validated: 1
EndChar

StartChar: eight
Encoding: 56 56 76
Width: 460
VWidth: 0
Flags: W
HStem: -10 50<179.166 285.682> 660 50<192.318 271.206>
VStem: 20 130<94.8119 260.49> 44 130<468.553 614.501> 295 130<457.475 614.202> 310 130<92.9524 258.922>
LayerCount: 2
Fore
SplineSet
174 538 m 0xd8
 174 474 215 441 264 410 c 1
 291 442 295 486 295 530 c 0
 295 606 276 660 232 660 c 0
 185 660 174 616 174 538 c 0xd8
143 367 m 1
 89 402 44 446 44 538 c 0
 44 635 140 710 240 710 c 0
 336 710 425 634 425 530 c 0xd8
 425 471 378 413 326 372 c 1
 386 334 440 284 440 178 c 0
 440 70 351 -10 223 -10 c 0
 109 -10 20 78 20 178 c 0xe4
 20 255 77 323 143 367 c 1
197 335 m 1
 158 300 150 245 150 178 c 0
 150 102 163 40 230 40 c 0
 300 40 310 92 310 178 c 0xe4
 310 264 256 301 197 335 c 1
EndSplineSet
Validated: 1
EndChar

StartChar: ampersand
Encoding: 38 38 77
Width: 618
VWidth: 0
Flags: W
HStem: -10 50<219.677 382.695> 0 21G<440.222 563> 620 50<275.35 368.195>
VStem: 30 125<125.349 312.871> 152 113<446.248 609.154> 475 105<243.245 405>
LayerCount: 2
Fore
SplineSet
484 590 m 1xac
 382 573 l 1
 368 604 361 620 312 620 c 0
 266 620 265 571 265 528 c 0
 265 468 322 377 337 354 c 2
 453 172 l 1
 471 237 475 324 475 428 c 1
 580 405 l 1
 580 304 555 188 496 104 c 1
 563 0 l 1
 453 0 l 1x6c
 430 36 l 1
 390 7 340 -10 281 -10 c 0
 151 -10 30 80 30 220 c 0xb4
 30 324 102 400 180 432 c 1
 164 462 152 496 152 528 c 0
 152 629 220 670 327 670 c 0
 410 670 470 622 484 590 c 1xac
211 378 m 1
 176 349 155 293 155 220 c 0
 155 110 201 40 296 40 c 0xb4
 343 40 378 53 403 78 c 1
 211 378 l 1
EndSplineSet
Validated: 1
EndChar

StartChar: parenleft
Encoding: 40 40 78
Width: 313
VWidth: 0
Flags: W
HStem: 0 21G<175.4 263> 680 20G<175.4 263>
VStem: 50 125<190.017 509.983>
LayerCount: 2
Fore
SplineSet
50 350 m 0
 50 600 183 700 183 700 c 9
 263 700 l 17
 263 700 175 580 175 350 c 0
 175 120 263 0 263 0 c 9
 183 0 l 17
 183 0 50 100 50 350 c 0
EndSplineSet
Validated: 1
EndChar

StartChar: parenright
Encoding: 41 41 79
Width: 313
VWidth: 0
Flags: W
HStem: 0 21G<50 137.6> 680 20G<50 137.6>
VStem: 138 125<190.017 509.983>
LayerCount: 2
Fore
SplineSet
263 350 m 0
 263 100 130 0 130 0 c 9
 50 0 l 17
 50 0 138 120 138 350 c 0
 138 580 50 700 50 700 c 9
 130 700 l 17
 130 700 263 600 263 350 c 0
EndSplineSet
Validated: 1
EndChar

StartChar: asterisk
Encoding: 42 42 80
Width: 450
VWidth: 0
Flags: W
LayerCount: 2
Fore
SplineSet
193 533 m 1
 182 671 l 1
 268 671 l 1
 257 533 l 1
 386 586 l 1
 412 504 l 1
 277 472 l 1
 367 366 l 1
 298 315 l 1
 225 433 l 1
 152 315 l 1
 83 366 l 1
 173 472 l 1
 38 504 l 1
 64 586 l 1
 193 533 l 1
EndSplineSet
Validated: 1
EndChar

StartChar: plus
Encoding: 43 43 81
Width: 418
VWidth: 0
Flags: W
HStem: 170 50<40 162 256 378>
VStem: 162 94<26 170 220 364>
LayerCount: 2
Fore
SplineSet
256 170 m 1
 256 26 l 1
 162 26 l 1
 162 170 l 1
 40 170 l 1
 40 220 l 1
 162 220 l 1
 162 364 l 1
 256 364 l 1
 256 220 l 1
 378 220 l 1
 378 170 l 1
 256 170 l 1
EndSplineSet
Validated: 1
EndChar

StartChar: hyphen
Encoding: 45 45 82
Width: 317
VWidth: 0
Flags: W
HStem: 170 50<40 277>
VStem: 40 237<170 220>
LayerCount: 2
Fore
SplineSet
40 220 m 1
 277 220 l 1
 277 170 l 1
 40 170 l 1
 40 220 l 1
EndSplineSet
Validated: 1
EndChar

StartChar: less
Encoding: 60 60 83
Width: 448
VWidth: 0
Flags: W
HStem: 420 20G<324.579 366.929>
LayerCount: 2
Fore
SplineSet
56 231 m 1
 353 440 l 1
 392 384 l 1
 173 231 l 1
 392 79 l 1
 353 23 l 1
 56 231 l 1
EndSplineSet
Validated: 1
EndChar

StartChar: greater
Encoding: 62 62 84
Width: 448
VWidth: 0
Flags: W
HStem: 420 20G<81.0714 123.558>
LayerCount: 2
Fore
SplineSet
392 232 m 1
 95 23 l 1
 56 79 l 1
 275 232 l 1
 56 384 l 1
 95 440 l 1
 392 232 l 1
EndSplineSet
Validated: 1
EndChar

StartChar: equal
Encoding: 61 61 85
Width: 346
VWidth: 0
Flags: W
HStem: 170 50<40 306> 280 50<40 306>
VStem: 40 266<170 220 280 330>
LayerCount: 2
Fore
SplineSet
40 330 m 1
 306 330 l 1
 306 280 l 1
 40 280 l 1
 40 330 l 1
40 220 m 1
 306 220 l 1
 306 170 l 1
 40 170 l 1
 40 220 l 1
EndSplineSet
Validated: 1
EndChar

StartChar: at
Encoding: 64 64 86
Width: 727
VWidth: 0
Flags: W
HStem: -10 50<303.678 513.795> 128 50<468.953 524.5> 136 32<330.354 405.672> 420 32<330.368 389.607> 550 50<285.098 449.201>
VStem: 30 125<190.505 406.587> 228 71<204.31 381.835> 394 70<179.847 418.245> 543 125<248.792 450.551>
LayerCount: 2
Fore
SplineSet
466 364 m 0xbf80
 466 318 464 298 464 250 c 0
 464 190 475 178 492 178 c 0
 539 178 543 254 543 353 c 0
 543 480 450 550 378 550 c 0
 262 550 155 466 155 300 c 0
 155 115 302 40 397 40 c 0
 474 40 574 72 611 129 c 1
 670 102 l 1
 620 38 548 -10 382 -10 c 0
 216 -10 30 90 30 300 c 0
 30 486 197 600 363 600 c 0
 542 600 668 506 668 353 c 0
 668 239 596 128 477 128 c 0xdf80
 461 128 440 133 423 151 c 1
 406 141 385 136 356 136 c 0
 274 136 228 210 228 300 c 0
 228 390 296 452 360 452 c 0
 412 452 466 428 466 364 c 0xbf80
406 179 m 1
 399 197 394 220 394 250 c 0
 394 308 396 302 396 364 c 0
 396 388 392 420 370 420 c 0
 322 420 299 370 299 300 c 0
 299 230 318 168 365 168 c 0xbf80
 385 168 397 171 406 179 c 1
EndSplineSet
Validated: 1
EndChar

StartChar: bracketleft
Encoding: 91 91 87
Width: 256
VWidth: 0
Flags: W
HStem: 0 40<145 211> 620 40<145 211>
VStem: 45 100<40 620>
LayerCount: 2
Fore
SplineSet
211 0 m 1
 45 0 l 1
 45 660 l 1
 211 660 l 1
 211 620 l 1
 145 620 l 1
 145 40 l 1
 211 40 l 1
 211 0 l 1
EndSplineSet
Validated: 1
EndChar

StartChar: bracketright
Encoding: 93 93 88
Width: 256
VWidth: 0
Flags: W
HStem: 0 40<45 111> 620 40<45 111>
VStem: 111 100<40 620>
LayerCount: 2
Fore
SplineSet
45 660 m 1
 211 660 l 1
 211 0 l 1
 45 0 l 1
 45 40 l 1
 111 40 l 1
 111 620 l 1
 45 620 l 1
 45 660 l 1
EndSplineSet
Validated: 1
EndChar

StartChar: underscore
Encoding: 95 95 89
Width: 338
VWidth: 0
Flags: W
HStem: -90 50<0 338>
LayerCount: 2
Fore
SplineSet
0 -40 m 1
 338 -40 l 1
 338 -90 l 1
 0 -90 l 1
 0 -40 l 1
EndSplineSet
Validated: 1
EndChar

StartChar: braceleft
Encoding: 123 123 90
Width: 279
VWidth: 0
Flags: W
HStem: 0 21G<101.5 239> 680 20G<101.5 239>
VStem: 40 199
LayerCount: 2
Fore
SplineSet
169 700 m 1
 239 700 l 1
 201 672 194 626 194 576 c 0
 194 548 196 518 196 490 c 0
 196 433 187 380 135 350 c 1
 188 320 196 266 196 209 c 0
 196 181 194 152 194 124 c 0
 194 74 201 28 239 0 c 1
 169 0 l 1
 34 77 134 281 40 350 c 1
 134 419 34 623 169 700 c 1
EndSplineSet
Validated: 1
EndChar

StartChar: braceright
Encoding: 125 125 91
Width: 279
VWidth: 0
Flags: W
HStem: 0 21G<40 177.5> 680 20G<40 177.5>
VStem: 40 199
LayerCount: 2
Fore
SplineSet
110 0 m 1
 40 0 l 1
 78 28 85 74 85 124 c 0
 85 152 83 182 83 210 c 0
 83 267 92 320 144 350 c 1
 91 380 83 434 83 491 c 0
 83 519 85 548 85 576 c 0
 85 626 78 672 40 700 c 1
 110 700 l 1
 245 623 145 419 239 350 c 1
 145 281 245 77 110 0 c 1
EndSplineSet
Validated: 1
EndChar

StartChar: gravecomb
Encoding: 768 768 92
Width: 0
VWidth: 0
Flags: W
HStem: 610 197
VStem: -354 181
AnchorPoint: "top" -222 580 mark 0
LayerCount: 2
Fore
SplineSet
-281 807 m 25
 -173 636 l 25
 -204 610 l 25
 -354 747 l 25
 -281 807 l 25
EndSplineSet
Validated: 1
EndChar

StartChar: acutecomb
Encoding: 769 769 93
Width: 0
VWidth: 0
Flags: W
HStem: 610 197
VStem: -336 181
AnchorPoint: "top" -287 580 mark 0
LayerCount: 2
Fore
SplineSet
-228 807 m 25
 -155 747 l 25
 -305 610 l 25
 -336 636 l 25
 -228 807 l 25
EndSplineSet
Validated: 1
EndChar

StartChar: uni0302
Encoding: 770 770 94
Width: 0
VWidth: 0
Flags: W
HStem: 614 146
VStem: -421 269
AnchorPoint: "top" -287 580 mark 0
LayerCount: 2
Fore
SplineSet
-152 663 m 1
 -207 614 l 1
 -286 690 l 1
 -366 614 l 1
 -421 663 l 1
 -286 760 l 1
 -152 663 l 1
EndSplineSet
Validated: 1
EndChar

StartChar: tildecomb
Encoding: 771 771 95
Width: 0
VWidth: 0
Flags: W
HStem: 620 69<-285.459 -188.446> 652 69<-375.554 -278.541>
VStem: -420 41<620 645.606> -185 41<695.394 721>
AnchorPoint: "top" -287 580 mark 0
LayerCount: 2
Fore
SplineSet
-185 721 m 1x70
 -144 721 l 1x70
 -150 671 -184 620 -242 620 c 0xb0
 -276 620 -305 652 -327 652 c 0x70
 -357 652 -376 642 -379 620 c 1
 -420 620 l 1xb0
 -414 670 -380 721 -322 721 c 0x70
 -288 721 -259 689 -237 689 c 0xb0
 -207 689 -188 699 -185 721 c 1x70
EndSplineSet
Validated: 1
EndChar

StartChar: uni0304
Encoding: 772 772 96
Width: 0
VWidth: 0
Flags: W
HStem: 620 56<-407 -177>
VStem: -407 230<620 676>
AnchorPoint: "top" -287 580 mark 0
LayerCount: 2
Fore
SplineSet
-407 676 m 1
 -177 676 l 1
 -177 620 l 1
 -407 620 l 1
 -407 676 l 1
EndSplineSet
Validated: 1
EndChar

StartChar: uni0306
Encoding: 774 774 97
Width: 0
VWidth: 0
Flags: W
HStem: 620 67<-346.684 -227.316>
VStem: -400 38<706.041 716.684> -212 38<706.041 716.684>
AnchorPoint: "top" -287 580 mark 0
LayerCount: 2
Fore
SplineSet
-287 687 m 0
 -250 687 -215 711 -212 733 c 1
 -174 713 l 1
 -180 663 -229 620 -287 620 c 0
 -345 620 -394 663 -400 713 c 1
 -362 733 l 1
 -359 711 -324 687 -287 687 c 0
EndSplineSet
Validated: 1
EndChar

StartChar: uni0307
Encoding: 775 775 98
Width: 0
VWidth: 0
Flags: W
HStem: 620 83<-330 -247>
VStem: -330 83<620 703>
AnchorPoint: "top" -287 580 mark 0
LayerCount: 2
Fore
SplineSet
-330 703 m 1
 -247 703 l 1
 -247 620 l 1
 -330 620 l 1
 -330 703 l 1
EndSplineSet
Validated: 1
EndChar

StartChar: uni030A
Encoding: 778 778 100
Width: 0
VWidth: 0
Flags: W
HStem: 570 35<-319.96 -254.04> 687 35<-319.96 -254.04>
VStem: -363 35<612.892 679.108> -246 35<612.892 679.108>
AnchorPoint: "top" -287 580 mark 0
LayerCount: 2
Fore
SplineSet
-328 646 m 0
 -328 624 -310 605 -287 605 c 0
 -264 605 -246 624 -246 646 c 0
 -246 668 -264 687 -287 687 c 0
 -310 687 -328 668 -328 646 c 0
-363 646 m 0
 -363 688 -329 722 -287 722 c 0
 -245 722 -211 688 -211 646 c 0
 -211 604 -245 570 -287 570 c 0
 -329 570 -363 604 -363 646 c 0
EndSplineSet
Validated: 1
EndChar

StartChar: uni030C
Encoding: 780 780 102
Width: 0
VWidth: 0
Flags: W
HStem: 556 189
VStem: -404 234
AnchorPoint: "top" -287 580 mark 0
LayerCount: 2
Fore
SplineSet
-287 556 m 1
 -404 719 l 1
 -373 745 l 1
 -287 657 l 1
 -201 745 l 1
 -170 719 l 1
 -287 556 l 1
EndSplineSet
Validated: 1
EndChar

StartChar: uni0311
Encoding: 785 785 104
Width: 0
VWidth: 0
Flags: W
HStem: 656 67<-346.684 -227.316>
VStem: -400 38<626.316 636.959> -212 38<626.316 636.959>
AnchorPoint: "top" -287 580 mark 0
LayerCount: 2
Fore
SplineSet
-287 656 m 0
 -324 656 -359 632 -362 610 c 1
 -400 630 l 1
 -394 680 -345 723 -287 723 c 0
 -229 723 -180 680 -174 630 c 1
 -212 610 l 1
 -215 632 -250 656 -287 656 c 0
EndSplineSet
Validated: 1
EndChar

StartChar: uni0312
Encoding: 786 786 105
Width: 0
VWidth: 0
Flags: W
HStem: 620 179<-299.647 -267>
VStem: -334 88<620 723.639>
AnchorPoint: "top" -287 580 mark 0
LayerCount: 2
Fore
SplineSet
-246 620 m 1
 -334 620 l 1
 -334 750 -311 772 -296 799 c 1
 -243 799 l 1
 -262 772 -267 750 -267 725 c 0
 -267 696 -246 665 -246 620 c 1
EndSplineSet
Validated: 1
EndChar

StartChar: uni0313
Encoding: 787 787 106
Width: 0
VWidth: 0
Flags: W
HStem: 620 179<-381 -348.353>
VStem: -314 88<695.361 799>
AnchorPoint: "top" -287 580 mark 0
LayerCount: 2
Fore
SplineSet
-314 799 m 1
 -226 799 l 1
 -226 669 -249 647 -264 620 c 1
 -317 620 l 1
 -298 647 -293 669 -293 694 c 0
 -293 723 -314 754 -314 799 c 1
EndSplineSet
Validated: 1
EndChar

StartChar: uni0314
Encoding: 788 788 107
Width: 0
VWidth: 0
Flags: W
HStem: 620 179<-316.647 -284>
VStem: -351 88<695.361 799>
AnchorPoint: "top" -287 580 mark 0
LayerCount: 2
Fore
SplineSet
-263 799 m 1
 -263 754 -284 723 -284 694 c 0
 -284 669 -279 647 -260 620 c 1
 -313 620 l 1
 -328 647 -351 669 -351 799 c 1
 -263 799 l 1
EndSplineSet
Validated: 1
EndChar

StartChar: uni0326
Encoding: 806 806 108
Width: 0
VWidth: 0
Flags: W
HStem: -196 24<-364 -294.2> -80 28<-328 -287.041>
VStem: -271 77<-160.05 -89.6665>
AnchorPoint: "cedilla" -288 0 mark 0
LayerCount: 2
Fore
SplineSet
-328 -52 m 17
 -251 -52 -194 -83 -194 -122 c 0
 -194 -162 -252 -196 -364 -196 c 1
 -364 -172 l 17
 -316 -172 -271 -164 -271 -128 c 0
 -271 -98 -286 -86 -328 -80 c 1
 -328 -52 l 17
EndSplineSet
Validated: 1
EndChar

StartChar: uni0327
Encoding: 807 807 109
Width: 0
VWidth: 0
Flags: W
HStem: -196 24<-364 -294.2> -80 80<-322 -278.733>
VStem: -271 77<-159.669 -90.0933>
AnchorPoint: "cedilla" -288 0 mark 0
LayerCount: 2
Fore
SplineSet
-336 -80 m 1
 -322 0 l 1
 -254 0 l 1
 -261 -55 l 1
 -224 -63 -194 -85 -194 -122 c 0
 -194 -162 -252 -196 -364 -196 c 1
 -364 -172 l 1
 -320 -172 -271 -164 -271 -128 c 0
 -271 -98 -290 -83 -336 -80 c 1
EndSplineSet
Validated: 1
EndChar

StartChar: uni0328
Encoding: 808 808 110
Width: 0
VWidth: 0
Flags: W
HStem: -156 18<-252.745 -210>
VStem: -356 72<-124.212 -37.8217>
AnchorPoint: "ogonek" -236 0 mark 0
LayerCount: 2
Fore
SplineSet
-236 12 m 9
 -236 12 -236 7 -236 0 c 1
 -262 -13 -284 -50 -284 -73 c 0
 -284 -100 -276 -138 -210 -138 c 9
 -210 -156 l 1
 -322 -156 -356 -119 -356 -91 c 0
 -356 -27 -285 -2 -236 12 c 9
EndSplineSet
Validated: 1
EndChar

StartChar: uni0237
Encoding: 567 567 111
Width: 292
VWidth: 0
Flags: W
HStem: -170 50<-1.25167 97.2194> 420 20G<108 233>
VStem: 108 125<-99.4098 440>
AnchorPoint: "top" 170 490 basechar 0
LayerCount: 2
Fore
SplineSet
16 -95 m 1
 30 -115 50 -120 69 -120 c 0
 102 -120 108 -82 108 0 c 2
 108 440 l 1
 233 440 l 1
 233 -33 l 2
 233 -132 124 -170 54 -170 c 0
 16 -170 -21 -156 -47 -125 c 1
 16 -95 l 1
EndSplineSet
Validated: 1
EndChar

StartChar: dotlessi
Encoding: 305 305 112
Width: 244
VWidth: 0
Flags: W
HStem: 0 21G<60 185> 420 20G<60 185>
VStem: 60 125<0 440>
AnchorPoint: "top" 124 490 basechar 0
LayerCount: 2
Fore
SplineSet
60 440 m 1
 185 440 l 1
 185 0 l 1
 60 0 l 1
 60 440 l 1
EndSplineSet
Validated: 1
EndChar

StartChar: Thorn
Encoding: 222 222 163
Width: 532
VWidth: 0
Flags: W
HStem: 0 21G<85 215> 160 50<215 324.801> 490 50<215 324.801> 680 20G<85 215>
VStem: 85 130<0 160 210 490 540 700> 377 130<265.964 434.036>
LayerCount: 2
Fore
SplineSet
215 160 m 1
 215 0 l 1
 85 0 l 1
 85 700 l 1
 215 700 l 1
 215 540 l 1
 290 540 l 2
 450 540 507 430 507 350 c 0
 507 270 448 160 290 160 c 2
 215 160 l 1
215 490 m 1
 215 210 l 1
 260 210 l 2
 345 210 377 290 377 350 c 0
 377 410 345 490 260 490 c 2
 215 490 l 1
EndSplineSet
Validated: 1
EndChar

StartChar: thorn
Encoding: 254 254 164
Width: 531
VWidth: 0
Flags: W
HStem: -8 50<234.523 319.023> 402 50<226.476 327.946> 640 20G<72 197>
VStem: 72 125<-200 4 88.6029 371.149 442 660> 364 125<123.62 324.66>
LayerCount: 2
Fore
SplineSet
197 4 m 1
 197 -200 l 1
 72 -200 l 1
 72 660 l 1
 197 660 l 1
 197 442 l 1
 221 449 248 452 277 452 c 0
 402 452 489 347 489 222 c 0
 489 97 391 -8 267 -8 c 0
 241 -8 218 -4 197 4 c 1
197 246 m 0
 197 154 206 42 282 42 c 0
 334 42 364 137 364 222 c 0
 364 307 344 402 292 402 c 0
 203 402 197 340 197 246 c 0
EndSplineSet
Validated: 1
EndChar

StartChar: multiply
Encoding: 215 215 165
Width: 418
VWidth: 0
Flags: W
HStem: 107 284
VStem: 67 284
LayerCount: 2
Fore
SplineSet
254 249 m 1
 351 152 l 1
 306 107 l 1
 209 204 l 1
 112 107 l 1
 67 152 l 1
 164 249 l 1
 67 346 l 1
 112 391 l 1
 209 294 l 1
 306 391 l 1
 351 346 l 1
 254 249 l 1
EndSplineSet
Validated: 1
EndChar

StartChar: oslash
Encoding: 248 248 167
Width: 516
VWidth: 0
Flags: W
HStem: -10 50<222.635 314.523> 400 50<207.83 300.717>
VStem: 44 125<105.352 320.966> 349 125<109 331.816>
LayerCount: 2
Fore
SplineSet
474 220 m 0
 474 66 380 -10 250 -10 c 0
 232 -10 216 -8 200 -5 c 1
 182 -50 l 1
 123 -50 l 1
 148 13 l 1
 81 48 44 122 44 220 c 0
 44 360 150 450 250 450 c 0
 275 450 299 447 321 441 c 1
 341 490 l 1
 400 490 l 1
 372 421 l 1
 435 386 474 319 474 220 c 0
183 100 m 1
 301 391 l 1
 291 397 279 400 265 400 c 0
 191 400 169 330 169 220 c 0
 169 171 173 130 183 100 c 1
222 50 m 1
 234 43 248 40 265 40 c 0
 335 40 349 114 349 220 c 0
 349 265 346 304 337 335 c 1
 222 50 l 1
EndSplineSet
Validated: 1
EndChar

StartChar: AE
Encoding: 198 198 168
Width: 761
VWidth: 0
Flags: W
HStem: 0 50<430 720> 200 50<225 300> 390 50<430 614> 650 50<430 704>
VStem: 300 130<50 200 250 390 440 456>
AnchorPoint: "top" 378 700 basechar 0
LayerCount: 2
Fore
SplineSet
19 0 m 1
 274 700 l 1
 704 700 l 1
 704 650 l 1
 430 650 l 1
 430 440 l 1
 614 440 l 1
 614 390 l 1
 430 390 l 1
 430 50 l 1
 720 50 l 1
 720 0 l 1
 300 0 l 1
 300 200 l 1
 207 200 l 1
 134 0 l 1
 19 0 l 1
225 250 m 1
 300 250 l 1
 300 456 l 1
 225 250 l 1
EndSplineSet
Validated: 1
EndChar

StartChar: ae
Encoding: 230 230 169
Width: 752
VWidth: 0
Flags: W
HStem: -10 50<196 292.725 463.693 594.22> 220 50<421 584> 254 50<195.187 291> 400 50<165.133 271.5 458.025 557.185>
VStem: 46 125<64.6873 227.812> 294 125<91.7199 220>
AnchorPoint: "top" 384 490 basechar 0
LayerCount: 2
Fore
SplineSet
56 405 m 1xbc
 102 429 159 450 214 450 c 0
 299 450 350 439 379 405 c 1
 415 434 458 450 500 450 c 0
 639 450 710 330 710 220 c 1
 419 220 l 1xdc
 419 110 440 40 535 40 c 0
 586 40 603 63 610 100 c 1
 705 77 l 1
 665 26 602 -10 520 -10 c 0
 468 -10 421 5 384 31 c 1
 277 -6 277 -10 230 -10 c 0
 125 -10 46 32 46 152 c 0
 46 272 150 304 230 304 c 0
 251 304 272 303 291 301 c 1
 285 374 268 400 229 400 c 0
 194 400 166 386 141 353 c 1
 56 405 l 1xbc
421 270 m 1
 584 270 l 1
 581 344 569 400 515 400 c 0
 452 400 427 351 421 270 c 1
294 48 m 1
 294 251 l 1
 278 253 262 254 245 254 c 0xbc
 204 254 171 222 171 152 c 0
 171 82 195 40 245 40 c 0
 265 40 280 43 294 48 c 1
EndSplineSet
Validated: 1
EndChar

StartChar: eth
Encoding: 240 240 170
Width: 505
VWidth: 0
Flags: W
HStem: -10 50<218.666 309.389> 400 50<210.761 300.885> 640 20G<299.19 339.429>
VStem: 44 125<117.34 330.336> 336 125<103.32 354.068>
LayerCount: 2
Fore
SplineSet
299 592 m 1
 396 490 461 366 461 212 c 0
 461 48 346 -10 246 -10 c 0
 132 -10 44 95 44 220 c 0
 44 345 114 450 246 450 c 0
 267 450 288 447 308 442 c 1
 294 484 274 519 248 550 c 1
 200 510 l 1
 177 537 l 1
 223 576 l 1
 204 594 183 611 158 628 c 1
 208 674 l 1
 230 657 252 638 273 618 c 1
 323 660 l 1
 346 632 l 1
 299 592 l 1
336 180 m 1
 336 342 307 400 261 400 c 0
 187 400 169 305 169 220 c 0
 169 135 202 40 261 40 c 0
 319 40 334 88 336 180 c 1
EndSplineSet
Validated: 1
EndChar

StartChar: Eth
Encoding: 208 208 173
Width: 637
VWidth: 0
UnlinkRmOvrlpSave: 1
Flags: W
HStem: 0 50<215 361.574> 390 50<50 85 215 256> 650 50<215 368.57>
VStem: 85 130<50 390 440 650> 458 130<192.383 523.986>
LayerCount: 2
Fore
SplineSet
327 0 m 2
 85 0 l 1
 85 390 l 1
 50 390 l 1
 50 440 l 1
 85 440 l 1
 85 700 l 1
 327 700 l 2
 487 700 588 602 588 360 c 0
 588 120 485 0 327 0 c 2
215 390 m 1
 215 50 l 1
 297 50 l 2
 382 50 458 140 458 360 c 0
 458 580 382 650 297 650 c 2
 215 650 l 1
 215 440 l 1
 256 440 l 1
 256 390 l 1
 215 390 l 1
EndSplineSet
EndChar

StartChar: germandbls
Encoding: 223 223 174
Width: 509
VWidth: 0
Flags: W
HStem: -114 40<267.625 287.796> 0 21G<68 193> 390 50<193 326> 620 50<220.783 314.445>
VStem: 68 125<0 390 440 588.359> 360 115<-10.1735 114.25>
LayerCount: 2
Fore
SplineSet
68 0 m 1
 68 422 l 2
 68 622 91 670 268 670 c 0
 323 670 355 649 401 625 c 1
 351 573 l 1
 305 605 288 620 253 620 c 0
 217 620 193 572 193 440 c 1
 462 440 l 1
 339 245 l 1
 392 213 475 148 475 50 c 0
 475 -68 272 -114 272 -114 c 1
 247 -74 l 1
 247 -74 360 -36 360 50 c 0
 360 136 227 234 227 234 c 1
 326 390 l 1
 193 390 l 1
 193 0 l 1
 68 0 l 1
EndSplineSet
Validated: 1
EndChar

StartChar: Lslash
Encoding: 321 321 224
Width: 529
VWidth: 0
UnlinkRmOvrlpSave: 1
Flags: W
HStem: 0 50<215 505> 680 20G<85 215>
VStem: 85 130<50 326 391 434 500 700>
LayerCount: 2
Fore
SplineSet
215 50 m 1
 505 50 l 1
 505 0 l 1
 85 0 l 1
 85 326 l 1
 41 289 l 1
 9 328 l 1
 85 391 l 1
 85 700 l 1
 215 700 l 1
 215 500 l 1
 264 541 l 1
 296 502 l 1
 215 434 l 1
 215 50 l 1
EndSplineSet
EndChar

StartChar: lslash
Encoding: 322 322 225
Width: 268
VWidth: 0
UnlinkRmOvrlpSave: 1
Flags: W
HStem: 0 21G<72 197> 640 20G<72 197>
VStem: 72 125<0 330 396 434 500 660>
LayerCount: 2
Fore
SplineSet
72 330 m 1
 23 289 l 1
 -9 328 l 1
 72 396 l 1
 72 660 l 1
 197 660 l 1
 197 500 l 1
 246 541 l 1
 278 502 l 1
 197 434 l 1
 197 0 l 1
 72 0 l 1
 72 330 l 1
EndSplineSet
EndChar

StartChar: dcroat
Encoding: 273 273 226
Width: 532
VWidth: 0
UnlinkRmOvrlpSave: 1
Flags: W
HStem: -10 50<206.478 312.323> 0 21G<336 461> 400 50<206.608 303.352> 530 50<288 336 461 494> 640 20G<336 461>
VStem: 44 125<111.377 328.623> 336 125<0 2 64.5742 359.711 431 530 580 660>
LayerCount: 2
Fore
SplineSet
336 196 m 0xbe
 336 288 330 400 261 400 c 0
 176 400 169 305 169 220 c 0
 169 135 176 40 261 40 c 0
 330 40 336 102 336 196 c 0xbe
461 530 m 1
 461 0 l 1
 336 0 l 1x7e
 336 2 l 1
 309 -6 279 -10 246 -10 c 0
 121 -10 44 95 44 220 c 0
 44 345 122 450 246 450 c 0
 279 450 309 443 336 431 c 1
 336 530 l 1
 288 530 l 1
 288 580 l 1
 336 580 l 1
 336 660 l 1
 461 660 l 1
 461 580 l 1
 494 580 l 1
 494 530 l 1
 461 530 l 1
EndSplineSet
EndChar

StartChar: Hbar
Encoding: 294 294 246
Width: 660
VWidth: 0
UnlinkRmOvrlpSave: 1
Flags: W
HStem: 0 21<85 215 447 577> 350 50<215 447> 566 50<45 617> 680 20<85 215 447 577>
VStem: 85 130<0 350 400 700> 447 130<0 350 400 700>
LayerCount: 2
Fore
SplineSet
45 616 m 1
 617 616 l 1
 617 566 l 1
 45 566 l 1
 45 616 l 1
EndSplineSet
Refer: 35 72 N 1 0 0 1 0 0 2
EndChar

StartChar: hbar
Encoding: 295 295 247
Width: 531
VWidth: 0
UnlinkRmOvrlpSave: 1
Flags: W
HStem: 0 21G<72 197 338 463> 400 50<197.939 314.268> 530 50<32 72 197 238> 640 20G<72 197>
VStem: 72 125<0 391.817 443 530 580 660> 338 125<0 351.628>
LayerCount: 2
Fore
SplineSet
197 383 m 1
 197 0 l 1
 72 0 l 1
 72 530 l 1
 32 530 l 1
 32 580 l 1
 72 580 l 1
 72 660 l 1
 197 660 l 1
 197 580 l 1
 238 580 l 1
 238 530 l 1
 197 530 l 1
 197 443 l 1
 215 447 234 450 254 450 c 0
 394 450 463 382 463 240 c 2
 463 0 l 1
 338 0 l 1
 338 228 l 2
 338 368 316 400 269 400 c 0
 243 400 219 394 197 383 c 1
EndSplineSet
EndChar

StartChar: kgreenlandic
Encoding: 312 312 305
Width: 459
VWidth: 0
Flags: W
HStem: 0 21G<50 175 302.199 424> 420 20G<50 175 276.239 406>
VStem: 50 125<0 181 306 440>
LayerCount: 2
Fore
SplineSet
175 306 m 1
 294 440 l 1
 406 440 l 1
 232 245 l 1
 424 0 l 1
 318 0 l 1
 175 181 l 1
 175 0 l 1
 50 0 l 1
 50 440 l 1
 175 440 l 1
 175 306 l 1
EndSplineSet
Validated: 1
EndChar

StartChar: Tbar
Encoding: 358 358 306
Width: 625
VWidth: 0
UnlinkRmOvrlpSave: 1
Flags: W
HStem: 0 21<248 378> 440 50<170 455> 650 50<20 248 378 605>
VStem: 248 130<0 650>
LayerCount: 2
Fore
SplineSet
170 490 m 5
 455 490 l 5
 455 440 l 5
 170 440 l 5
 170 490 l 5
EndSplineSet
Refer: 46 84 N 1 0 0 1 0 0 2
EndChar

StartChar: tbar
Encoding: 359 359 307
Width: 321
VWidth: 0
UnlinkRmOvrlpSave: 1
Flags: W
HStem: 0 21<92 217> 244 50<16 305> 390 50<41 92 217 295>
VStem: 16 289<244 294> 92 125<0 390 440 585>
LayerCount: 2
Fore
SplineSet
16 294 m 1xf0
 305 294 l 1
 305 244 l 1
 16 244 l 1
 16 294 l 1xf0
EndSplineSet
Refer: 10 116 N 1 0 0 1 0 0 2
EndChar

StartChar: Eng
Encoding: 330 330 308
Width: 681
VWidth: 0
Flags: W
HStem: -10 50<335.81 438.891> 0 21G<72 202> 620 50<267.127 432.903> 640 20G<72 202>
VStem: 72 130<0 570.86 626 660> 487 130<130.261 547.726>
LayerCount: 2
Fore
SplineSet
617 288 m 2x2c
 617 88 545 -10 389 -10 c 0
 334 -10 298 0 258 35 c 1
 308 87 l 1
 336 54 369 40 404 40 c 0
 460 40 487 158 487 290 c 2
 487 448 l 2
 487 588 427 620 357 620 c 0xac
 285 620 235 583 202 554 c 1
 202 0 l 1
 72 0 l 1
 72 660 l 1
 202 660 l 1x5c
 202 626 l 1
 233 642 269 670 342 670 c 0
 482 670 617 602 617 460 c 2
 617 288 l 2x2c
EndSplineSet
Validated: 1
Substitution2: "'locl' Localized Forms in Sami-1" Engsami
EndChar

StartChar: eng
Encoding: 331 331 309
Width: 531
VWidth: 0
Flags: W
HStem: -170 50<228.748 327.854> 0 21G<72 197> 400 50<197.701 314.268>
VStem: 72 125<0 391.817> 338 125<-99.4098 351.628>
LayerCount: 2
Fore
SplineSet
463 -33 m 2
 463 -132 354 -170 284 -170 c 0
 246 -170 209 -156 183 -125 c 1
 246 -95 l 1
 260 -115 280 -120 299 -120 c 0
 335 -120 338 -82 338 0 c 2
 338 228 l 2
 338 368 316 400 269 400 c 0
 243 400 219 394 197 383 c 1
 197 0 l 1
 72 0 l 1
 72 440 l 1
 188 440 l 1
 204 445 234 450 254 450 c 0
 394 450 463 382 463 240 c 2
 463 -33 l 2
EndSplineSet
Validated: 1
EndChar

StartChar: asciicircum
Encoding: 94 94 310
Width: 448
VWidth: 0
Flags: W
LayerCount: 2
Fore
SplineSet
224 400 m 1
 432 102 l 1
 376 64 l 1
 224 282 l 1
 72 64 l 1
 16 102 l 1
 224 400 l 1
EndSplineSet
Validated: 1
EndChar

StartChar: asciitilde
Encoding: 126 126 311
Width: 406
VWidth: 0
Flags: W
HStem: 195 77<210.697 316.467> 227 77<89.5334 195.303>
VStem: 40 41<195 218.75> 325 41<280.25 304>
LayerCount: 2
Fore
SplineSet
325 304 m 1x70
 366 304 l 1x70
 360 254 316 195 258 195 c 0xb0
 178 195 179 227 143 227 c 0x70
 113 227 84 217 81 195 c 1
 40 195 l 1xb0
 46 245 90 304 148 304 c 0x70
 228 304 227 272 263 272 c 0xb0
 293 272 322 282 325 304 c 1x70
EndSplineSet
Validated: 1
EndChar

StartChar: exclamdown
Encoding: 161 161 312
Width: 219
VWidth: 0
Flags: W
HStem: 504 80<55 160>
VStem: 45 125<-116 126.667> 55 105<300 404 504 584>
LayerCount: 2
Fore
SplineSet
160 504 m 1xa0
 55 504 l 1
 55 584 l 1
 160 584 l 1
 160 504 l 1xa0
45 -116 m 17xc0
 60 404 l 9
 155 404 l 25
 170 -116 l 25
 45 -116 l 17xc0
EndSplineSet
Validated: 1
EndChar

StartChar: questiondown
Encoding: 191 191 313
Width: 461
VWidth: 0
Flags: W
HStem: -86 50<195.665 314.888> 299 105<214 299> 504 80<204 309>
VStem: 20 125<43.0337 234.387> 204 105<504 584> 214 85<355 404>
LayerCount: 2
Fore
SplineSet
309 504 m 1xf8
 204 504 l 1
 204 584 l 1
 309 584 l 1
 309 504 l 1xf8
206 346 m 1
 214 404 l 1
 299 404 l 1xf4
 314 299 l 1
 261 299 l 2
 186 299 145 254 145 144 c 0
 145 34 171 -36 266 -36 c 0
 317 -36 313 -13 336 24 c 1
 431 1 l 1
 391 -50 333 -86 251 -86 c 0
 121 -86 20 4 20 144 c 0
 20 266 115 331 206 346 c 1
EndSplineSet
Validated: 1
EndChar

StartChar: cent
Encoding: 162 162 314
Width: 461
VWidth: 0
Flags: W
HStem: 10 50<217.609 257 296 318.797> 380 50<217 257>
VStem: 25 125<121.174 317.603> 178 39<-50 12 95 349 429 490> 257 39<-50 10 63 361 429 490>
LayerCount: 2
Fore
SplineSet
178 422 m 1
 178 490 l 1
 217 490 l 1
 217 429 l 1
 223 430 230 430 236 430 c 0
 243 430 250 430 257 429 c 1
 257 490 l 1
 296 490 l 1
 296 422 l 1
 355 404 396 362 420 310 c 1
 325 277 l 1
 315 313 310 343 296 361 c 1
 296 63 l 1
 321 70 323 91 341 120 c 1
 421 97 l 1
 388 55 353 23 296 13 c 1
 296 -50 l 1
 257 -50 l 1
 257 10 l 1
 256 10 l 2
 243 10 230 11 217 12 c 1
 217 -50 l 1
 178 -50 l 1
 178 19 l 1
 88 43 25 110 25 220 c 0
 25 333 97 401 178 422 c 1
178 95 m 1
 178 349 l 1
 158 324 150 281 150 220 c 0
 150 162 157 121 178 95 c 1
217 68 m 1
 228 64 242 61 257 60 c 1
 257 380 l 1
 255 380 253 380 251 380 c 0
 238 380 227 379 217 376 c 1
 217 68 l 1
EndSplineSet
Validated: 1
EndChar

StartChar: brokenbar
Encoding: 166 166 315
Width: 184
VWidth: 0
Flags: W
HStem: 0 21G<45 135> 680 20G<45 135>
VStem: 45 90<0 320 380 700>
LayerCount: 2
Fore
SplineSet
135 700 m 25
 135 380 l 25
 45 380 l 25
 45 700 l 25
 135 700 l 25
135 320 m 25
 135 0 l 25
 45 0 l 25
 45 320 l 25
 135 320 l 25
EndSplineSet
Validated: 1
EndChar

StartChar: OE
Encoding: 338 338 316
Width: 955
VWidth: 0
Flags: W
HStem: -10 50<286.381 421.748> 0 50<624 914> 390 50<624 808> 650 50<624 898> 660 50<276.102 420.154>
VStem: 50 130<207.236 494.263> 494 130<115.308 390 440 583.339>
LayerCount: 2
Fore
SplineSet
914 0 m 1x76
 494 0 l 1x76
 494 26 l 1
 449 2 397 -10 344 -10 c 0
 211 -10 50 100 50 350 c 0
 50 600 201 710 335 710 c 0xae
 391 710 446 697 494 670 c 1
 494 700 l 1
 898 700 l 1
 898 650 l 1
 624 650 l 1
 624 440 l 1
 808 440 l 1
 808 390 l 1
 624 390 l 1
 624 50 l 1
 914 50 l 1
 914 0 l 1x76
341 660 m 0xae
 251 660 180 560 180 350 c 0
 180 130 270 40 350 40 c 0
 411 40 463 79 494 159 c 1
 494 542 l 1
 462 624 407 660 341 660 c 0xae
EndSplineSet
Validated: 1
EndChar

StartChar: oe
Encoding: 339 339 317
Width: 807
VWidth: 0
Flags: W
HStem: -10 50<207.713 315.519 519.419 649.22> 220 50<476 639> 400 50<207.83 314.854 512.649 612.185>
VStem: 44 125<104.505 320.966> 349 125<91.7199 220 270 354.153>
LayerCount: 2
Fore
SplineSet
476 270 m 1
 639 270 l 1
 636 344 624 400 570 400 c 0
 507 400 482 351 476 270 c 1
415 388 m 1
 454 428 505 450 555 450 c 0
 694 450 765 330 765 220 c 1
 474 220 l 1
 474 110 495 40 590 40 c 0
 641 40 658 63 665 100 c 1
 760 77 l 1
 720 26 657 -10 575 -10 c 0
 511 -10 455 12 415 51 c 1
 375 10 317 -10 250 -10 c 0
 120 -10 44 80 44 220 c 0
 44 360 150 450 250 450 c 0
 317 450 375 430 415 388 c 1
349 220 m 0
 349 326 332 400 265 400 c 0
 191 400 169 330 169 220 c 0
 169 110 187 40 265 40 c 0
 335 40 349 114 349 220 c 0
EndSplineSet
Validated: 1
EndChar

StartChar: Euro
Encoding: 8364 8364 318
Width: 588
VWidth: 0
Flags: W
HStem: -10 50<297.681 417.43> 250 50<50 86 215 356> 400 50<50 86 213 356> 650 50<278.051 413.336>
VStem: 84 125<300 400>
LayerCount: 2
Fore
SplineSet
548 102 m 1
 508 38 433 -10 346 -10 c 0
 257 -10 129 70 93 250 c 1
 35 250 l 1
 50 300 l 1
 86 300 l 1
 85 316 84 333 84 350 c 0
 84 367 85 384 86 400 c 1
 35 400 l 1
 50 450 l 1
 93 450 l 1
 125 627 241 700 330 700 c 0
 439 700 509 665 546 608 c 1
 452 575 l 1
 425 622 410 650 342 650 c 0
 266 650 225 589 213 450 c 1
 356 450 l 1
 356 400 l 1
 210 400 l 1
 209 384 209 367 209 350 c 0
 209 333 209 316 210 300 c 1
 356 300 l 1
 356 250 l 1
 215 250 l 1
 234 102 295 40 358 40 c 0
 419 40 429 72 459 129 c 1
 548 102 l 1
EndSplineSet
Validated: 1
EndChar

StartChar: yen
Encoding: 165 165 319
Width: 483
VWidth: 0
UnlinkRmOvrlpSave: 1
Flags: W
HStem: 0 21<187 317> 126 50<117 382> 234 50<117 382> 680 20<11 147.206 374.794 475>
VStem: 187 130<0 355>
LayerCount: 2
Fore
SplineSet
117 176 m 1
 382 176 l 1
 382 126 l 1
 117 126 l 1
 117 176 l 1
117 284 m 1
 382 284 l 1
 382 234 l 1
 117 234 l 1
 117 284 l 1
EndSplineSet
Refer: 51 89 N 1 0 0 1 0 0 2
EndChar

StartChar: sterling
Encoding: 163 163 320
Width: 441
VWidth: 0
Flags: W
HStem: 0 50<25 45.9685 157 401> 390 50<40 50 170 296> 620 50<190.7 280.656>
VStem: 50 120<50.2973 390 440 598.372>
LayerCount: 2
Fore
SplineSet
157 50 m 1
 401 50 l 1
 401 0 l 1
 25 0 l 1
 25 50 l 1
 44 50 50 72 50 116 c 2
 50 390 l 1
 25 390 l 1
 40 440 l 1
 50 440 l 1
 51 625 63 670 235 670 c 0
 290 670 332 649 378 625 c 1
 303 573 l 1
 282 604 255 620 220 620 c 0
 180 620 170 543 170 440 c 1
 296 440 l 1
 296 390 l 1
 170 390 l 1
 170 116 l 2
 170 84 166 56 157 50 c 1
EndSplineSet
Validated: 1
EndChar

StartChar: section
Encoding: 167 167 321
Width: 395
VWidth: 0
Flags: W
HStem: -9 50<133.854 221.232> 619 50<173.768 261.146>
VStem: 49 109<481.272 598.699> 62 109<277.193 395.118> 224 109<264.882 382.807> 237 109<61.3012 178.728>
LayerCount: 2
Fore
SplineSet
185 41 m 0xc4
 224 41 237 90 237 128 c 0
 237 236 62 174 62 335 c 0xd4
 62 365 71 405 104 436 c 1
 73 454 49 480 49 536 c 0
 49 589 104 669 212 669 c 0
 260 669 326 651 361 554 c 1
 291 544 l 1
 279 577 261 619 210 619 c 0
 171 619 158 570 158 532 c 0
 158 424 333 486 333 325 c 0xe8
 333 295 324 255 291 224 c 1
 322 206 346 180 346 124 c 0
 346 71 291 -9 183 -9 c 0
 135 -9 69 9 34 106 c 1
 104 116 l 1
 116 83 134 41 185 41 c 0xc4
188 396 m 1
 175 379 171 357 171 331 c 0
 171 297 186 277 207 264 c 1
 220 281 224 303 224 329 c 0xd8
 224 363 209 383 188 396 c 1
EndSplineSet
Validated: 1
EndChar

StartChar: copyright
Encoding: 169 169 322
Width: 538
VWidth: 0
Flags: W
HStem: -10 40<207.304 324.696> 94 30<244.811 306.571> 358 30<240.216 300.224> 462 40<207.304 324.696>
VStem: 13 101<138.193 353.807> 139 89<159.258 328.733> 418 101<138.193 353.807>
LayerCount: 2
Fore
SplineSet
114 246 m 0
 114 121 190 30 266 30 c 0
 342 30 418 121 418 246 c 0
 418 371 342 462 266 462 c 0
 190 462 114 371 114 246 c 0
13 246 m 0
 13 448 172 502 266 502 c 0
 360 502 519 448 519 246 c 0
 519 44 360 -10 266 -10 c 0
 172 -10 13 44 13 246 c 0
376 146 m 1
 364 130 333 94 269 94 c 0
 214 94 139 140 139 243 c 0
 139 346 206 388 261 388 c 0
 324 388 353 372 375 344 c 1
 310 327 l 1
 299 343 299 358 267 358 c 0
 233 358 228 324 228 243 c 0
 228 157 240 124 275 124 c 0
 310 124 309 148 318 161 c 1
 376 146 l 1
EndSplineSet
Validated: 1
EndChar

StartChar: registered
Encoding: 174 174 323
Width: 538
VWidth: 0
Flags: W
HStem: -10 40<207.304 324.696> 361 30<247 277.252> 462 40<207.304 324.696>
VStem: 13 101<138.193 353.807> 178 69<101 218 259 361> 289 68<264.812 355.156> 298 65<101 178.462> 418 101<138.193 353.807>
LayerCount: 2
Fore
SplineSet
114 246 m 0xf9
 114 121 190 30 266 30 c 0
 342 30 418 121 418 246 c 0
 418 371 342 462 266 462 c 0
 190 462 114 371 114 246 c 0xf9
13 246 m 0
 13 448 172 502 266 502 c 0
 360 502 519 448 519 246 c 0
 519 44 360 -10 266 -10 c 0
 172 -10 13 44 13 246 c 0
247 101 m 1
 178 101 l 1
 178 391 l 1
 265 391 l 2
 334 391 357 342 357 310 c 0xfd
 357 284 342 251 307 237 c 1
 321 221 363 155 363 101 c 1
 298 101 l 1xfb
 298 152 267 202 247 218 c 1
 247 101 l 1
247 361 m 1
 247 259 l 1
 277 259 289 287 289 310 c 0
 289 333 277 361 247 361 c 1
EndSplineSet
Validated: 1
EndChar

StartChar: ordfeminine
Encoding: 170 170 324
Width: 303
VWidth: 0
Flags: W
HStem: 170 30<35 268> 252 30<132.619 172.626> 384 30<130.019 172> 458 30<105.097 165.801>
VStem: 52 70<285.24 381.69> 173 70<282.001 384>
LayerCount: 2
Fore
SplineSet
35 200 m 1
 268 200 l 1
 268 170 l 1
 35 170 l 1
 35 200 l 1
173 284 m 1
 173 374 l 2
 173 377 173 380 173 383 c 1
 166 384 160 384 154 384 c 0
 138 384 122 369 122 336 c 0
 122 303 137 282 154 282 c 0
 160 282 167 283 173 284 c 1
189 258 m 1
 175 254 161 252 146 252 c 0
 92 252 52 275 52 336 c 0
 52 398 105 414 146 414 c 0
 155 414 164 414 172 413 c 1
 170 444 163 458 146 458 c 0
 129 458 106 447 90 431 c 1
 55 463 l 1
 79 476 109 488 138 488 c 0
 229 488 243 462 243 361 c 2
 243 258 l 1
 189 258 l 1
EndSplineSet
Validated: 1
EndChar

StartChar: ordmasculine
Encoding: 186 186 325
Width: 303
VWidth: 0
Flags: W
HStem: 170 30<35 268> 252 30<128.479 177.266> 458 30<127.377 176.607>
VStem: 41 71<292.296 440.872> 192 69<293.918 446.082>
LayerCount: 2
Fore
SplineSet
35 200 m 1
 268 200 l 1
 268 170 l 1
 35 170 l 1
 35 200 l 1
192 370 m 0
 192 422 177 458 155 458 c 0
 124 458 112 424 112 370 c 0
 112 316 126 282 155 282 c 0
 180 282 192 318 192 370 c 0
147 252 m 0
 81 252 41 298 41 370 c 0
 41 441 96 488 147 488 c 0
 214 488 261 448 261 370 c 0
 261 292 214 252 147 252 c 0
EndSplineSet
Validated: 1
EndChar

StartChar: guilsinglright
Encoding: 8250 8250 326
Width: 308
VWidth: 0
Flags: W
VStem: 50 208
LayerCount: 2
Fore
SplineSet
184 220 m 1
 50 380 l 1
 88 422 l 1
 258 220 l 1
 88 19 l 1
 50 61 l 1
 184 220 l 1
EndSplineSet
Validated: 1
EndChar

StartChar: guilsinglleft
Encoding: 8249 8249 327
Width: 308
VWidth: 0
Flags: W
VStem: 50 208
LayerCount: 2
Fore
SplineSet
124 221 m 1
 258 61 l 1
 220 19 l 1
 50 221 l 1
 220 422 l 1
 258 380 l 1
 124 221 l 1
EndSplineSet
Validated: 1
EndChar

StartChar: quoteleft
Encoding: 8216 8216 330
Width: 194
VWidth: 0
Flags: W
HStem: 481 179<79.3527 116>
VStem: 45 92<481 584.639>
LayerCount: 2
Fore
SplineSet
137 481 m 1
 45 481 l 1
 45 611 68 633 83 660 c 1
 140 660 l 1
 121 633 116 611 116 586 c 0
 116 557 137 526 137 481 c 1
EndSplineSet
Validated: 1
EndChar

StartChar: quoteright
Encoding: 8217 8217 331
Width: 194
VWidth: 0
Flags: W
HStem: 481 179<-23 13.6473>
VStem: 48 92<556.361 660>
LayerCount: 2
Fore
SplineSet
48 660 m 1
 140 660 l 1
 140 530 117 508 102 481 c 1
 45 481 l 1
 64 508 69 530 69 555 c 0
 69 584 48 615 48 660 c 1
EndSplineSet
Validated: 1
EndChar

StartChar: bullet
Encoding: 8226 8226 337
Width: 351
VWidth: 0
Flags: W
HStem: 140 236<102.086 249.534>
VStem: 41 264<191.377 319.326>
LayerCount: 2
Fore
SplineSet
169 140 m 0
 103 140 41 186 41 258 c 0
 41 329 118 376 169 376 c 0
 236 376 305 336 305 258 c 0
 305 180 236 140 169 140 c 0
EndSplineSet
Validated: 1
EndChar

StartChar: endash
Encoding: 8211 8211 338
Width: 392
VWidth: 0
Flags: W
HStem: 170 50<40 352>
VStem: 40 312<170 220>
LayerCount: 2
Fore
SplineSet
40 220 m 1
 352 220 l 1
 352 170 l 1
 40 170 l 1
 40 220 l 1
EndSplineSet
Validated: 1
EndChar

StartChar: emdash
Encoding: 8212 8212 339
Width: 542
VWidth: 0
Flags: W
HStem: 170 50<40 502>
LayerCount: 2
Fore
SplineSet
40 220 m 1
 502 220 l 1
 502 170 l 1
 40 170 l 1
 40 220 l 1
EndSplineSet
Validated: 1
EndChar

StartChar: currency
Encoding: 164 164 341
Width: 354
VWidth: 0
Flags: W
HStem: 121 47<147.379 206.621> 274 47<147.379 206.621>
VStem: 57 87<169.69 272.31> 210 87<169.69 272.31>
LayerCount: 2
Fore
SplineSet
144 221 m 0
 144 192 148 168 177 168 c 0
 206 168 210 192 210 221 c 0
 210 250 206 274 177 274 c 0
 148 274 144 250 144 221 c 0
80 159 m 1
 66 174 57 195 57 221 c 0
 57 247 66 268 80 283 c 1
 40 323 l 1
 75 358 l 1
 122 311 l 1
 139 318 159 321 177 321 c 0
 195 321 215 318 232 311 c 1
 279 358 l 1
 314 323 l 1
 274 283 l 1
 288 268 297 247 297 221 c 0
 297 195 288 174 274 159 c 1
 314 119 l 1
 279 84 l 1
 232 131 l 1
 215 124 195 121 177 121 c 0
 159 121 139 124 122 131 c 1
 75 84 l 1
 40 119 l 1
 80 159 l 1
EndSplineSet
Validated: 1
EndChar

StartChar: logicalnot
Encoding: 172 172 344
Width: 340
VWidth: 0
Flags: W
HStem: 95 125<215 300> 170 50<40 215>
VStem: 215 85<95 170>
LayerCount: 2
Fore
SplineSet
40 220 m 1x60
 300 220 l 1
 300 95 l 1
 215 95 l 1xa0
 215 170 l 1
 40 170 l 1
 40 220 l 1x60
EndSplineSet
Validated: 1
EndChar

StartChar: plusminus
Encoding: 177 177 345
Width: 418
VWidth: 0
Flags: W
HStem: 26 50<40 378> 221 50<40 162 256 378>
VStem: 162 94<127 221 271 365>
LayerCount: 2
Fore
SplineSet
40 76 m 1
 378 76 l 1
 378 26 l 1
 40 26 l 1
 40 76 l 1
256 221 m 1
 256 127 l 1
 162 127 l 1
 162 221 l 1
 40 221 l 1
 40 271 l 1
 162 271 l 1
 162 365 l 1
 256 365 l 1
 256 271 l 1
 378 271 l 1
 378 221 l 1
 256 221 l 1
EndSplineSet
Validated: 1
EndChar

StartChar: uni00B5
Encoding: 181 181 346
Width: 475
VWidth: 0
Flags: W
HStem: -10 50<193.126 305.131> 0 21G<306 431> 420 20G<40 165 306 431>
VStem: 40 125<-143 -2 71.2471 440> 306 125<0 7 46.1106 440>
LayerCount: 2
Fore
SplineSet
306 58 m 1xb8
 306 440 l 1
 431 440 l 1
 431 0 l 1
 306 0 l 1x78
 306 7 l 1
 284 -4 259 -10 234 -10 c 0
 208 -10 185 -7 165 -2 c 1
 165 -143 l 1
 40 -143 l 1
 40 440 l 1
 165 440 l 1
 165 228 l 2
 165 88 179 40 249 40 c 0
 273 40 291 47 306 58 c 1xb8
EndSplineSet
Validated: 1
EndChar

StartChar: divide
Encoding: 247 247 347
Width: 347
VWidth: 0
Flags: W
HStem: 47 83<124 217> 170 50<40 307> 260 83<124 217>
VStem: 124 93<47 130 260 343>
CounterMasks: 1 e0
LayerCount: 2
Fore
SplineSet
124 130 m 1
 217 130 l 1
 217 47 l 1
 124 47 l 1
 124 130 l 1
124 343 m 1
 217 343 l 1
 217 260 l 1
 124 260 l 1
 124 343 l 1
40 220 m 1
 307 220 l 1
 307 170 l 1
 40 170 l 1
 40 220 l 1
EndSplineSet
Validated: 1
EndChar

StartChar: paragraph
Encoding: 182 182 348
Width: 486
VWidth: 0
Flags: W
HStem: 0 21G<223 313 347 437> 650 50<313 347>
VStem: 40 130<425.177 594.241> 223 90<0 324.524 390 630> 347 90<0 650>
LayerCount: 2
Fore
SplineSet
347 650 m 1
 313 650 l 1
 313 0 l 1
 223 0 l 1
 223 322 l 1
 90 336 40 436 40 510 c 0
 40 590 97 700 257 700 c 2
 437 700 l 1
 437 0 l 1
 347 0 l 1
 347 650 l 1
223 390 m 1
 223 630 l 1
 185 603 170 552 170 510 c 0
 170 468 185 417 223 390 c 1
EndSplineSet
Validated: 1
EndChar

StartChar: uni00B9
Encoding: 185 185 349
Width: 179
VWidth: 0
Flags: W
HStem: 626 32<40 68>
VStem: 68 71<368 629>
LayerCount: 2
Fore
SplineSet
139 667 m 1
 139 368 l 1
 68 368 l 1
 68 629 l 1
 40 626 l 1
 40 658 l 1
 139 667 l 1
EndSplineSet
Validated: 1
EndChar

StartChar: uni00B2
Encoding: 178 178 350
Width: 273
VWidth: 0
Flags: W
HStem: 367 32<112 233> 631 32<100.838 152.703>
VStem: 41 71<399 445.312> 160 71<523.901 630.173>
LayerCount: 2
Fore
SplineSet
40 603 m 1
 54 632 82 663 145 663 c 0
 193 663 231 625 231 573 c 0
 231 484 115 474 112 399 c 1
 233 399 l 1
 233 367 l 1
 41 367 l 1
 41 497 160 494 160 573 c 0
 160 615 148 631 136 631 c 0
 102 631 96 611 88 588 c 1
 40 603 l 1
EndSplineSet
Validated: 1
EndChar

StartChar: uni00B3
Encoding: 179 179 351
Width: 285
VWidth: 0
Flags: W
HStem: 362 33<101.327 167.188> 505 32<116 158.963> 630 33<107.777 160.326>
VStem: 166 69<541.009 629.145> 176 69<398.494 496.875>
LayerCount: 2
Fore
SplineSet
49 603 m 1xf0
 65 636 90 663 148 663 c 0
 197 663 235 622 235 583 c 0xf0
 235 552 224 537 198 521 c 1
 234 502 245 476 245 448 c 0
 245 394 197 362 148 362 c 0
 121 362 67 368 40 423 c 1
 88 438 l 1
 95 418 104 395 140 395 c 0
 161 395 176 412 176 448 c 0xe8
 176 473 171 505 116 505 c 5
 116 537 l 1
 147 537 166 544 166 583 c 0
 166 617 155 630 140 630 c 0
 108 630 106 612 96 588 c 1
 49 603 l 1xf0
EndSplineSet
Validated: 1
EndChar

StartChar: threequarters
Encoding: 190 190 352
Width: 528
VWidth: 0
Flags: W
HStem: 0 21G<357 428> 64 32<276 357 428 458> 362 33<101.327 167.188> 505 32<116 158.898> 630 33<107.777 160.326>
VStem: 166 69<541.009 629.145> 176 69<398.494 496.875> 357 71<0 64 96 231>
LayerCount: 2
Fore
SplineSet
49 603 m 1xfd
 65 636 90 663 148 663 c 0
 197 663 235 622 235 583 c 0xfd
 235 552 224 537 198 521 c 1
 234 502 245 476 245 448 c 0
 245 394 197 362 148 362 c 0
 121 362 67 368 40 423 c 1
 88 438 l 1
 95 418 104 395 140 395 c 0
 161 395 176 412 176 448 c 0xfb
 176 473 173 505 116 505 c 1
 116 537 l 1
 147 537 166 544 166 583 c 0
 166 617 155 630 140 630 c 0
 108 630 106 612 96 588 c 1
 49 603 l 1xfd
40 129 m 1
 411 511 l 1
 488 511 l 1
 117 129 l 1
 40 129 l 1
230 85 m 1
 358 296 l 1
 428 296 l 1
 428 96 l 1
 458 96 l 1
 458 64 l 1
 428 64 l 1
 428 0 l 1
 357 0 l 1
 357 64 l 1
 230 64 l 1
 230 85 l 1
357 231 m 1
 276 96 l 1
 357 96 l 1
 357 231 l 1
EndSplineSet
Validated: 1
EndChar

StartChar: onequarter
Encoding: 188 188 353
Width: 528
VWidth: 0
Flags: W
HStem: 0 21G<357 428> 64 32<276 357 428 458> 626 32<105 133>
VStem: 133 71<368 629> 357 71<0 64 96 231>
LayerCount: 2
Fore
SplineSet
204 667 m 1
 204 368 l 1
 133 368 l 1
 133 629 l 1
 105 626 l 1
 105 658 l 1
 204 667 l 1
40 129 m 1
 411 511 l 1
 488 511 l 1
 117 129 l 1
 40 129 l 1
230 85 m 1
 358 296 l 1
 428 296 l 1
 428 96 l 1
 458 96 l 1
 458 64 l 1
 428 64 l 1
 428 0 l 1
 357 0 l 1
 357 64 l 1
 230 64 l 1
 230 85 l 1
357 231 m 1
 276 96 l 1
 357 96 l 1
 357 231 l 1
EndSplineSet
Validated: 1
EndChar

StartChar: onehalf
Encoding: 189 189 354
Width: 530
VWidth: 0
Flags: W
HStem: 0 32<369 490> 264 32<357.838 409.703> 626 32<105 133>
VStem: 133 71<368 629> 298 71<32 78.3125> 417 71<156.901 263.173>
LayerCount: 2
Fore
SplineSet
297 236 m 1
 311 265 339 296 402 296 c 0
 450 296 488 258 488 206 c 0
 488 117 372 107 369 32 c 1
 490 32 l 1
 490 0 l 1
 298 0 l 1
 298 130 417 127 417 206 c 0
 417 248 405 264 393 264 c 0
 359 264 353 244 345 221 c 1
 297 236 l 1
204 667 m 1
 204 368 l 1
 133 368 l 1
 133 629 l 1
 105 626 l 1
 105 658 l 1
 204 667 l 1
40 129 m 1
 411 511 l 1
 488 511 l 1
 117 129 l 1
 40 129 l 1
EndSplineSet
Validated: 1
EndChar

StartChar: afii00208
Encoding: 8213 8213 355
Width: 676
VWidth: 0
Flags: W
HStem: 170 50<40 636>
LayerCount: 2
Fore
SplineSet
40 220 m 1
 636 220 l 1
 636 170 l 1
 40 170 l 1
 40 220 l 1
EndSplineSet
Validated: 1
EndChar

StartChar: longs
Encoding: 383 383 360
Width: 357
VWidth: 0
Flags: W
HStem: 0 21G<68 193> 620 50<220.623 314.445>
VStem: 68 125<0 588.359>
LayerCount: 2
Fore
SplineSet
68 0 m 1
 68 422 l 18
 68 622 91 670 268 670 c 0
 323 670 355 649 401 625 c 1
 351 573 l 1
 305 605 288 620 253 620 c 0
 219 620 193 576 193 444 c 2
 193 0 l 1
 68 0 l 1
EndSplineSet
Validated: 1
EndChar

StartChar: uniFB00
Encoding: 64256 64256 362
Width: 613
VWidth: 0
Flags: W
HStem: 0 21G<74 199 399 524> 390 50<30 74 199 399 524 598> 620 50<208.695 277.654 533.695 602.654>
VStem: 74 125<0 390 440 606.968> 399 125<0 390 440 606.968>
LayerCount: 2
Fore
SplineSet
271 605 m 1
 263 615 253 620 236 620 c 0
 208 620 199 597 199 509 c 2
 199 440 l 1
 399 440 l 1
 399 535 l 2
 399 615 466 670 546 670 c 0
 575 670 598 666 617 659 c 1
 596 605 l 1
 588 615 578 620 561 620 c 0
 533 620 524 597 524 509 c 2
 524 440 l 1
 598 440 l 1
 598 390 l 1
 524 390 l 1
 524 0 l 1
 399 0 l 1
 399 390 l 1
 199 390 l 1
 199 0 l 5
 74 0 l 5
 74 390 l 1
 15 390 l 1
 30 440 l 1
 74 440 l 1
 74 535 l 2
 74 615 141 670 221 670 c 0
 250 670 273 666 292 659 c 1
 271 605 l 1
EndSplineSet
Validated: 1
LCarets2: 1 274 
Ligature2: "'liga' Standard Ligatures in Latin lookup 0-1" f f
EndChar

StartChar: fi
Encoding: 64257 64257 363
Width: 563
VWidth: 0
Flags: W
HStem: 0 21G<74 199 379 504> 390 50<30 74 199 379> 520 80<389 494> 620 50<208.695 277.654>
VStem: 74 125<0 390 440 606.968> 379 125<0 390> 389 105<520 600>
LayerCount: 2
Fore
SplineSet
271 605 m 1xfc
 263 615 253 620 236 620 c 0
 208 620 199 597 199 509 c 2
 199 440 l 1
 504 440 l 1
 504 0 l 1
 379 0 l 1
 379 390 l 1
 199 390 l 1
 199 0 l 1
 74 0 l 1
 74 390 l 1
 15 390 l 1
 30 440 l 1
 74 440 l 1
 74 535 l 2
 74 615 141 670 221 670 c 0
 250 670 273 666 292 659 c 1
 271 605 l 1xfc
389 600 m 1xfa
 494 600 l 1
 494 520 l 1
 389 520 l 1
 389 600 l 1xfa
EndSplineSet
Validated: 1
LCarets2: 1 0 
Ligature2: "'liga' Standard Ligatures in Latin lookup 0-1" f i
EndChar

StartChar: fl
Encoding: 64258 64258 364
Width: 588
VWidth: 0
Flags: W
HStem: 0 21G<74 199 380 505> 390 50<30 74 199 246> 620 50<227.496 353.98> 640 20G<380 505>
VStem: 74 125<0 390 440 589> 380 125<0 594.927 640 660>
LayerCount: 2
Fore
SplineSet
380 580 m 1xdc
 363 589 341 620 271 620 c 0
 243 620 199 602 199 488 c 2
 199 440 l 1
 246 440 l 1
 246 390 l 1
 199 390 l 1
 199 0 l 1
 74 0 l 1
 74 390 l 1
 15 390 l 1
 30 440 l 1
 74 440 l 1
 74 514 l 2
 74 634 176 670 256 670 c 0xec
 333 670 364 647 380 640 c 1
 380 660 l 1
 505 660 l 1
 505 0 l 1
 380 0 l 1
 380 580 l 1xdc
EndSplineSet
Validated: 1
LCarets2: 1 324 
Ligature2: "'liga' Standard Ligatures in Latin lookup 0-1" f l
EndChar

StartChar: uniFB03
Encoding: 64259 64259 365
Width: 888
VWidth: 0
Flags: W
HStem: 0 21G<74 199 399 524 704 829> 390 50<30 74 199 399 524 704> 520 80<714 819> 620 50<208.695 277.654 533.695 602.654>
VStem: 74 125<0 390 440 606.968> 399 125<0 390 440 606.968> 704 125<0 390> 714 105<520 600>
LayerCount: 2
Fore
SplineSet
271 605 m 1xfe
 263 615 253 620 236 620 c 0
 208 620 199 597 199 509 c 2
 199 440 l 1
 399 440 l 1
 399 535 l 2
 399 615 466 670 546 670 c 0
 575 670 598 666 617 659 c 1
 596 605 l 1
 588 615 578 620 561 620 c 0
 533 620 524 597 524 509 c 2
 524 440 l 1
 829 440 l 1
 829 0 l 1
 704 0 l 1
 704 390 l 1
 524 390 l 1
 524 0 l 1
 399 0 l 1
 399 390 l 1
 199 390 l 1
 199 0 l 1
 74 0 l 1
 74 390 l 1
 15 390 l 1
 30 440 l 1
 74 440 l 1
 74 535 l 2
 74 615 141 670 221 670 c 0
 250 670 273 666 292 659 c 1
 271 605 l 1xfe
714 600 m 1xfd
 819 600 l 1
 819 520 l 1
 714 520 l 1
 714 600 l 1xfd
EndSplineSet
Validated: 1
LCarets2: 2 0 0 
Ligature2: "'liga' Standard Ligatures in Latin lookup 0-1" f f i
EndChar

StartChar: uniFB04
Encoding: 64260 64260 366
Width: 913
VWidth: 0
Flags: W
HStem: 0 21G<74 199 399 524 705 830> 390 50<30 74 199 399 524 598> 620 50<208.695 277.654 602 678.345> 640 20G<705 830>
VStem: 74 125<0 390 440 606.968> 399 125<0 390 440 589.844> 705 125<0 595.271 640 660>
LayerCount: 2
Fore
SplineSet
271 605 m 1xee
 263 615 253 620 236 620 c 0
 208 620 199 597 199 509 c 2
 199 440 l 1
 399 440 l 1
 399 535 l 2
 399 615 466 670 546 670 c 0
 552 670 558 669 564 669 c 0
 570 669 575 670 581 670 c 0xee
 658 670 689 647 705 640 c 1
 705 660 l 1
 830 660 l 1xde
 830 0 l 1
 705 0 l 1
 705 580 l 1
 688 589 667 618 602 620 c 1
 596 605 l 1
 591 611 586 615 579 617 c 1
 553 609 524 580 524 488 c 2
 524 440 l 1
 598 440 l 1
 598 390 l 1
 524 390 l 1
 524 0 l 1
 399 0 l 1
 399 390 l 1
 199 390 l 1
 199 0 l 1
 74 0 l 1
 74 390 l 1
 15 390 l 1
 30 440 l 1
 74 440 l 1
 74 535 l 2
 74 615 141 670 221 670 c 0
 250 670 273 666 292 659 c 1
 271 605 l 1xee
EndSplineSet
Validated: 1
LCarets2: 2 312 545 
Ligature2: "'liga' Standard Ligatures in Latin lookup 0-1" f f l
EndChar

StartChar: degree
Encoding: 176 176 369
Width: 282
VWidth: 0
Flags: W
HStem: 493 47<103.55 178.45> 628 47<103.55 178.45>
VStem: 50 47<546.55 621.45> 185 47<546.55 621.45>
LayerCount: 2
Fore
SplineSet
97 584 m 0
 97 560 117 540 141 540 c 0
 165 540 185 560 185 584 c 0
 185 608 165 628 141 628 c 0
 117 628 97 608 97 584 c 0
50 584 m 0
 50 634 91 675 141 675 c 0
 191 675 232 634 232 584 c 0
 232 534 191 493 141 493 c 0
 91 493 50 534 50 584 c 0
EndSplineSet
Validated: 1
EndChar

StartChar: afii10051
Encoding: 1026 1026 382
Width: 734
VWidth: 0
Flags: W
HStem: -170 50<395.634 512.117> 0 21G<248 377> 400 50<390.238 513.406> 650 50<20 248 377 605>
VStem: 248 129<0 382.703 435 650> 541 125<-62.6567 351.628>
AnchorPoint: "top" 314 700 basechar 0
LayerCount: 2
Fore
SplineSet
377 0 m 1
 248 0 l 1
 248 650 l 1
 20 650 l 1
 20 700 l 1
 607 700 l 1
 605 650 l 1
 377 650 l 1
 377 435 l 5
 402 445 429 450 457 450 c 4
 597 450 666 382 666 240 c 6
 666 78 l 6
 666 -122 586 -170 461 -170 c 4
 406 -170 349 -149 303 -125 c 5
 353 -73 l 5
 399 -105 441 -120 476 -120 c 4
 514 -120 541 -76 541 56 c 6
 541 228 l 6
 541 368 514 400 472 400 c 4
 437 400 405 389 377 370 c 5
 377 0 l 1
EndSplineSet
Validated: 1
EndChar

StartChar: afii10053
Encoding: 1028 1028 384
Width: 650
VWidth: 0
Flags: W
HStem: -10 50<306.376 453.58> 348 50<182 458> 660 50<290.93 431.165>
VStem: 50 130<214.911 348 398 494.279>
AnchorPoint: "top" 350 700 basechar 0
LayerCount: 2
Fore
SplineSet
610 102 m 1
 560 38 471 -10 362 -10 c 0
 232 -10 50 100 50 350 c 0
 50 600 212 710 343 710 c 0
 479 710 561 665 607 608 c 1
 510 565 l 1
 477 612 420 660 358 660 c 0
 273 660 194 575 182 398 c 1
 458 398 l 1
 458 348 l 1
 180 348 l 1
 181 129 296 40 377 40 c 0
 442 40 492 82 529 139 c 1
 610 102 l 1
EndSplineSet
Validated: 1
EndChar

StartChar: afii10058
Encoding: 1033 1033 389
Width: 875
VWidth: 0
Flags: W
HStem: -10 50<63.8648 176.58> 0 50<568 656.531> 390 50<568 657.176> 650 50<317 438>
VStem: 187 130<52.6379 650> 438 130<50 390 440 650> 720 130<126.983 311.333>
AnchorPoint: "top" 375 700 basechar 0
LayerCount: 2
Fore
SplineSet
850 223 m 0xbe
 850 123 786 0 628 0 c 2
 438 0 l 1x7e
 438 650 l 1
 317 650 l 1
 317 127 l 2
 317 17 224 -10 128 -10 c 0
 90 -10 43 4 17 35 c 1
 80 65 l 1
 94 45 124 40 143 40 c 0
 182 40 187 78 187 160 c 2
 187 700 l 1
 568 700 l 1
 568 440 l 1
 626 440 l 2
 763 440 850 325 850 223 c 0xbe
568 390 m 1
 568 50 l 1
 598 50 l 2
 683 50 720 153 720 223 c 0
 720 293 683 390 598 390 c 2
 568 390 l 1
EndSplineSet
Validated: 1
EndChar

StartChar: afii10059
Encoding: 1034 1034 390
Width: 889
VWidth: 0
Flags: W
HStem: 0 50<582 670.531> 390 50<215 452 582 671.176> 680 20G<85 215 452 582>
VStem: 85 130<0 390 440 700> 452 130<50 390 440 700> 734 130<126.983 311.333>
AnchorPoint: "top" 337 700 basechar 0
LayerCount: 2
Fore
SplineSet
215 700 m 1
 215 440 l 1
 452 440 l 1
 452 700 l 1
 582 700 l 1
 582 440 l 1
 640 440 l 2
 777 440 864 325 864 223 c 0
 864 123 800 0 642 0 c 2
 452 0 l 1
 452 390 l 1
 215 390 l 1
 215 0 l 1
 85 0 l 1
 85 700 l 1
 215 700 l 1
582 50 m 1
 612 50 l 2
 697 50 734 153 734 223 c 0
 734 293 697 390 612 390 c 2
 582 390 l 1
 582 50 l 1
EndSplineSet
Validated: 1
EndChar

StartChar: afii10060
Encoding: 1035 1035 391
Width: 734
VWidth: 0
Flags: W
HStem: 0 21G<248 377 541 666> 400 50<390.238 513.406> 650 50<20 248 377 605>
VStem: 248 129<0 382.703 435 650> 541 125<0 351.628>
AnchorPoint: "top" 314 700 basechar 0
LayerCount: 2
Fore
SplineSet
541 0 m 9
 541 228 l 2
 541 368 514 400 472 400 c 0
 437 400 405 389 377 370 c 1
 377 0 l 1
 248 0 l 1
 248 650 l 1
 20 650 l 1
 20 700 l 1
 607 700 l 1
 605 650 l 1
 377 650 l 1
 377 435 l 1
 402 445 429 450 457 450 c 0
 597 450 666 382 666 240 c 2
 666 0 l 17
 541 0 l 9
EndSplineSet
Validated: 1
EndChar

StartChar: afii10145
Encoding: 1039 1039 395
Width: 573
VWidth: 0
Flags: W
HStem: 0 50<175 237.834 328.166 391> 680 20G<45 175 391 521>
VStem: 45 130<50 700> 259 48<-154 -18.668> 391 130<50 700>
CounterMasks: 1 38
AnchorPoint: "top" 276 700 basechar 0
LayerCount: 2
Fore
SplineSet
45 0 m 1
 45 700 l 1
 175 700 l 1
 175 50 l 1
 391 50 l 1
 391 700 l 1
 521 700 l 1
 521 0 l 1
 339 0 l 1
 339 0 307 -40 307 -154 c 1
 259 -154 l 1
 259 -40 227 0 227 0 c 1
 45 0 l 1
EndSplineSet
Validated: 1048577
EndChar

StartChar: afii10018
Encoding: 1041 1041 397
Width: 545
VWidth: 0
Flags: W
HStem: 0 50<215 313.531> 390 50<215 314.176> 650 50<215 419>
VStem: 85 130<50 390 440 650> 377 130<126.983 311.333>
AnchorPoint: "top" 295 700 basechar 0
LayerCount: 2
Fore
SplineSet
507 223 m 0
 507 123 443 0 285 0 c 2
 85 0 l 1
 85 700 l 1
 419 700 l 1
 419 650 l 1
 215 650 l 1
 215 440 l 1
 283 440 l 2
 420 440 507 325 507 223 c 0
215 390 m 1
 215 50 l 1
 255 50 l 2
 340 50 377 153 377 223 c 0
 377 293 340 390 255 390 c 2
 215 390 l 1
EndSplineSet
Validated: 1
EndChar

StartChar: afii10020
Encoding: 1043 1043 399
Width: 507
VWidth: 0
Flags: W
HStem: 0 21G<85 215> 650 50<215 489>
VStem: 85 130<0 650>
AnchorPoint: "top" 295 700 basechar 0
LayerCount: 2
Fore
SplineSet
215 0 m 5
 85 0 l 1
 85 700 l 1
 489 700 l 17
 489 650 l 9
 215 650 l 5
 215 0 l 5
EndSplineSet
Validated: 1
EndChar

StartChar: afii10021
Encoding: 1044 1044 400
Width: 640
VWidth: 0
Flags: W
HStem: -69 119<32 98.7484 500 575> 0 50<191 370> 650 50<215 234 328.652 370 500 521>
VStem: 32 105<-69 0> 234 96<495.967 650> 370 130<50 650> 470 105<-69 0>
AnchorPoint: "top" 365 700 basechar 0
LayerCount: 2
Fore
SplineSet
215 700 m 1xba
 521 700 l 1
 521 650 l 1
 500 650 l 1
 500 50 l 1xbc
 575 50 l 1
 575 -69 l 1
 470 -69 l 1xba
 470 0 l 1
 137 0 l 1x7a
 137 -69 l 1
 32 -69 l 1
 32 50 l 1
 90 50 l 1
 124 124 203 332 234 650 c 1
 215 650 l 1
 215 700 l 1xba
370 650 m 1
 330 650 l 1
 302 364 225 138 191 50 c 1
 370 50 l 1x7c
 370 650 l 1
EndSplineSet
Validated: 1
EndChar

StartChar: afii10024
Encoding: 1046 1046 402
Width: 762
VWidth: 0
Flags: W
HStem: 0 21G<42 172 330 459 617 747> 650 50<52 86.7957 702.204 737>
VStem: 330 129<0 310 403 700>
AnchorPoint: "top" 396 700 basechar 0
LayerCount: 2
Fore
SplineSet
459 403 m 1
 516 483 541 700 737 700 c 1
 737 650 l 1
 655 650 624 428 503 350 c 1
 628 268 747 33 747 0 c 1
 617 0 l 1
 617 17 533 244 459 310 c 1
 459 0 l 1
 330 0 l 1
 330 310 l 1
 256 244 172 17 172 0 c 1
 42 0 l 1
 42 33 161 268 286 350 c 1
 165 428 134 650 52 650 c 1
 52 700 l 1
 248 700 273 483 330 403 c 1
 330 700 l 1
 459 700 l 1
 459 403 l 1
EndSplineSet
Validated: 1
EndChar

StartChar: afii10025
Encoding: 1047 1047 403
Width: 526
VWidth: 0
Flags: W
HStem: -10 50<173.937 290.048> 390 50<182 268.194> 660 50<175.082 291.985>
VStem: 322 130<488.98 626.398> 352 130<130.851 303.601>
AnchorPoint: "top" 252 700 basechar 0
LayerCount: 2
Fore
SplineSet
132 144 m 1xe8
 147 74 177 40 244 40 c 0
 312 40 352 155 352 215 c 0xe8
 352 275 312 390 202 390 c 2
 182 390 l 1
 182 440 l 1
 294 440 322 510 322 555 c 0
 322 615 288 660 252 660 c 0
 178 660 157 629 143 583 c 1
 63 605 l 1
 101 676 174 710 243 710 c 0
 375 710 452 635 452 555 c 0xf0
 452 502 427 446 354 415 c 1
 451 370 482 275 482 215 c 0
 482 135 410 -10 234 -10 c 0
 126 -10 68 46 40 119 c 1
 132 144 l 1xe8
EndSplineSet
Validated: 1
EndChar

StartChar: afii10026
Encoding: 1048 1048 404
Width: 737
VWidth: 0
Flags: W
HStem: 0 21G<85 215 524 654> 680 20G<85 215 524 654>
VStem: 85 130<0 45 196 700> 524 130<0 503 655 700>
AnchorPoint: "top" 364 700 basechar 0
LayerCount: 2
Fore
SplineSet
215 0 m 1
 85 0 l 1
 85 700 l 1
 215 700 l 1
 215 196 l 1
 524 655 l 1
 524 700 l 1
 654 700 l 1
 654 0 l 1
 524 0 l 1
 524 503 l 1
 215 45 l 1
 215 0 l 1
EndSplineSet
Validated: 1
EndChar

StartChar: afii10028
Encoding: 1050 1050 406
Width: 605
VWidth: 0
Flags: W
HStem: 0 58<538.726 582> 680 20G<85 215 439.206 590>
VStem: 85 130<0 279 428 700>
AnchorPoint: "top" 296 700 basechar 0
LayerCount: 2
Fore
SplineSet
215 0 m 5
 85 0 l 5
 85 700 l 5
 215 700 l 5
 215 428 l 5
 457 700 l 5
 590 700 l 5
 319 397 l 5
 511 347 463 58 582 58 c 5
 582 0 l 5
 335 0 355 312 272 343 c 5
 215 279 l 5
 215 0 l 5
EndSplineSet
Validated: 1
EndChar

StartChar: afii10029
Encoding: 1051 1051 407
Width: 690
VWidth: 0
Flags: W
HStem: -10 50<62.7483 169.456> 0 21G<478 608> 650 50<317 478>
VStem: 187 130<54.5735 650> 478 130<0 650>
AnchorPoint: "top" 398 700 basechar 0
LayerCount: 2
Fore
SplineSet
478 0 m 1x78
 478 650 l 1
 317 650 l 1
 317 127 l 2
 317 14 216 -10 118 -10 c 0
 80 -10 43 4 17 35 c 1
 80 65 l 1
 94 45 114 40 133 40 c 0xb8
 173 40 187 78 187 160 c 2
 187 700 l 1
 608 700 l 1
 608 0 l 1
 478 0 l 1x78
EndSplineSet
Validated: 1
EndChar

StartChar: afii10033
Encoding: 1055 1055 411
Width: 644
VWidth: 0
Flags: W
HStem: 0 21G<85 215 431 561> 650 50<215 431>
VStem: 85 130<0 650> 431 130<0 650>
AnchorPoint: "top" 321 700 basechar 0
LayerCount: 2
Fore
SplineSet
85 0 m 9
 85 700 l 1
 561 700 l 1
 561 0 l 1
 431 0 l 1
 431 650 l 1
 215 650 l 1
 215 0 l 17
 85 0 l 9
EndSplineSet
Validated: 1
EndChar

StartChar: afii10037
Encoding: 1059 1059 415
Width: 598
VWidth: 0
Flags: W
HStem: -10 50<153.544 225.658> 680 20G<40 155.256 461.698 589>
AnchorPoint: "top" 314 700 basechar 0
LayerCount: 2
Fore
SplineSet
469 700 m 1
 589 700 l 1
 383 136 l 2
 339 16 273 -10 179 -10 c 0
 139 -10 93 18 58 56 c 1
 132 88 l 1
 165 42 176 40 193 40 c 0
 217 40 235 68 254 113 c 1
 40 700 l 1
 148 700 l 1
 308 259 l 1
 469 700 l 1
EndSplineSet
Validated: 1
EndChar

StartChar: afii10038
Encoding: 1060 1060 416
Width: 701
VWidth: 0
Flags: W
HStem: 0 21G<287 416> 553 53<247.882 287> 680 20G<287 416>
VStem: 50 130<255.491 447.156> 287 129<0 99.6932 151 548 602.696 700> 523 130<250.438 446.368>
CounterMasks: 1 1c
AnchorPoint: "top" 353 700 basechar 0
LayerCount: 2
Fore
SplineSet
287 150 m 1
 287 553 l 1
 213 530 180 457 180 350 c 0
 180 247 217 176 287 150 c 1
287 606 m 1
 287 700 l 1
 416 700 l 1
 416 602 l 1
 546 575 653 483 653 350 c 0
 653 214 548 122 416 97 c 1
 416 0 l 1
 287 0 l 1
 287 96 l 1
 169 119 50 212 50 350 c 0
 50 491 167 586 287 606 c 1
416 548 m 1
 416 151 l 1
 485 177 523 249 523 350 c 0
 523 450 488 521 416 548 c 1
EndSplineSet
Validated: 1
EndChar

StartChar: afii10040
Encoding: 1062 1062 418
Width: 690
VWidth: 0
Flags: W
HStem: 0 50<215 431> 680 20G<85 215 431 561>
VStem: 85 130<50 700> 431 130<50 700> 577 48<-154 -18.668>
AnchorPoint: "top" 316 700 basechar 0
LayerCount: 2
Fore
SplineSet
85 0 m 1
 85 700 l 1
 215 700 l 1
 215 50 l 1
 431 50 l 1
 431 700 l 1
 561 700 l 1
 561 50 l 1
 625 50 l 1
 625 -154 l 1
 577 -154 l 1
 577 -40 545 0 545 0 c 1
 85 0 l 1
EndSplineSet
Validated: 1048577
EndChar

StartChar: afii10041
Encoding: 1063 1063 419
Width: 589
VWidth: 0
Flags: W
HStem: 0 21G<376 506> 255 50<234.848 353.996> 680 20G<60 190 376 506>
VStem: 60 130<386.259 700> 376 130<0 280 327.253 700>
AnchorPoint: "top" 276 700 basechar 0
LayerCount: 2
Fore
SplineSet
376 352 m 1
 376 700 l 1
 506 700 l 1
 506 0 l 1
 376 0 l 1
 376 280 l 1
 354 264 316 255 279 255 c 0
 139 255 60 336 60 530 c 2
 60 700 l 1
 190 700 l 1
 190 542 l 2
 190 328 238 305 294 305 c 0
 330 305 358 323 376 352 c 1
EndSplineSet
Validated: 1
EndChar

StartChar: afii10042
Encoding: 1064 1064 420
Width: 874
VWidth: 0
Flags: W
HStem: 0 50<215 373 503 661> 680 20G<85 215 373 503 661 791>
VStem: 85 130<50 700> 373 130<50 700> 661 130<50 700>
CounterMasks: 1 38
AnchorPoint: "top" 442 700 basechar 0
LayerCount: 2
Fore
SplineSet
791 700 m 1
 791 0 l 1
 85 0 l 1
 85 700 l 1
 215 700 l 1
 215 50 l 1
 373 50 l 1
 373 700 l 1
 503 700 l 1
 503 50 l 1
 661 50 l 1
 661 700 l 1
 791 700 l 1
EndSplineSet
Validated: 1
EndChar

StartChar: afii10043
Encoding: 1065 1065 421
Width: 920
VWidth: 0
Flags: W
HStem: 0 50<215 373 503 661> 680 20G<85 215 373 503 661 791>
VStem: 85 130<50 700> 373 130<50 700> 661 130<50 700> 807 48<-154 -18.668>
AnchorPoint: "top" 442 700 basechar 0
LayerCount: 2
Fore
SplineSet
775 0 m 1
 85 0 l 1
 85 700 l 1
 215 700 l 1
 215 50 l 1
 373 50 l 1
 373 700 l 1
 503 700 l 1
 503 50 l 1
 661 50 l 1
 661 700 l 1
 791 700 l 1
 791 50 l 1
 855 50 l 1
 855 -154 l 1
 807 -154 l 1
 807 -40 775 0 775 0 c 1
EndSplineSet
Validated: 1048577
EndChar

StartChar: afii10044
Encoding: 1066 1066 422
Width: 621
VWidth: 0
Flags: W
HStem: 0 50<304 402.531> 390 50<304 403.176> 650 50<20 174>
VStem: 174 130<50 390 440 650> 466 130<126.983 311.333>
AnchorPoint: "top" 239 700 basechar 0
LayerCount: 2
Fore
SplineSet
596 223 m 0
 596 123 532 0 374 0 c 2
 174 0 l 1
 174 650 l 1
 20 650 l 1
 20 700 l 1
 304 700 l 1
 304 440 l 1
 372 440 l 2
 509 440 596 325 596 223 c 0
304 390 m 1
 304 50 l 1
 344 50 l 2
 429 50 466 153 466 223 c 0
 466 293 429 390 344 390 c 2
 304 390 l 1
EndSplineSet
Validated: 1
EndChar

StartChar: afii10046
Encoding: 1068 1068 424
Width: 532
VWidth: 0
Flags: W
HStem: 0 50<215 313.531> 390 50<215 314.176> 680 20G<85 215>
VStem: 85 130<50 390 440 700> 377 130<126.983 311.333>
AnchorPoint: "top" 247 700 basechar 0
LayerCount: 2
Fore
SplineSet
215 390 m 1
 215 50 l 1
 255 50 l 2
 340 50 377 153 377 223 c 0
 377 293 340 390 255 390 c 2
 215 390 l 1
507 223 m 0
 507 123 443 0 285 0 c 2
 85 0 l 1
 85 700 l 1
 215 700 l 1
 215 440 l 1
 283 440 l 2
 420 440 507 325 507 223 c 0
EndSplineSet
Validated: 1
EndChar

StartChar: afii10047
Encoding: 1069 1069 425
Width: 658
VWidth: 0
Flags: W
HStem: -10 50<206.145 360.241> 348 50<278 479> 660 50<225.088 384.442>
VStem: 480 130<207.484 348 398 501.022>
AnchorPoint: "top" 310 700 basechar 0
LayerCount: 2
Fore
SplineSet
50 102 m 1
 131 139 l 1
 168 82 208 40 298 40 c 0
 368 40 479 129 480 348 c 1
 278 348 l 1
 278 398 l 1
 479 398 l 1
 469 575 403 660 317 660 c 0
 222 660 183 612 150 565 c 1
 53 608 l 1
 99 665 166 710 302 710 c 0
 468 710 610 600 610 350 c 0
 610 100 452 -10 283 -10 c 0
 174 -10 100 38 50 102 c 1
EndSplineSet
Validated: 1
EndChar

StartChar: afii10048
Encoding: 1070 1070 426
Width: 886
VWidth: 0
Flags: W
HStem: -10 50<493.686 623.229> 0 21G<85 215> 348 50<215 275> 660 50<482.39 620.183> 680 20G<85 215>
VStem: 85 130<0 348 398 700> 275 130<201.455 348 398 507.002> 708 130<194.348 504.381>
AnchorPoint: "top" 324 700 basechar 0
LayerCount: 2
Fore
SplineSet
546 660 m 0xb7
 456 660 405 560 405 350 c 0
 405 130 475 40 555 40 c 0
 653 40 708 140 708 350 c 0
 708 570 651 660 546 660 c 0xb7
277 398 m 1
 293 614 415 710 540 710 c 0
 703 710 838 600 838 350 c 0
 838 100 713 -10 549 -10 c 0xb7
 416 -10 276 99 275 348 c 1
 215 348 l 1
 215 0 l 1
 85 0 l 1
 85 700 l 1
 215 700 l 1x6f
 215 398 l 1
 277 398 l 1
EndSplineSet
Validated: 1
EndChar

StartChar: afii10049
Encoding: 1071 1071 427
Width: 600
VWidth: 0
Flags: W
HStem: 0 58<42 87.5895> 320 50<320.24 387> 650 50<277.199 387>
VStem: 95 130<426.387 594.036> 387 130<0 320 370 650>
AnchorPoint: "top" 328 700 basechar 0
LayerCount: 2
Fore
SplineSet
387 650 m 1
 342 650 l 2
 257 650 225 570 225 510 c 0
 225 450 257 370 342 370 c 2
 387 370 l 1
 387 650 l 1
229 332 m 1
 133 363 95 446 95 510 c 0
 95 590 152 700 312 700 c 2
 517 700 l 1
 517 0 l 1
 387 0 l 1
 387 320 l 1
 332 320 l 1
 266 236 258 0 42 0 c 1
 42 58 l 1
 129 58 147 230 229 332 c 1
EndSplineSet
Validated: 1
EndChar

StartChar: afii10066
Encoding: 1073 1073 429
Width: 503
VWidth: 0
Flags: W
HStem: -10 50<211.153 291.619> 400 50<195.522 292.902> 587 50<209.534 316.61>
VStem: 44 125<127.363 367.63> 336 125<117.34 334.446> 370 33<663.946 672.006>
AnchorPoint: "top" 263 700 basechar 0
LayerCount: 2
Fore
SplineSet
403 669 m 1xf4
 403 669 394 575 318 575 c 0
 288 575 281 587 247 587 c 0
 205 587 184 546 175 439 c 1
 198 446 221 450 244 450 c 0
 402 450 461 345 461 220 c 0xf8
 461 95 374 -10 244 -10 c 0
 174 -10 44 27 44 278 c 0
 44 476 129 637 247 637 c 2
 272 637 l 2
 310 637 358 656 370 682 c 1
 385 677 403 669 403 669 c 1xf4
169 246 m 2
 169 96 206 40 259 40 c 0
 302 40 336 135 336 220 c 0
 336 305 304 400 259 400 c 0
 214 400 169 377 169 307 c 2
 169 246 l 2
EndSplineSet
Validated: 1
EndChar

StartChar: afii10067
Encoding: 1074 1074 430
Width: 460
VWidth: 0
Flags: W
HStem: 0 50<185 274.545> 215 50<185 235.103> 390 50<185 236.673>
VStem: 60 125<50 215 265 390> 253 125<281.998 373.641> 295 125<69.722 192.766>
AnchorPoint: "top" 214 490 basechar 0
LayerCount: 2
Fore
SplineSet
185 215 m 1xf4
 185 50 l 1
 202 50 l 2
 267 50 295 74 295 129 c 0
 295 204 257 215 185 215 c 1xf4
308 248 m 1
 386 235 420 172 420 129 c 0xf4
 420 68 385 0 227 0 c 2
 60 0 l 1
 60 440 l 1
 183 440 l 2
 343 440 378 380 378 325 c 0xf8
 378 292 373 266 308 248 c 1
185 390 m 1
 185 265 l 1
 205 265 253 280 253 325 c 0xf8
 253 376 209 390 185 390 c 1
EndSplineSet
Validated: 1
EndChar

StartChar: afii10068
Encoding: 1075 1075 431
Width: 375
VWidth: 0
Flags: W
HStem: 0 21G<60 185> 390 50<185 349>
VStem: 60 125<0 390>
AnchorPoint: "top" 206 490 basechar 0
LayerCount: 2
Fore
SplineSet
185 0 m 1
 60 0 l 1
 60 440 l 1
 349 440 l 17
 349 390 l 9
 185 390 l 1
 185 0 l 1
EndSplineSet
Validated: 1
EndChar

StartChar: afii10069
Encoding: 1076 1076 432
Width: 581
VWidth: 0
Flags: W
HStem: -69 119<40 106.329 466 541> 0 50<184 341> 390 50<162 203 279.79 341 466 484>
VStem: 40 105<-69 0> 203 80<299.123 390> 341 125<50 390> 436 105<-69 0>
AnchorPoint: "top" 302 490 basechar 0
LayerCount: 2
Fore
SplineSet
162 440 m 1xba
 484 440 l 1
 484 390 l 1
 466 390 l 1
 466 50 l 1xbc
 541 50 l 1
 541 -69 l 1
 436 -69 l 1xba
 436 0 l 1
 145 0 l 1x7a
 145 -69 l 1
 40 -69 l 1
 40 50 l 1
 98 50 l 1
 121 101 167 218 203 390 c 1
 162 390 l 1
 162 440 l 1xba
341 390 m 1
 283 390 l 1
 249 230 207 109 184 50 c 1
 341 50 l 1x7c
 341 390 l 1
EndSplineSet
Validated: 1
EndChar

StartChar: afii10072
Encoding: 1078 1078 434
Width: 629
VWidth: 0
Flags: W
HStem: 0 21G<34 144 252 377 485 595> 390 50<34 75.4069 553.593 595>
VStem: 34 110<0 54.9117> 252 125<0 181 255 440> 485 110<0 54.9117>
CounterMasks: 1 38
AnchorPoint: "top" 315 490 basechar 0
LayerCount: 2
Fore
SplineSet
377 255 m 1
 426 307 434 440 595 440 c 1
 595 390 l 1
 522 390 521 281 449 221 c 1
 530 144 595 28 595 0 c 1
 485 0 l 1
 485 36 429 130 377 181 c 1
 377 0 l 1
 252 0 l 1
 252 181 l 1
 200 130 144 36 144 0 c 1
 34 0 l 1
 34 28 99 144 180 221 c 1
 108 281 107 390 34 390 c 1
 34 440 l 1
 195 440 203 307 252 255 c 1
 252 440 l 1
 377 440 l 1
 377 255 l 1
EndSplineSet
Validated: 1
EndChar

StartChar: afii10073
Encoding: 1079 1079 435
Width: 438
VWidth: 0
Flags: W
HStem: -10 50<145.705 254.922> 220 50<144 230.21> 400 50<146.367 238.99>
VStem: 247 125<286.262 396.338> 271 125<52.8169 195.112>
AnchorPoint: "top" 210 490 basechar 0
LayerCount: 2
Fore
SplineSet
106 108 m 1xe8
 122 73 159 40 211 40 c 0
 244 40 271 57 271 125 c 0xe8
 271 190 242 220 179 220 c 2
 144 220 l 1
 144 270 l 1
 172 270 l 2
 228 270 247 303 247 339 c 0
 247 377 237 400 211 400 c 0
 152 400 136 374 130 340 c 1
 49 359 l 1
 65 404 109 450 199 450 c 0
 322 450 372 404 372 339 c 0xf0
 372 311 353 275 305 250 c 1
 370 224 396 176 396 125 c 0
 396 46 340 -10 199 -10 c 0
 113 -10 53 44 30 87 c 1
 106 108 l 1xe8
EndSplineSet
Validated: 1
EndChar

StartChar: afii10074
Encoding: 1080 1080 436
Width: 560
VWidth: 0
Flags: W
HStem: 0 21G<60 185 376 501> 420 20G<60 185 376 501>
VStem: 60 125<0 30 142 440> 376 125<0 295 408 440>
AnchorPoint: "top" 261 490 basechar 0
LayerCount: 2
Fore
SplineSet
60 440 m 1
 185 440 l 1
 185 142 l 1
 376 408 l 1
 376 440 l 1
 501 440 l 1
 501 0 l 1
 376 0 l 1
 376 295 l 1
 185 30 l 1
 185 0 l 1
 60 0 l 1
 60 440 l 1
EndSplineSet
Validated: 1
EndChar

StartChar: afii10077
Encoding: 1083 1083 439
Width: 578
VWidth: 0
Flags: W
HStem: -10 50<75.7483 182.967> 0 21G<394 519> 390 50<325 394>
VStem: 200 125<53.7144 390> 394 125<0 390>
AnchorPoint: "top" 336 490 basechar 0
LayerCount: 2
Fore
SplineSet
394 0 m 1x78
 394 390 l 1
 325 390 l 1
 325 127 l 2
 325 11 233 -10 131 -10 c 0
 93 -10 56 4 30 35 c 1
 93 65 l 1
 107 45 127 40 146 40 c 0xb8
 186 40 200 78 200 160 c 2
 200 440 l 1
 519 440 l 1
 519 0 l 1
 394 0 l 1x78
EndSplineSet
Validated: 1
EndChar

StartChar: afii10078
Encoding: 1084 1084 440
Width: 665
VWidth: 0
Flags: W
HStem: 0 21G<60 185 310.736 355.264 481 606> 420 20G<60 195.278 470.722 606>
VStem: 60 125<0 265> 481 125<0 265>
AnchorPoint: "top" 336 490 basechar 0
LayerCount: 2
Fore
SplineSet
321 0 m 1
 185 265 l 1
 185 0 l 1
 60 0 l 1
 60 440 l 1
 185 440 l 1
 333 152 l 1
 481 440 l 1
 606 440 l 1
 606 0 l 1
 481 0 l 1
 481 265 l 1
 345 0 l 1
 321 0 l 1
EndSplineSet
Validated: 1
EndChar

StartChar: afii10079
Encoding: 1085 1085 441
Width: 515
VWidth: 0
Flags: W
HStem: 0 21G<60 185 331 456> 215 50<185 331> 420 20G<60 185 331 456>
VStem: 60 125<0 215 265 440> 331 125<0 215 265 440>
AnchorPoint: "top" 261 490 basechar 0
LayerCount: 2
Fore
SplineSet
60 440 m 1
 185 440 l 1
 185 265 l 1
 331 265 l 1
 331 440 l 1
 456 440 l 1
 456 0 l 1
 331 0 l 1
 331 215 l 1
 185 215 l 1
 185 0 l 1
 60 0 l 1
 60 440 l 1
EndSplineSet
Validated: 1
EndChar

StartChar: afii10081
Encoding: 1087 1087 443
Width: 515
VWidth: 0
Flags: W
HStem: 0 21G<60 185 331 456> 390 50<185 331>
VStem: 60 125<0 390> 331 125<0 390>
AnchorPoint: "top" 261 490 basechar 0
LayerCount: 2
Fore
SplineSet
456 440 m 1
 456 0 l 1
 331 0 l 1
 331 390 l 1
 185 390 l 1
 185 0 l 1
 60 0 l 1
 60 440 l 1
 456 440 l 1
EndSplineSet
Validated: 1
EndChar

StartChar: afii10084
Encoding: 1090 1090 446
Width: 459
VWidth: 0
Flags: W
HStem: 0 21G<169 294> 390 50<26 169 294 437>
VStem: 169 125<0 390>
AnchorPoint: "top" 233 490 basechar 0
LayerCount: 2
Fore
SplineSet
294 390 m 1
 294 0 l 1
 169 0 l 1
 169 390 l 1
 26 390 l 1
 26 440 l 1
 437 440 l 1
 437 390 l 1
 294 390 l 1
EndSplineSet
Validated: 1
EndChar

StartChar: afii10086
Encoding: 1092 1092 448
Width: 776
VWidth: 0
Flags: W
HStem: -8 50<203.921 298.126 485.835 576.324> 402 50<200.613 294.561 484.442 584.774> 640 20G<327 451>
VStem: 44 125<111.664 340.493> 327 124<-200 20 83.5486 364.232 423 660> 609 125<117.575 343.73>
CounterMasks: 1 1c
AnchorPoint: "top" 388 700 basechar 0
LayerCount: 2
Fore
SplineSet
327 232 m 0
 327 321 315 402 244 402 c 0
 177 402 169 307 169 222 c 0
 169 137 173 42 254 42 c 0
 323 42 327 140 327 232 c 0
327 -200 m 1
 327 20 l 1
 297 -2 285 -8 239 -8 c 0
 115 -8 44 97 44 222 c 0
 44 347 104 452 229 452 c 0
 278 452 294 444 327 423 c 1
 327 660 l 1
 451 660 l 1
 451 423 l 1
 484 444 497 452 534 452 c 0
 659 452 734 376 734 222 c 0
 734 97 649 -8 525 -8 c 0
 494 -8 472 -2 451 20 c 1
 451 -200 l 1
 327 -200 l 1
451 232 m 0
 451 140 457 42 539 42 c 0
 597 42 609 137 609 222 c 0
 609 307 607 402 549 402 c 0
 455 402 451 321 451 232 c 0
EndSplineSet
Validated: 1
EndChar

StartChar: afii10088
Encoding: 1094 1094 450
Width: 544
VWidth: 0
Flags: W
HStem: 0 50<185 311> 420 20G<60 185 311 436>
VStem: 60 125<50 440> 311 125<50 440> 452 48<-154 -18.668>
AnchorPoint: "top" 252 490 basechar 0
LayerCount: 2
Fore
SplineSet
60 0 m 1
 60 440 l 1
 185 440 l 1
 185 50 l 1
 311 50 l 1
 311 440 l 1
 436 440 l 1
 436 50 l 1
 500 50 l 1
 500 -154 l 1
 452 -154 l 1
 452 -40 420 0 420 0 c 1
 60 0 l 1
EndSplineSet
Validated: 1048577
EndChar

StartChar: afii10089
Encoding: 1095 1095 451
Width: 460
VWidth: 0
Flags: W
HStem: 0 21G<276 401> 153 50<180.205 270.811> 420 20G<40 165 276 401>
VStem: 40 125<238.133 440> 276 125<0 170 207.895 440>
AnchorPoint: "top" 223 490 basechar 0
LayerCount: 2
Fore
SplineSet
276 250 m 2
 276 440 l 1
 401 440 l 1
 401 0 l 1
 276 0 l 1
 276 170 l 1
 267 161 251 153 214 153 c 0
 61 153 40 235 40 440 c 1
 165 440 l 1
 165 214 171 203 229 203 c 0
 274 203 276 237 276 250 c 2
EndSplineSet
Validated: 1
EndChar

StartChar: afii10090
Encoding: 1096 1096 452
Width: 710
VWidth: 0
Flags: W
HStem: 0 50<185 293 418 526> 420 20G<60 185 293 418 526 651>
VStem: 60 125<50 440> 293 125<50 440> 526 125<50 440>
CounterMasks: 1 38
AnchorPoint: "top" 334 490 basechar 0
LayerCount: 2
Fore
SplineSet
651 440 m 1
 651 0 l 1
 60 0 l 1
 60 440 l 1
 185 440 l 1
 185 50 l 1
 293 50 l 1
 293 440 l 1
 418 440 l 1
 418 50 l 1
 526 50 l 1
 526 440 l 1
 651 440 l 1
EndSplineSet
Validated: 1
EndChar

StartChar: afii10091
Encoding: 1097 1097 453
Width: 759
VWidth: 0
Flags: W
HStem: 0 50<185 293 418 526> 420 20G<60 185 293 418 526 651>
VStem: 60 125<50 440> 293 125<50 440> 526 125<50 440> 667 48<-154 -18.668>
AnchorPoint: "top" 334 490 basechar 0
LayerCount: 2
Fore
SplineSet
635 0 m 1
 60 0 l 1
 60 440 l 1
 185 440 l 1
 185 50 l 1
 293 50 l 1
 293 440 l 1
 418 440 l 1
 418 50 l 1
 526 50 l 1
 526 440 l 1
 651 440 l 1
 651 50 l 1
 715 50 l 1
 715 -154 l 1
 667 -154 l 1
 667 -40 635 0 635 0 c 1
EndSplineSet
Validated: 1048577
EndChar

StartChar: afii10092
Encoding: 1098 1098 454
Width: 551
VWidth: 0
Flags: W
HStem: 0 50<284 367.267> 215 50<284 366.406> 390 50<26 159>
VStem: 159 125<50 215 265 390> 394 125<73.795 188.21>
AnchorPoint: "top" 202 490 basechar 0
LayerCount: 2
Fore
SplineSet
519 129 m 0
 519 68 484 0 326 0 c 2
 159 0 l 1
 159 390 l 1
 26 390 l 1
 26 440 l 1
 284 440 l 1
 284 265 l 1
 324 265 l 2
 462 265 519 226 519 129 c 0
284 215 m 1
 284 50 l 1
 301 50 l 2
 364 50 394 81 394 129 c 0
 394 177 368 215 291 215 c 2
 284 215 l 1
EndSplineSet
Validated: 1
EndChar

StartChar: afii10094
Encoding: 1100 1100 456
Width: 452
VWidth: 0
Flags: W
HStem: 0 50<185 268.267> 215 50<185 267.406> 420 20G<60 185>
VStem: 60 125<50 215 265 440> 295 125<73.795 188.21>
AnchorPoint: "top" 214 490 basechar 0
LayerCount: 2
Fore
SplineSet
185 215 m 1
 185 50 l 1
 202 50 l 2
 265 50 295 81 295 129 c 0
 295 177 269 215 192 215 c 2
 185 215 l 1
420 129 m 0
 420 68 385 0 227 0 c 2
 60 0 l 1
 60 440 l 1
 185 440 l 1
 185 265 l 1
 225 265 l 2
 363 265 420 226 420 129 c 0
EndSplineSet
Validated: 1
EndChar

StartChar: afii10095
Encoding: 1101 1101 457
Width: 483
VWidth: 0
Flags: W
HStem: -10 50<144.109 265.162> 210 50<175 314> 400 50<156.119 269.711>
VStem: 316 125<109.579 210 260 325.37>
AnchorPoint: "top" 225 490 basechar 0
LayerCount: 2
Fore
SplineSet
126 308 m 1
 41 346 l 1
 73 414 122 450 214 450 c 0
 352 450 441 360 441 220 c 0
 441 80 364 -10 200 -10 c 0
 118 -10 70 26 30 77 c 1
 110 110 l 1
 133 73 142 40 215 40 c 0
 274 40 314 106 316 210 c 1
 175 210 l 1
 175 260 l 1
 314 260 l 1
 305 347 267 400 229 400 c 0
 149 400 142 368 126 308 c 1
EndSplineSet
Validated: 1
EndChar

StartChar: afii10096
Encoding: 1102 1102 458
Width: 684
VWidth: 0
Flags: W
HStem: -10 50<397.957 486.557> 0 21G<60 185> 210 50<185 242> 400 50<398.743 488.622> 420 20G<60 185>
VStem: 60 125<0 210 260 440> 242 125<97.8985 210 260 328.808> 517 125<101.47 336.909>
AnchorPoint: "top" 286 490 basechar 0
LayerCount: 2
Fore
SplineSet
60 440 m 1x6f
 185 440 l 1x6f
 185 260 l 1
 245 260 l 1
 260 377 343 450 433 450 c 0
 558 450 642 374 642 220 c 0
 642 66 563 -10 433 -10 c 0xb7
 306 -10 245 76 242 210 c 1
 185 210 l 1
 185 0 l 1
 60 0 l 1
 60 440 l 1x6f
517 220 m 0
 517 326 504 400 448 400 c 0
 381 400 367 330 367 220 c 0
 367 110 379 40 448 40 c 0xb7
 503 40 517 114 517 220 c 0
EndSplineSet
Validated: 1
EndChar

StartChar: afii10097
Encoding: 1103 1103 459
Width: 474
VWidth: 0
Flags: W
HStem: 0 50<34 64.2042> 175 50<221.863 290> 390 50<211.885 290>
VStem: 55 125<255.993 360.654> 290 125<0 175 225 390>
AnchorPoint: "top" 261 490 basechar 0
LayerCount: 2
Fore
SplineSet
55 311 m 0
 55 372 117 440 233 440 c 2
 415 440 l 1
 415 0 l 1
 290 0 l 1
 290 175 l 1
 264 175 l 2
 161 175 264 0 34 0 c 1
 34 50 l 1
 88 50 80 138 143 189 c 1
 91 208 55 247 55 311 c 0
290 390 m 1
 288 390 l 2
 225 390 180 359 180 311 c 0
 180 263 219 225 290 225 c 1
 290 390 l 1
EndSplineSet
Validated: 1
EndChar

StartChar: afii10099
Encoding: 1106 1106 462
Width: 531
VWidth: 0
Flags: W
HStem: -170 50<203.52 318.229> 0 21G<72 197> 400 50<197.939 314.268> 530 50<32 72 197 238> 640 20G<72 197>
VStem: 72 125<0 391.817 443 530 580 660> 338 125<-95.9295 351.628>
LayerCount: 2
Fore
SplineSet
463 78 m 2
 463 -122 435 -170 258 -170 c 0
 203 -170 146 -149 100 -125 c 1
 175 -73 l 1
 207 -108 238 -120 273 -120 c 0
 317 -120 338 -90 338 -4 c 2
 338 228 l 2
 338 368 316 400 269 400 c 0
 243 400 219 394 197 383 c 1
 197 0 l 1
 72 0 l 1
 72 530 l 1
 32 530 l 1
 32 580 l 1
 72 580 l 1
 72 660 l 1
 197 660 l 1
 197 580 l 1
 238 580 l 1
 238 530 l 1
 197 530 l 1
 197 443 l 1
 215 447 234 450 254 450 c 0
 394 450 463 382 463 240 c 2
 463 78 l 2
EndSplineSet
Validated: 1
EndChar

StartChar: afii10101
Encoding: 1108 1108 464
Width: 497
VWidth: 0
Flags: W
HStem: -10 50<218.091 344.786> 210 50<171 321> 400 50<212.686 329.191>
VStem: 44 125<114.63 210 260 320.229>
AnchorPoint: "top" 260 490 basechar 0
LayerCount: 2
Fore
SplineSet
368 310 m 1
 352 370 320 400 265 400 c 0
 210 400 178 347 171 260 c 1
 321 260 l 1
 321 210 l 1
 169 210 l 1
 171 106 201 40 285 40 c 0
 336 40 356 69 379 106 c 1
 455 77 l 1
 415 26 352 -10 270 -10 c 0
 140 -10 44 80 44 220 c 0
 44 360 150 450 250 450 c 0
 342 450 410 415 442 347 c 1
 368 310 l 1
EndSplineSet
Validated: 1
EndChar

StartChar: afii10106
Encoding: 1113 1113 469
Width: 777
VWidth: 0
Flags: W
HStem: -10 50<75.7483 183.498> 0 50<540 593.267> 215 50<540 592.406> 390 50<325 415>
VStem: 200 125<55.8628 390> 415 125<50 215 265 390> 620 125<74.3761 188.886>
AnchorPoint: "top" 326 490 basechar 0
LayerCount: 2
Fore
SplineSet
745 129 m 4xbe
 745 68 710 0 552 0 c 6
 415 0 l 5x7e
 415 390 l 5
 325 390 l 5
 325 127 l 2
 325 17 236 -10 131 -10 c 0
 93 -10 56 4 30 35 c 1
 93 65 l 1
 107 45 127 40 146 40 c 0
 186 40 200 78 200 160 c 2
 200 440 l 5
 540 440 l 5
 540 265 l 5
 550 265 l 6
 688 265 745 226 745 129 c 4xbe
540 50 m 5
 559 50 620 64 620 129 c 4
 620 202 560 215 540 215 c 5
 540 50 l 5
EndSplineSet
Validated: 1
EndChar

StartChar: afii10107
Encoding: 1114 1114 470
Width: 653
VWidth: 0
Flags: W
HStem: 0 50<416 469.267> 215 50<185 291 416 468.406> 420 20G<60 185 291 416>
VStem: 60 125<0 215 265 440> 291 125<50 215 265 440> 496 125<74.3761 188.886>
AnchorPoint: "top" 241 490 basechar 0
LayerCount: 2
Fore
SplineSet
416 440 m 1
 416 265 l 1
 426 265 l 2
 564 265 621 226 621 129 c 0
 621 68 586 0 428 0 c 2
 291 0 l 1
 291 215 l 1
 185 215 l 1
 185 0 l 1
 60 0 l 1
 60 440 l 1
 185 440 l 1
 185 265 l 1
 291 265 l 1
 291 440 l 1
 416 440 l 1
416 50 m 1
 435 50 496 64 496 129 c 0
 496 202 436 215 416 215 c 1
 416 50 l 1
EndSplineSet
Validated: 1
EndChar

StartChar: afii10108
Encoding: 1115 1115 471
Width: 531
VWidth: 0
Flags: W
HStem: 0 21G<72 197 338 463> 400 50<197.939 314.268> 530 50<32 72 197 238> 640 20G<72 197>
VStem: 72 125<0 391.817 443 530 580 660> 338 125<0 351.628>
LayerCount: 2
Fore
SplineSet
197 383 m 1
 197 0 l 1
 72 0 l 1
 72 530 l 1
 32 530 l 1
 32 580 l 1
 72 580 l 1
 72 660 l 1
 197 660 l 1
 197 580 l 1
 238 580 l 1
 238 530 l 1
 197 530 l 1
 197 443 l 1
 215 447 234 450 254 450 c 0
 394 450 463 382 463 240 c 2
 463 0 l 1
 338 0 l 1
 338 228 l 2
 338 368 316 400 269 400 c 0
 243 400 219 394 197 383 c 1
EndSplineSet
Validated: 1
EndChar

StartChar: afii10193
Encoding: 1119 1119 475
Width: 495
VWidth: 0
Flags: W
HStem: 0 50<185 203.834 294.166 311> 420 20G<60 185 311 436>
VStem: 60 125<50 440> 225 48<-154 -18.668> 311 125<50 440>
AnchorPoint: "top" 252 490 basechar 0
LayerCount: 2
Fore
SplineSet
60 0 m 1
 60 440 l 1
 185 440 l 1
 185 50 l 1
 311 50 l 1
 311 440 l 1
 436 440 l 1
 436 0 l 1
 305 0 l 1
 305 0 273 -40 273 -154 c 1
 225 -154 l 1
 225 -40 193 0 193 0 c 1
 60 0 l 1
EndSplineSet
Validated: 1048577
EndChar

StartChar: afii61352
Encoding: 8470 8470 476
Width: 1019
VWidth: 0
Flags: W
HStem: -10 50<51.2785 158.746> 0 21G<594.546 694> 170 30<741 974> 252 30<829.266 885.764> 458 30<831.094 886.203> 660 50<710.254 817.721> 680 20G<175 273.469>
VStem: 175 130<64.25 485> 564 130<214 635.75> 747 71<292.296 440.872> 898 69<293.918 446.082>
LayerCount: 2
Fore
SplineSet
741 200 m 1x39e0
 974 200 l 1
 974 170 l 1
 741 170 l 1
 741 200 l 1x39e0
898 370 m 0
 898 422 893 458 861 458 c 0
 825 458 818 424 818 370 c 0
 818 316 821 282 861 282 c 0
 891 282 898 318 898 370 c 0
853 252 m 0
 787 252 747 298 747 370 c 0
 747 441 802 488 853 488 c 0
 920 488 967 448 967 370 c 0
 967 292 920 252 853 252 c 0
694 0 m 1x7de0
 607 0 l 1x7de0
 305 485 l 1
 305 128 l 2
 305 28 181 -10 111 -10 c 0
 73 -10 31 4 5 35 c 1
 68 65 l 1
 82 45 102 40 121 40 c 0
 161 40 175 78 175 160 c 2
 175 700 l 1
 261 700 l 1xbbe0
 564 214 l 1
 564 572 l 2
 564 672 688 710 758 710 c 0
 796 710 838 696 864 665 c 1
 801 635 l 1
 787 655 767 660 748 660 c 0
 708 660 694 622 694 540 c 2
 694 0 l 1x7de0
EndSplineSet
Validated: 1
EndChar

StartChar: afii10050
Encoding: 1168 1168 477
Width: 507
VWidth: 0
Flags: W
HStem: 0 21G<85 215> 650 134<423 489> 650 50<215 423>
VStem: 85 130<0 650> 423 66<700 784>
AnchorPoint: "top" 295 700 basechar 0
LayerCount: 2
Fore
SplineSet
215 0 m 1xb8
 85 0 l 1
 85 700 l 1
 423 700 l 1xb8
 423 784 l 1
 489 784 l 1
 489 650 l 1xd8
 215 650 l 1
 215 0 l 1xb8
EndSplineSet
Validated: 1
EndChar

StartChar: afii10098
Encoding: 1169 1169 478
Width: 375
VWidth: 0
Flags: W
HStem: 0 21G<60 185> 390 140<283 349> 390 50<185 283>
VStem: 60 125<0 390> 283 66<440 530>
AnchorPoint: "top" 206 490 basechar 0
LayerCount: 2
Fore
SplineSet
185 0 m 1xb8
 60 0 l 1
 60 440 l 1
 283 440 l 1xb8
 283 530 l 1
 349 530 l 1
 349 390 l 1xd8
 185 390 l 1
 185 0 l 1xb8
EndSplineSet
Validated: 1
EndChar

StartChar: uni031B
Encoding: 795 795 479
Width: 0
VWidth: 0
Flags: W
HStem: 515 21<-119 -90.0975> 680 20G<-87 15>
VStem: -87 102<599.487 700>
AnchorPoint: "horn" -119 525 mark 0
LayerCount: 2
Fore
SplineSet
-87 700 m 1
 15 700 l 1
 15 570 -67 515 -119 515 c 1
 -119 536 l 1
 -82 536 -66 570 -66 595 c 0
 -66 624 -87 655 -87 700 c 1
EndSplineSet
Validated: 1
EndChar

StartChar: hookabovecomb
Encoding: 777 777 480
Width: 0
VWidth: 0
Flags: W
HStem: 702 30<-328.371 -266.618>
VStem: -300 25<599 618.514> -265 56<643.493 701.873>
AnchorPoint: "top" -287 580 mark 0
LayerCount: 2
Fore
SplineSet
-275 599 m 9
 -300 599 l 1
 -300 625 -265 648 -265 674 c 0
 -265 687 -266 702 -288 702 c 0
 -314 702 -332 694 -332 694 c 9
 -332 715 l 1
 -332 715 -305 732 -274 732 c 0
 -223 732 -209 702 -209 683 c 0
 -209 637 -275 627 -275 599 c 9
EndSplineSet
Validated: 1
EndChar

StartChar: dotbelowcomb
Encoding: 803 803 481
Width: 0
VWidth: 0
Flags: W
HStem: -133 83<-330 -247>
VStem: -330 83<-133 -50>
AnchorPoint: "bottom" -288 0 mark 0
LayerCount: 2
Fore
SplineSet
-330 -50 m 1
 -247 -50 l 1
 -247 -133 l 1
 -330 -133 l 1
 -330 -50 l 1
EndSplineSet
Validated: 1
EndChar

StartChar: uni0325
Encoding: 805 805 483
Width: 0
VWidth: 0
Flags: W
HStem: -192 35<-319.96 -254.04> -75 35<-319.96 -254.04>
VStem: -363 35<-149.108 -82.8916> -246 35<-149.108 -82.8916>
AnchorPoint: "bottom" -287 0 mark 0
LayerCount: 2
Fore
SplineSet
-328 -116 m 0
 -328 -138 -310 -157 -287 -157 c 0
 -264 -157 -246 -138 -246 -116 c 0
 -246 -94 -264 -75 -287 -75 c 0
 -310 -75 -328 -94 -328 -116 c 0
-363 -116 m 0
 -363 -74 -329 -40 -287 -40 c 0
 -245 -40 -211 -74 -211 -116 c 0
 -211 -158 -245 -192 -287 -192 c 0
 -329 -192 -363 -158 -363 -116 c 0
EndSplineSet
Validated: 1
EndChar

StartChar: uni032C
Encoding: 812 812 484
Width: 0
VWidth: 0
Flags: W
HStem: -219 189
VStem: -403 234
AnchorPoint: "bottom" -286 0 mark 0
LayerCount: 2
Fore
SplineSet
-286 -219 m 1
 -403 -56 l 1
 -372 -30 l 1
 -286 -118 l 1
 -200 -30 l 1
 -169 -56 l 1
 -286 -219 l 1
EndSplineSet
Validated: 1
EndChar

StartChar: uni032D
Encoding: 813 813 485
Width: 0
VWidth: 0
Flags: W
HStem: -219 189
VStem: -403 234
AnchorPoint: "bottom" -286 0 mark 0
LayerCount: 2
Fore
SplineSet
-286 -30 m 1
 -169 -193 l 1
 -200 -219 l 1
 -286 -131 l 1
 -372 -219 l 1
 -403 -193 l 1
 -286 -30 l 1
EndSplineSet
Validated: 1
EndChar

StartChar: uni032E
Encoding: 814 814 486
Width: 0
VWidth: 0
Flags: W
HStem: -133 57<-346.684 -227.316>
VStem: -400 38<-56.1079 -38.1579> -212 38<-56.1079 -38.1579>
AnchorPoint: "bottom" -287 0 mark 0
LayerCount: 2
Fore
SplineSet
-287 -76 m 0
 -250 -76 -215 -52 -212 -30 c 1
 -174 -40 l 1
 -180 -90 -229 -133 -287 -133 c 0
 -345 -133 -394 -90 -400 -40 c 1
 -362 -30 l 1
 -359 -52 -324 -76 -287 -76 c 0
EndSplineSet
Validated: 1
EndChar

StartChar: uni032F
Encoding: 815 815 487
Width: 0
VWidth: 0
Flags: W
HStem: -97 57<-346.684 -227.316>
VStem: -400 38<-134.842 -116.892> -212 38<-134.842 -116.892>
AnchorPoint: "bottom" -287 0 mark 0
LayerCount: 2
Fore
SplineSet
-287 -97 m 0
 -324 -97 -359 -121 -362 -143 c 1
 -400 -133 l 1
 -394 -83 -345 -40 -287 -40 c 0
 -229 -40 -180 -83 -174 -133 c 1
 -212 -143 l 1
 -215 -121 -250 -97 -287 -97 c 0
EndSplineSet
Validated: 1
EndChar

StartChar: uni0330
Encoding: 816 816 488
Width: 0
VWidth: 0
Flags: W
HStem: -139 57<-295.459 -198.446> -107 57<-385.554 -288.541>
VStem: -430 41<-139 -114.336> -195 41<-74.6642 -50>
AnchorPoint: "bottom" -287 0 mark 0
LayerCount: 2
Fore
SplineSet
-195 -50 m 1x70
 -154 -50 l 1x70
 -160 -100 -194 -139 -252 -139 c 0xb0
 -286 -139 -315 -107 -337 -107 c 0x70
 -367 -107 -386 -117 -389 -139 c 1
 -430 -139 l 1xb0
 -424 -89 -390 -50 -332 -50 c 0x70
 -298 -50 -269 -82 -247 -82 c 0xb0
 -217 -82 -198 -72 -195 -50 c 1x70
EndSplineSet
Validated: 1
EndChar

StartChar: uni0331
Encoding: 817 817 489
Width: 0
VWidth: 0
Flags: W
HStem: -108 56<-407 -177>
VStem: -407 230<-108 -52>
AnchorPoint: "bottom" -287 0 mark 0
LayerCount: 2
Fore
SplineSet
-407 -52 m 1
 -177 -52 l 1
 -177 -108 l 1
 -407 -108 l 1
 -407 -52 l 1
EndSplineSet
Validated: 1
EndChar

StartChar: Ohorn
Encoding: 416 416 490
Width: 708
VWidth: 0
UnlinkRmOvrlpSave: 1
Flags: W
HStem: -10 50<286.381 420.627> 660 50<276.102 419.017>
VStem: 50 130<207.236 494.263> 523 130<202.207 494.252> 606 102<603.984 705>
AnchorPoint: "bottom" 349 0 basechar 0
AnchorPoint: "top" 347 700 basechar 0
LayerCount: 2
Fore
SplineSet
606 705 m 1xe8
 708 705 l 1xe8
 708 608 663 553 618 531 c 1
 640 482 653 422 653 350 c 0xf0
 653 100 508 -10 344 -10 c 0
 211 -10 50 100 50 350 c 0
 50 600 201 710 335 710 c 0
 444 710 549 660 607 553 c 1
 620 565 627 585 627 600 c 0
 627 629 606 660 606 705 c 1xe8
341 660 m 0
 251 660 180 560 180 350 c 0
 180 130 270 40 350 40 c 0
 448 40 523 140 523 350 c 0xf0
 523 570 446 660 341 660 c 0
EndSplineSet
EndChar

StartChar: ohorn
Encoding: 417 417 491
Width: 550
VWidth: 0
UnlinkRmOvrlpSave: 1
Flags: W
HStem: -10 50<207.713 314.523> 400 50<207.83 314.734>
VStem: 44 125<104.505 320.966> 349 125<109 321.824> 448 102<382.725 485>
AnchorPoint: "bottom" 253 0 basechar 0
AnchorPoint: "top" 262 490 basechar 0
LayerCount: 2
Fore
SplineSet
448 485 m 1xe8
 550 485 l 1xe8
 550 389 505 333 461 311 c 1
 470 284 474 254 474 220 c 0xf0
 474 66 380 -10 250 -10 c 0
 120 -10 44 80 44 220 c 0
 44 360 150 450 250 450 c 0
 342 450 416 412 451 335 c 1
 463 347 469 365 469 380 c 0
 469 409 448 440 448 485 c 1xe8
349 220 m 0xf0
 349 326 332 400 265 400 c 0
 191 400 169 330 169 220 c 0
 169 110 187 40 265 40 c 0
 335 40 349 114 349 220 c 0xf0
EndSplineSet
EndChar

StartChar: Uhorn
Encoding: 431 431 492
Width: 771
VWidth: 0
UnlinkRmOvrlpSave: 1
Flags: W
HStem: -10 50<275.47 414.062> 520 21<609 654.598> 685 15G<76 206 479 609 669 771>
VStem: 76 130<160.097 700> 479 130<145.107 520 541 700> 669 102<601.361 705>
AnchorPoint: "bottom" 340 0 basechar 0
AnchorPoint: "top" 340 700 basechar 0
LayerCount: 2
Fore
SplineSet
669 705 m 1
 771 705 l 1
 771 576 702 521 609 520 c 1
 609 298 l 2
 609 48 484 -10 340 -10 c 0
 234 -10 76 48 76 298 c 2
 76 700 l 1
 206 700 l 1
 206 298 l 2
 206 78 278 40 346 40 c 0
 422 40 479 88 479 298 c 2
 479 700 l 1
 609 700 l 1
 609 541 l 1
 671 542 690 575 690 600 c 0
 690 629 669 660 669 705 c 1
EndSplineSet
EndChar

StartChar: uhorn
Encoding: 432 432 493
Width: 626
VWidth: 0
UnlinkRmOvrlpSave: 1
Flags: W
HStem: -10 50<219.853 335.515> 300 21<461 511.504> 420 20G<70 195 336 461>
VStem: 70 125<79.5512 440> 336 125<44.2305 300 321 440> 524 102<381.361 485>
AnchorPoint: "bottom" 259 0 basechar 0
AnchorPoint: "top" 267 490 basechar 0
LayerCount: 2
Fore
SplineSet
524 485 m 1
 626 485 l 1
 626 355 556 300 461 300 c 1
 461 0 l 1
 337 0 l 1
 312 -7 287 -10 264 -10 c 0
 124 -10 70 58 70 200 c 2
 70 440 l 1
 195 440 l 1
 195 212 l 2
 195 72 209 40 279 40 c 0
 301 40 319 44 336 52 c 1
 336 440 l 1
 461 440 l 1
 461 321 l 1
 525 321 545 355 545 380 c 0
 545 409 524 440 524 485 c 1
EndSplineSet
EndChar

StartChar: a.sc
Encoding: 57344 57344 588
Width: 605
VWidth: 0
Flags: W
HStem: 0 21G<19 149.407 457.469 588> 162 50<221 386>
LayerCount: 2
Fore
SplineSet
202 162 m 1
 142 0 l 1
 19 0 l 1
 237 600 l 1
 370 600 l 1
 588 0 l 1
 465 0 l 1
 404 162 l 1
 202 162 l 1
221 212 m 1
 386 212 l 1
 303 432 l 1
 221 212 l 1
EndSplineSet
Validated: 1
EndChar

StartChar: e.sc
Encoding: 57371 57371 589
Width: 546
VWidth: 0
Flags: W
HStem: 0 50<215 505> 324 50<215 399> 550 50<215 489>
VStem: 85 130<50 324 374 550>
LayerCount: 2
Fore
SplineSet
505 0 m 1
 85 0 l 1
 85 600 l 1
 489 600 l 1
 489 550 l 9
 215 550 l 1
 215 374 l 1
 399 374 l 17
 399 324 l 9
 215 324 l 1
 215 50 l 1
 505 50 l 17
 505 0 l 1
EndSplineSet
Validated: 1
EndChar

StartChar: o.sc
Encoding: 57441 57441 590
Width: 701
VWidth: 0
Flags: W
HStem: -9 50<279.524 428.039> 559 50<269.406 425.352>
VStem: 50 130<178.096 426.001> 523 130<173.999 424.972>
LayerCount: 2
Fore
SplineSet
344 -9 m 0
 211 -9 50 86 50 300 c 0
 50 514 201 609 335 609 c 0
 498 609 653 514 653 300 c 0
 653 86 508 -9 344 -9 c 0
341 559 m 0
 251 559 180 480 180 300 c 0
 180 111 270 41 350 41 c 0
 448 41 523 120 523 300 c 0
 523 489 446 559 341 559 c 0
EndSplineSet
Validated: 1
EndChar

StartChar: stackingacute
Encoding: 58624 58624 591
Width: 310
VWidth: 0
Flags: W
HStem: 723 147
VStem: 72 166
LayerCount: 2
Fore
SplineSet
158 870 m 25
 238 822 l 25
 103 723 l 25
 72 749 l 25
 158 870 l 25
EndSplineSet
Validated: 1
EndChar

StartChar: stackinggrave
Encoding: 58625 58625 592
Width: 310
VWidth: 0
Flags: W
HStem: 723 147
VStem: 72 166
LayerCount: 2
Fore
SplineSet
152 870 m 25
 238 749 l 25
 207 723 l 25
 72 822 l 25
 152 870 l 25
EndSplineSet
Validated: 1
EndChar

StartChar: uni0181
Encoding: 385 385 593
Width: 683
VWidth: 0
Flags: W
HStem: 0 50<353 458.324> 355 50<353 418.054> 448 21G<117 152.923> 650 50<175.633 223 353 431.613>
VStem: 20 116<503.899 614.511> 223 130<50 355 405 647> 473 130<460.717 606.904> 515 130<105.466 282.83>
LayerCount: 2
Fore
SplineSet
353 650 m 1xfe
 353 405 l 1
 437 406 473 486 473 525 c 0
 473 564 458 650 373 650 c 2
 353 650 l 1xfe
519 388 m 1
 608 352 645 266 645 189 c 0xfd
 645 89 581 0 423 0 c 2
 223 0 l 1
 223 647 l 1
 164 637 136 600 136 556 c 0
 136 512 151 508 164 500 c 1
 146 448 l 1
 88 456 20 486 20 551 c 0
 20 639 106 700 223 700 c 2
 403 700 l 2
 563 700 603 618 603 525 c 0
 603 492 584 427 519 388 c 1
353 355 m 1
 353 50 l 1
 393 50 l 2
 478 50 515 119 515 189 c 0
 515 259 478 355 393 355 c 2
 353 355 l 1
EndSplineSet
Validated: 1
EndChar

StartChar: uni018A
Encoding: 394 394 594
Width: 775
VWidth: 0
Flags: W
HStem: 0 50<353 499.574> 448 21G<117 152.923> 650 50<175.633 223 353 506.57>
VStem: 20 116<503.899 614.511> 223 130<50 647> 596 130<192.383 523.986>
LayerCount: 2
Fore
SplineSet
353 650 m 1
 353 50 l 1
 435 50 l 2
 520 50 596 140 596 360 c 0
 596 580 520 650 435 650 c 2
 353 650 l 1
465 0 m 2
 223 0 l 1
 223 647 l 1
 164 637 136 600 136 556 c 0
 136 512 151 508 164 500 c 1
 146 448 l 1
 88 456 20 486 20 551 c 0
 20 639 106 700 223 700 c 2
 465 700 l 2
 625 700 726 602 726 360 c 0
 726 120 623 0 465 0 c 2
EndSplineSet
Validated: 1
EndChar

StartChar: uni0253
Encoding: 595 595 595
Width: 527
VWidth: 0
Flags: W
HStem: -10 50<215.349 323.125> 400 50<209.644 324.284> 620 50<203.146 302.252>
VStem: 68 125<71.8813 381.762 438 599.41> 360 125<105.554 334.446>
LayerCount: 2
Fore
SplineSet
68 533 m 6
 68 632 177 670 247 670 c 4
 285 670 322 656 348 625 c 5
 285 595 l 5
 271 615 251 620 232 620 c 4
 196 620 193 582 193 500 c 6
 193 438 l 1
 216 446 242 450 268 450 c 0
 428 450 485 345 485 220 c 0
 485 95 426 -10 268 -10 c 0
 168 -10 68 16 68 180 c 2
 68 533 l 6
193 364 m 1
 193 148 l 2
 193 56 222 40 283 40 c 0
 342 40 360 135 360 220 c 0
 360 305 346 400 283 400 c 0
 244 400 215 387 193 364 c 1
EndSplineSet
Validated: 1
EndChar

StartChar: uni0257
Encoding: 599 599 596
Width: 567
VWidth: 0
Flags: W
HStem: -10 50<206.478 312.323> 0 21G<336 461> 400 50<206.608 303.352> 617 50<471.146 570.252>
VStem: 44 125<111.377 328.623> 336 125<0 2 64.5742 359.711 431 596.41>
LayerCount: 2
Fore
SplineSet
461 0 m 1x7c
 336 0 l 1x7c
 336 2 l 1
 309 -6 279 -10 246 -10 c 0xbc
 121 -10 44 95 44 220 c 0
 44 345 122 450 246 450 c 0
 279 450 309 443 336 431 c 1
 336 530 l 6
 336 629 445 667 515 667 c 4
 553 667 590 653 616 622 c 5
 553 592 l 5
 539 612 519 617 500 617 c 4
 464 617 461 579 461 497 c 6
 461 0 l 1x7c
336 196 m 0
 336 288 330 400 261 400 c 0
 176 400 169 305 169 220 c 0
 169 135 176 40 261 40 c 0xbc
 330 40 336 102 336 196 c 0
EndSplineSet
Validated: 1
EndChar

StartChar: uni018E
Encoding: 398 398 597
Width: 548
VWidth: 0
Flags: W
HStem: 0 50<49 339> 390 50<155 339> 650 50<65 339>
VStem: 339 130<50 390 440 650>
LayerCount: 2
Fore
SplineSet
49 0 m 1
 49 50 l 9
 339 50 l 1
 339 390 l 1
 155 390 l 17
 155 440 l 9
 339 440 l 1
 339 650 l 1
 65 650 l 17
 65 700 l 1
 469 700 l 1
 469 0 l 1
 49 0 l 1
EndSplineSet
Validated: 1
EndChar

StartChar: uni01DD
Encoding: 477 477 598
Width: 502
VWidth: 0
Flags: W
HStem: -10 50<196.815 296.399> 170 50<170 333> 400 50<159.78 288.57>
VStem: 333 127<119.771 170 220 325.293>
LayerCount: 2
Fore
SplineSet
335 220 m 1
 335 330 314 400 219 400 c 0
 168 400 151 377 144 340 c 1
 49 363 l 1
 89 414 152 450 234 450 c 0
 364 450 460 360 460 220 c 0
 460 80 354 -10 254 -10 c 0
 115 -10 44 110 44 220 c 1
 335 220 l 1
333 170 m 1
 170 170 l 1
 173 96 185 40 239 40 c 0
 302 40 327 89 333 170 c 1
EndSplineSet
Validated: 1
EndChar

StartChar: uni0198
Encoding: 408 408 600
Width: 694
VWidth: 0
Flags: W
HStem: 0 21G<85 215 477.268 602> 655 55<536.952 619.782> 680 20G<85 215>
VStem: 85 130<0 280 408 700> 630 99<538.436 646.515>
LayerCount: 2
Fore
SplineSet
602 0 m 1xd8
 493 0 l 1
 246 314 l 1
 215 280 l 1
 215 0 l 1
 85 0 l 1
 85 700 l 1
 215 700 l 1xb8
 215 408 l 1
 418 635 l 2
 461 683 507 710 572 710 c 0
 671 710 729 666 729 583 c 0
 729 504 640 477 624 472 c 1
 594 528 l 1
 617 543 630 556 630 594 c 0
 630 626 614 655 583 655 c 0
 559 655 546 650 452 545 c 2
 304 379 l 1
 602 0 l 1xd8
EndSplineSet
Validated: 1
EndChar

StartChar: uni0199
Encoding: 409 409 601
Width: 479
VWidth: 0
Flags: W
HStem: 0 21G<72 197 324.199 446> 420 20G<298.239 428> 620 50<207.146 306.252>
VStem: 72 125<0 181 306 599.41>
LayerCount: 2
Fore
SplineSet
197 306 m 1
 316 440 l 1
 428 440 l 1
 254 245 l 1
 446 0 l 1
 340 0 l 1
 197 181 l 1
 197 0 l 1
 72 0 l 1
 72 533 l 2
 72 632 181 670 251 670 c 0
 289 670 326 656 352 625 c 1
 289 595 l 1
 275 615 255 620 236 620 c 0
 200 620 197 582 197 500 c 2
 197 306 l 1
EndSplineSet
Validated: 1
EndChar

StartChar: Engsami
Encoding: 58626 58626 604
Width: 687
VWidth: 0
Flags: W
HStem: -170 50<344.52 453.637> 0 21G<85 215> 680 20G<85 225.904 474 604>
VStem: 85 130<0 525> 474 130<-97.3825 0 179 700>
LayerCount: 2
Fore
SplineSet
215 525 m 1
 215 0 l 1
 85 0 l 1
 85 700 l 1
 216 700 l 1
 474 179 l 1
 474 700 l 1
 604 700 l 1
 604 78 l 2
 604 -122 576 -170 399 -170 c 0
 344 -170 287 -149 241 -125 c 1
 316 -73 l 1
 348 -108 379 -120 414 -120 c 0
 458 -120 470 -86 474 0 c 1
 215 525 l 1
EndSplineSet
Validated: 1
EndChar

StartChar: uni0193
Encoding: 403 403 605
Width: 717
VWidth: 0
Flags: W
HStem: -10 50<300.002 475.667> 350 50<401 485> 660 50<278.601 444.574> 667 50<616.244 716.252>
VStem: 50 130<215.477 494.263> 485 125<78.8125 350> 497 110<547 605.88>
LayerCount: 2
Fore
SplineSet
401 400 m 1xec
 610 400 l 1
 610 102 l 1
 560 38 471 -10 362 -10 c 0
 232 -10 50 100 50 350 c 0
 50 600 212 710 343 710 c 0xec
 413 710 482 701 531 675 c 1
 566 706 618 717 661 717 c 0
 699 717 736 703 762 672 c 1
 699 642 l 1
 685 662 665 667 646 667 c 0
 610 667 607 629 607 547 c 1
 497 514 l 1xda
 497 622 442 660 358 660 c 0
 242 660 180 560 180 350 c 0
 180 130 282 40 377 40 c 0
 418 40 454 49 485 66 c 1
 485 350 l 1
 401 350 l 1
 401 400 l 1xec
EndSplineSet
Validated: 1
EndChar

StartChar: uni019D
Encoding: 413 413 606
Width: 681
VWidth: 0
Flags: W
HStem: -170 50<-37.2517 62.0846> 0 21G<487 617> 620 50<267.127 432.903> 640 20G<72 202>
VStem: 72 130<-99.2599 570.86 626 660> 487 130<0 547.726>
LayerCount: 2
Fore
SplineSet
202 -33 m 2xec
 202 -132 88 -170 18 -170 c 0
 -20 -170 -57 -156 -83 -125 c 1
 -20 -95 l 1
 -6 -115 14 -120 33 -120 c 0
 69 -120 72 -82 72 0 c 2
 72 660 l 1
 202 660 l 1xdc
 202 626 l 1
 233 642 269 670 342 670 c 0
 482 670 617 602 617 460 c 2
 617 0 l 17
 487 0 l 9
 487 448 l 2
 487 588 427 620 357 620 c 0
 285 620 235 583 202 554 c 1
 202 -33 l 2xec
EndSplineSet
Validated: 1
EndChar

StartChar: uni01B3
Encoding: 435 435 607
Width: 599
VWidth: 0
Flags: W
HStem: 0 21G<187 317> 657 55<447.123 530.903> 680 20G<11 147.206>
VStem: 187 130<0 355> 549 70<591 639.859>
LayerCount: 2
Fore
SplineSet
317 391 m 1xd8
 317 0 l 1
 187 0 l 1
 187 355 l 1
 11 700 l 1
 137 700 l 1xb8
 261 457 l 1
 323 578 l 2
 350 631 398 712 492 712 c 0
 571 712 619 650 619 591 c 1
 549 585 l 1
 549 626 521 657 488 657 c 0
 449 657 432 617 405 564 c 2
 317 391 l 1xd8
EndSplineSet
Validated: 1
EndChar

StartChar: uni01B4
Encoding: 436 436 608
Width: 587
VWidth: 0
Flags: W
HStem: -170 50<102.834 159.397> 400 50<427.603 484.166> 420 20G<43 158.285>
LayerCount: 2
Fore
SplineSet
274 -24 m 2xc0
 241 -115 196 -170 119 -170 c 0
 80 -170 19 -147 -5 -88 c 1
 91 -74 l 1
 102 -109 123 -120 134 -120 c 0
 151 -120 173 -82 195 -22 c 2
 203 0 l 1
 43 440 l 1
 151 440 l 1xa0
 257 149 l 1
 313 304 l 2
 346 395 391 450 468 450 c 0
 507 450 568 427 592 368 c 1
 496 354 l 1
 485 389 464 400 453 400 c 0
 436 400 414 362 392 302 c 2
 274 -24 l 2xc0
EndSplineSet
Validated: 1
EndChar

StartChar: uni0260
Encoding: 608 608 609
Width: 542
VWidth: 0
Flags: W
HStem: -170 50<176.52 290.34> -10 50<213.11 310> 400 50<206.372 309.568> 499 50<446.237 545.252>
VStem: 44 125<108.666 329.614> 311 125<-95.9295 -4 41.1484 391.314>
LayerCount: 2
Fore
SplineSet
311 377 m 1
 294 392 274 400 250 400 c 0
 196 400 169 330 169 220 c 0
 169 110 197 40 270 40 c 0
 285 40 299 42 311 46 c 1
 311 377 l 1
475 499 m 4
 440 499 436 463 436 379 c 6
 436 78 l 2
 436 -122 408 -170 231 -170 c 0
 176 -170 119 -149 73 -125 c 1
 148 -73 l 1
 180 -108 211 -120 246 -120 c 0
 290 -120 306 -90 310 -4 c 1
 293 -8 274 -10 255 -10 c 0
 125 -10 44 80 44 220 c 0
 44 360 135 450 235 450 c 0
 263 450 290 445 313 436 c 5
 329 517 426 549 490 549 c 4
 528 549 565 535 591 504 c 5
 528 474 l 5
 514 494 494 499 475 499 c 4
EndSplineSet
Validated: 1
EndChar

StartChar: uni0272
Encoding: 626 626 610
Width: 531
VWidth: 0
Flags: W
HStem: -170 50<-37.2517 61.8539> 0 21G<338 463> 400 50<197.701 314.268>
VStem: 72 125<-99.4098 391.817> 338 125<0 351.628>
LayerCount: 2
Fore
SplineSet
197 -33 m 6
 197 -132 88 -170 18 -170 c 4
 -20 -170 -57 -156 -83 -125 c 5
 -20 -95 l 5
 -6 -115 14 -120 33 -120 c 4
 69 -120 72 -82 72 0 c 6
 72 440 l 1
 188 440 l 1
 204 445 234 450 254 450 c 0
 394 450 463 382 463 240 c 2
 463 0 l 17
 338 0 l 9
 338 228 l 2
 338 368 316 400 269 400 c 0
 243 400 219 394 197 383 c 1
 197 -33 l 6
EndSplineSet
Validated: 1
EndChar

StartChar: uni0186
Encoding: 390 390 611
Width: 650
VWidth: 0
Flags: W
HStem: -10 50<201.344 359.998> 660 50<219.464 381.399>
VStem: 480 130<215.477 494.263>
AnchorPoint: "top" 310 700 basechar 0
LayerCount: 2
Fore
SplineSet
50 102 m 1
 144 129 l 1
 181 72 206 40 283 40 c 0
 378 40 480 130 480 350 c 0
 480 560 418 660 302 660 c 0
 218 660 196 622 163 575 c 1
 53 608 l 1
 99 665 181 710 317 710 c 0
 448 710 610 600 610 350 c 0
 610 100 428 -10 298 -10 c 0
 189 -10 100 38 50 102 c 1
EndSplineSet
Validated: 1
EndChar

StartChar: uni0254
Encoding: 596 596 612
Width: 497
VWidth: 0
Flags: W
HStem: -10 50<159.892 283.57> 400 50<188.841 291.392>
VStem: 330 125<114.669 320.966>
AnchorPoint: "top" 242 490 basechar 0
LayerCount: 2
Fore
SplineSet
163 297 m 1
 63 330 l 1
 95 398 157 450 249 450 c 0
 349 450 455 360 455 220 c 0
 455 80 359 -10 229 -10 c 0
 147 -10 84 26 44 77 c 1
 134 100 l 1
 157 63 163 40 214 40 c 0
 309 40 330 110 330 220 c 0
 330 330 309 400 234 400 c 0
 179 400 179 357 163 297 c 1
EndSplineSet
Validated: 1
EndChar

StartChar: uni0190
Encoding: 400 400 613
Width: 526
VWidth: 0
Flags: W
HStem: -10 50<231.952 348.063> 390 50<253.806 340> 660 50<230.015 346.918>
VStem: 40 130<130.851 303.601> 70 130<488.98 626.398>
AnchorPoint: "top" 270 700 basechar 0
LayerCount: 2
Fore
SplineSet
390 144 m 1xf0
 482 119 l 1
 454 46 396 -10 288 -10 c 0
 112 -10 40 135 40 215 c 0xf0
 40 275 71 370 168 415 c 1
 95 446 70 502 70 555 c 0
 70 635 147 710 279 710 c 0
 348 710 421 676 459 605 c 1
 379 583 l 1
 365 629 344 660 270 660 c 0
 234 660 200 615 200 555 c 0xe8
 200 510 228 440 340 440 c 1
 340 390 l 1
 320 390 l 2
 210 390 170 275 170 215 c 0
 170 155 210 40 278 40 c 0
 345 40 375 74 390 144 c 1xf0
EndSplineSet
Validated: 1
EndChar

StartChar: uni025B
Encoding: 603 603 614
Width: 438
VWidth: 0
Flags: W
HStem: -10 50<171.078 280.295> 220 50<195.79 282> 400 50<187.01 279.633>
VStem: 30 125<52.8169 195.112> 54 125<286.262 396.338>
AnchorPoint: "top" 216 490 basechar 0
LayerCount: 2
Fore
SplineSet
320 108 m 1xf0
 396 87 l 1
 373 44 313 -10 227 -10 c 0
 86 -10 30 46 30 125 c 0xf0
 30 176 56 224 121 250 c 1
 73 275 54 311 54 339 c 0
 54 404 104 450 227 450 c 0
 317 450 361 404 377 359 c 1
 296 340 l 1
 290 374 274 400 215 400 c 0
 189 400 179 377 179 339 c 0xe8
 179 303 198 270 254 270 c 2
 282 270 l 1
 282 220 l 1
 247 220 l 2
 184 220 155 190 155 125 c 0
 155 57 182 40 215 40 c 0
 267 40 304 73 320 108 c 1xf0
EndSplineSet
Validated: 1
EndChar

StartChar: uni0256
Encoding: 598 598 616
Width: 532
VWidth: 0
Flags: W
HStem: -171 50<471.146 570.252> -10 50<206.478 312.323> 400 50<206.608 303.352> 640 20G<336 461>
VStem: 44 125<111.377 328.623> 336 125<-100.41 2 64.5742 359.711 431 660>
LayerCount: 2
Fore
SplineSet
461 660 m 1
 461 -1 l 6
 461 -83 464 -121 500 -121 c 4
 519 -121 539 -116 553 -96 c 5
 616 -126 l 5
 590 -157 553 -171 515 -171 c 4
 445 -171 336 -133 336 -34 c 6
 336 2 l 1
 309 -6 279 -10 246 -10 c 0
 121 -10 44 95 44 220 c 0
 44 345 122 450 246 450 c 0
 279 450 309 443 336 431 c 1
 336 660 l 1
 461 660 l 1
336 196 m 0
 336 288 330 400 261 400 c 0
 176 400 169 305 169 220 c 0
 169 135 176 40 261 40 c 0
 330 40 336 102 336 196 c 0
EndSplineSet
Validated: 1
EndChar

StartChar: uni0191
Encoding: 401 401 617
Width: 521
VWidth: 0
Flags: W
HStem: -170 50<-24.2517 75.0846> 390 50<215 399> 650 50<215 489>
VStem: 85 130<-99.2599 390 440 650>
LayerCount: 2
Fore
SplineSet
215 -33 m 6
 215 -132 101 -170 31 -170 c 4
 -7 -170 -44 -156 -70 -125 c 5
 -7 -95 l 5
 7 -115 27 -120 46 -120 c 4
 82 -120 85 -82 85 0 c 6
 85 700 l 1
 489 700 l 17
 489 650 l 9
 215 650 l 1
 215 440 l 1
 399 440 l 17
 399 390 l 9
 215 390 l 1
 215 -33 l 6
EndSplineSet
Validated: 1
EndChar

StartChar: florin
Encoding: 402 402 618
Width: 288
VWidth: 0
Flags: W
HStem: -170 50<-35.2517 63.8539> 390 50<30 74 199 270> 620 50<208.695 277.654>
VStem: 74 125<-99.4098 390 440 606.968>
LayerCount: 2
Fore
SplineSet
199 -33 m 6
 199 -132 90 -170 20 -170 c 4
 -18 -170 -55 -156 -81 -125 c 5
 -18 -95 l 5
 -4 -115 16 -120 35 -120 c 4
 71 -120 74 -82 74 0 c 6
 74 390 l 1
 15 390 l 1
 30 440 l 1
 74 440 l 1
 74 535 l 2
 74 615 141 670 221 670 c 0
 250 670 273 666 292 659 c 1
 271 605 l 1
 263 615 253 620 236 620 c 0
 208 620 199 597 199 509 c 2
 199 440 l 1
 270 440 l 1
 270 390 l 1
 199 390 l 1
 199 -33 l 6
EndSplineSet
Validated: 1
EndChar

StartChar: uni0194
Encoding: 404 404 619
Width: 563
VWidth: 0
Flags: W
HStem: -204 50<270.23 295.767> 680 20G<12 143.558 422.442 554>
VStem: 151 116<-152.82 -18.4276> 299 115<-152.82 -17.9002>
LayerCount: 2
Fore
SplineSet
283 -17 m 1
 274 -48 267 -76 267 -90 c 0
 267 -140 272 -154 283 -154 c 0
 294 -154 299 -140 299 -90 c 0
 299 -76 292 -48 283 -17 c 1
223 150 m 1
 12 700 l 1
 136 700 l 1
 283 311 l 1
 430 700 l 1
 554 700 l 1
 343 152 l 1
 364 96 l 2
 371 75 414 -46 414 -90 c 0
 414 -164 368 -204 283 -204 c 0
 198 -204 151 -164 151 -90 c 0
 151 -46 192 71 202 96 c 2
 223 150 l 1
EndSplineSet
Validated: 1
EndChar

StartChar: uni0263
Encoding: 611 611 620
Width: 427
VWidth: 0
Flags: W
HStem: -204 50<202.246 227.751> 420 20G<9 135.622 294.378 421>
VStem: 88 111<-152.82 -13.1922> 231 110<-152.82 -13.1922>
LayerCount: 2
Fore
SplineSet
215 -11 m 1
 206 -44 199 -75 199 -90 c 0
 199 -140 204 -154 215 -154 c 0
 226 -154 231 -140 231 -90 c 0
 231 -75 225 -44 215 -11 c 1
156 132 m 1
 9 440 l 1
 126 440 l 1
 215 255 l 1
 304 440 l 1
 421 440 l 1
 273 133 l 1
 291 96 l 2
 318 41 341 -46 341 -90 c 0
 341 -164 300 -204 215 -204 c 0
 130 -204 88 -164 88 -90 c 0
 88 -46 113 41 139 96 c 2
 156 132 l 1
EndSplineSet
Validated: 1
EndChar

StartChar: uni01B2
Encoding: 434 434 621
Width: 775
VWidth: 0
Flags: W
HStem: -10 50<296.67 455.521> 680 20G<76 206 449 621>
VStem: 76 130<166.674 700> 569 130<185.886 490.879>
LayerCount: 2
Fore
SplineSet
449 700 m 1
 589 700 l 1
 653 590 699 516 699 292 c 0
 699 104 513 -10 385 -10 c 0
 279 -10 76 18 76 300 c 2
 76 700 l 1
 206 700 l 1
 206 300 l 2
 206 54 323 40 391 40 c 0
 489 40 569 170 569 292 c 0
 569 517 513 591 449 700 c 1
EndSplineSet
Validated: 1
EndChar

StartChar: uni028B
Encoding: 651 651 622
Width: 571
VWidth: 0
Flags: W
HStem: -10 50<234.089 348.595> 387 59<297.864 326.715>
VStem: 70 125<92.9402 440> 387 125<107.111 312.979>
LayerCount: 2
Fore
SplineSet
282 387 m 1
 300 446 l 1
 377 428 512 381 512 212 c 0
 512 73 424 -10 289 -10 c 0
 149 -10 70 58 70 200 c 2
 70 440 l 1
 195 440 l 1
 195 212 l 2
 195 72 234 40 304 40 c 0
 361 40 387 117 387 211 c 0
 387 341 323 375 282 387 c 1
EndSplineSet
Validated: 1
EndChar

StartChar: uni01B7
Encoding: 439 439 625
Width: 573
VWidth: 0
Flags: W
HStem: -10 50<184.666 328.99> 382 50<351 370> 650 50<102 346>
VStem: 30 102<96.1351 159.48> 397 130<117.796 309.397>
AnchorPoint: "top" 275 700 basechar 0
LayerCount: 2
Fore
SplineSet
264 382 m 2
 186 382 l 1
 346 650 l 1
 102 650 l 1
 102 700 l 1
 510 700 l 1
 351 432 l 1
 427 432 527 346 527 202 c 0
 527 60 418 -10 278 -10 c 0
 130 -10 41 60 30 159 c 1
 132 166 l 1
 140 92 176 40 263 40 c 0
 342 40 397 124 397 202 c 0
 397 285 370 382 264 382 c 2
EndSplineSet
Validated: 1
EndChar

StartChar: uni0292
Encoding: 658 658 626
Width: 509
VWidth: 0
Flags: W
HStem: -200 50<143.941 294.343> 132 50<298 324> 390 50<69 293>
VStem: 344 125<-98.1154 83.1241>
AnchorPoint: "top" 240 490 basechar 0
LayerCount: 2
Fore
SplineSet
210 132 m 2
 153 132 l 1
 293 390 l 1
 54 390 l 1
 69 440 l 1
 457 440 l 1
 298 182 l 1
 374 182 469 126 469 -18 c 0
 469 -138 352 -200 235 -200 c 0
 96 -200 43 -152 16 -96 c 1
 104 -72 l 1
 123 -121 152 -150 220 -150 c 0
 299 -150 344 -96 344 -18 c 0
 344 65 324 132 210 132 c 2
EndSplineSet
Validated: 1
EndChar

StartChar: uni01E5
Encoding: 485 485 630
Width: 517
VWidth: 0
UnlinkRmOvrlpSave: 1
Flags: W
HStem: -170 50<176.52 281.74> -80 50<228 293 427 487> 20 50<208.276 310> 400 50<202.43 309.118> 420 20G<311 436>
VStem: 44 125<126.454 342.035> 311 125<73.1982 391.314 436 440>
LayerCount: 2
Fore
SplineSet
311 377 m 1xf6
 294 392 274 400 250 400 c 0
 196 400 169 345 169 235 c 0
 169 125 197 70 270 70 c 0
 285 70 299 72 311 76 c 1
 311 377 l 1xf6
436 440 m 1xee
 436 108 l 2
 436 53 434 7 427 -30 c 1
 487 -30 l 1
 487 -80 l 1
 413 -80 l 1
 387 -143 335 -170 231 -170 c 0
 176 -170 119 -149 73 -125 c 1
 148 -73 l 1
 180 -108 211 -120 246 -120 c 0
 268 -120 283 -105 293 -80 c 1
 228 -80 l 1
 228 -30 l 1
 305 -30 l 1
 307 -13 309 6 310 26 c 1
 293 22 274 20 255 20 c 0
 125 20 44 95 44 235 c 0
 44 375 135 450 235 450 c 0xf6
 263 450 288 445 311 436 c 1
 311 440 l 1
 436 440 l 1xee
EndSplineSet
EndChar

StartChar: uni0187
Encoding: 391 391 633
Width: 717
VWidth: 0
Flags: W
HStem: -10 50<300.002 458.656> 660 50<278.601 444.574> 667 50<616.244 716.252>
VStem: 50 130<215.477 494.263> 497 110<547 605.88>
LayerCount: 2
Fore
SplineSet
358 660 m 0xd8
 242 660 180 560 180 350 c 0
 180 130 282 40 377 40 c 0
 454 40 479 72 516 129 c 1
 610 102 l 1
 560 38 471 -10 362 -10 c 0
 232 -10 50 100 50 350 c 0
 50 600 212 710 343 710 c 0xd8
 413 710 482 701 531 675 c 1
 566 706 618 717 661 717 c 0
 699 717 736 703 762 672 c 1
 699 642 l 1
 685 662 665 667 646 667 c 0xb8
 610 667 607 629 607 547 c 1
 497 514 l 1
 497 622 442 660 358 660 c 0xd8
EndSplineSet
Validated: 1
EndChar

StartChar: uni0188
Encoding: 392 392 634
Width: 542
VWidth: 0
Flags: W
HStem: -10 50<215.43 339.108> 400 50<207.608 310.35> 450 50<445.769 545.252>
VStem: 44 125<114.669 320.966> 336 100<330 372.267>
LayerCount: 2
Fore
SplineSet
336 297 m 1
 320 357 320 400 265 400 c 0
 190 400 169 330 169 220 c 0
 169 110 190 40 285 40 c 0
 336 40 342 63 365 100 c 1
 455 77 l 1
 415 26 352 -10 270 -10 c 0
 140 -10 44 80 44 220 c 0
 44 360 150 450 250 450 c 0
 281 450 310 444 334 433 c 1
 370 480 440 500 490 500 c 0
 528 500 565 486 591 455 c 1
 528 425 l 1
 514 445 494 450 475 450 c 0
 440 450 436 414 436 330 c 1
 336 297 l 1
EndSplineSet
Validated: 1
EndChar

StartChar: uni0196
Encoding: 406 406 635
Width: 353
VWidth: 0
Flags: W
HStem: -10 50<217.065 300.806> 680 20G<84 209>
VStem: 84 125<54.355 700>
LayerCount: 2
Fore
SplineSet
84 700 m 25
 209 700 l 25
 209 160 l 6
 209 78 210 40 246 40 c 4
 265 40 270 45 284 65 c 5
 347 35 l 5
 321 4 279 -10 241 -10 c 4
 171 -10 84 28 84 127 c 6
 84 700 l 25
EndSplineSet
Validated: 1
EndChar

StartChar: uni0197
Encoding: 407 407 636
Width: 291
VWidth: 0
Flags: W
HStem: 0 21G<84 209> 390 50<23 84 209 270> 680 20G<84 209>
VStem: 84 125<0 390 440 700>
LayerCount: 2
Fore
SplineSet
23 390 m 1
 23 440 l 1
 84 440 l 1
 84 700 l 1
 209 700 l 1
 209 440 l 1
 270 440 l 1
 270 390 l 1
 209 390 l 1
 209 0 l 1
 84 0 l 1
 84 390 l 1
 23 390 l 1
EndSplineSet
Validated: 1
EndChar

StartChar: uni019F
Encoding: 415 415 637
Width: 701
VWidth: 0
Flags: W
HStem: -10 50<285.804 419.301> 325 50<180 523> 660 50<277.351 418.342>
VStem: 50 130<209.144 325 375 494.175> 523 130<205.721 325 375 494.279>
CounterMasks: 1 e0
LayerCount: 2
Fore
SplineSet
344 -10 m 0
 211 -10 50 100 50 350 c 0
 50 600 201 710 335 710 c 0
 498 710 653 600 653 350 c 0
 653 100 508 -10 344 -10 c 0
523 325 m 1
 180 325 l 1
 187 123 273 40 350 40 c 0
 444 40 517 132 523 325 c 1
523 375 m 1
 517 577 442 660 341 660 c 0
 255 660 185 568 180 375 c 1
 523 375 l 1
EndSplineSet
Validated: 1
EndChar

StartChar: uni01A4
Encoding: 420 420 638
Width: 670
VWidth: 0
Flags: W
HStem: 0 21G<223 353> 320 50<353 462.801> 448 21G<117 152.923> 650 50<175.633 223 353 462.801>
VStem: 20 116<503.899 614.511> 223 130<0 320 370 647> 515 130<425.964 594.036>
LayerCount: 2
Fore
SplineSet
353 650 m 1
 353 370 l 1
 398 370 l 2
 483 370 515 450 515 510 c 0
 515 570 483 650 398 650 c 2
 353 650 l 1
353 320 m 1
 353 0 l 1
 223 0 l 1
 223 647 l 5
 164 637 136 600 136 556 c 4
 136 512 151 508 164 500 c 5
 146 448 l 5
 88 456 20 486 20 551 c 4
 20 639 106 700 223 700 c 6
 428 700 l 2
 588 700 645 590 645 510 c 0
 645 430 586 320 428 320 c 2
 353 320 l 1
EndSplineSet
Validated: 1
EndChar

StartChar: uni01A5
Encoding: 421 421 639
Width: 531
VWidth: 0
Flags: W
HStem: -8 50<233.542 323.891> 402 50<228.886 329.254> 562 50<207.146 306.252>
VStem: 72 125<-200 4 88.6029 369.557 442 541.41> 364 125<123.62 324.66>
LayerCount: 2
Fore
SplineSet
72 475 m 2
 72 574 181 612 251 612 c 0
 289 612 326 598 352 567 c 1
 289 537 l 1
 275 557 255 562 236 562 c 0
 200 562 197 524 197 442 c 1
 221 449 247 452 277 452 c 0
 402 452 489 347 489 222 c 0
 489 97 391 -8 267 -8 c 0
 241 -8 218 -4 197 4 c 1
 197 -200 l 1
 72 -200 l 1
 72 475 l 2
197 246 m 0
 197 154 204 42 282 42 c 0
 344 42 364 137 364 222 c 0
 364 307 350 402 292 402 c 0
 209 402 197 342 197 246 c 0
EndSplineSet
Validated: 1
EndChar

StartChar: uni01A9
Encoding: 425 425 640
Width: 570
VWidth: 0
Flags: W
HStem: 0 50<212 542> 650 50<217 522>
LayerCount: 2
Fore
SplineSet
217 650 m 1
 420 354 l 1
 212 50 l 1
 542 50 l 1
 542 0 l 1
 30 0 l 1
 268 354 l 1
 34 700 l 1
 522 700 l 1
 537 650 l 1
 217 650 l 1
EndSplineSet
Validated: 1
EndChar

StartChar: uni01B1
Encoding: 433 433 641
Width: 765
VWidth: 0
Flags: W
HStem: -10 50<297.906 463.726> 580 120<282.801 322 439 478.199> 650 50<122 197 564 639>
VStem: 70 125<191.382 436.237> 197 125<582.168 650> 439 125<582.168 650> 566 125<191.382 436.237>
LayerCount: 2
Fore
SplineSet
381 -10 m 0xbe
 253 -10 70 86 70 318 c 0
 70 440 141 551 197 605 c 1
 197 650 l 1
 122 650 l 1
 122 700 l 1xbe
 322 700 l 1
 322 580 l 1
 248 560 195 441 195 318 c 0
 195 132 272 40 381 40 c 0
 489 40 566 132 566 318 c 0
 566 441 513 560 439 580 c 1
 439 700 l 1xde
 639 700 l 1
 639 650 l 1
 564 650 l 1
 564 605 l 1
 620 551 691 440 691 318 c 0
 691 86 509 -10 381 -10 c 0xbe
EndSplineSet
Validated: 1
EndChar

StartChar: uni0268
Encoding: 616 616 642
Width: 295
VWidth: 0
Flags: W
HStem: 0 21G<87 212> 253 50<22 87 212 274> 420 20G<87 212> 520 80<97 202>
VStem: 87 125<0 253 303 440> 97 105<520 600>
LayerCount: 2
Fore
SplineSet
22 253 m 1xf8
 22 303 l 1
 87 303 l 1
 87 440 l 1
 212 440 l 1
 212 303 l 1
 274 303 l 1
 274 253 l 1
 212 253 l 1
 212 0 l 1
 87 0 l 1
 87 253 l 1
 22 253 l 1xf8
97 600 m 1xf4
 202 600 l 1
 202 520 l 1
 97 520 l 1
 97 600 l 1xf4
EndSplineSet
Validated: 1
EndChar

StartChar: uni0269
Encoding: 617 617 643
Width: 353
VWidth: 0
Flags: W
HStem: -10 50<218.825 275.44> 390 50<44 84>
VStem: 84 125<47.9219 390> 285 56<46.5751 115>
LayerCount: 2
Fore
SplineSet
236 -10 m 0
 143 -10 84 24 84 152 c 2
 84 390 l 1
 44 390 l 1
 44 440 l 1
 209 440 l 1
 209 160 l 2
 209 83 214 40 245 40 c 0
 270 40 285 61 285 115 c 1
 341 115 l 1
 341 32 314 -10 236 -10 c 0
EndSplineSet
Validated: 1
EndChar

StartChar: uni0275
Encoding: 629 629 644
Width: 516
VWidth: 0
Flags: W
HStem: -10 50<208.4 314.729> 195 50<169 349> 400 50<208.517 314.169>
VStem: 44 125<104.619 195 245 320.229> 349 125<108.627 195 245 331.373>
CounterMasks: 1 e0
LayerCount: 2
Fore
SplineSet
474 220 m 0
 474 66 380 -10 250 -10 c 0
 120 -10 44 80 44 220 c 0
 44 360 150 450 250 450 c 0
 380 450 474 374 474 220 c 0
349 195 m 1
 169 195 l 1
 172 100 193 40 265 40 c 0
 329 40 347 103 349 195 c 1
169 245 m 1
 349 245 l 1
 346 337 327 400 265 400 c 0
 197 400 172 340 169 245 c 1
EndSplineSet
Validated: 1
EndChar

StartChar: uni0283
Encoding: 643 643 645
Width: 360
VWidth: 0
Flags: W
HStem: -10 50<36.7483 135.854> 620 50<280.695 349.654>
VStem: 146 125<60.5902 606.968>
LayerCount: 2
Fore
SplineSet
271 127 m 2
 271 28 162 -10 92 -10 c 0
 54 -10 17 4 -9 35 c 1
 54 65 l 1
 68 45 88 40 107 40 c 0
 143 40 146 78 146 160 c 2
 146 535 l 2
 146 615 213 670 293 670 c 0
 322 670 345 666 364 659 c 1
 343 605 l 1
 335 615 325 620 308 620 c 0
 280 620 271 597 271 509 c 2
 271 127 l 2
EndSplineSet
Validated: 1
EndChar

StartChar: uni028A
Encoding: 650 650 646
Width: 605
VWidth: 0
Flags: W
HStem: -10 50<231.696 374.304> 326 114<243.207 273 333 362.793> 390 50<91 148 458 515>
VStem: 60 125<86.7483 256.527> 148 125<325.859 390> 333 125<325.859 390> 421 125<86.7483 256.527>
LayerCount: 2
Fore
SplineSet
303 -10 m 0xa2
 116 -10 60 90 60 163 c 0xb2
 60 267 122 325 148 344 c 1
 148 390 l 1
 91 390 l 1
 91 440 l 1xa8
 273 440 l 1
 273 326 l 1xc8
 273 326 185 287 185 162 c 0
 185 89 231 40 303 40 c 0
 375 40 421 89 421 162 c 0xd2
 421 287 333 326 333 326 c 1
 333 440 l 1xc4
 515 440 l 1
 515 390 l 1
 458 390 l 1
 458 344 l 1xa4
 484 325 546 267 546 163 c 0
 546 90 490 -10 303 -10 c 0xa2
EndSplineSet
Validated: 1
EndChar

StartChar: uni018F
Encoding: 399 399 652
Width: 706
VWidth: 0
Flags: W
HStem: -10 50<273.66 416.218> 300 50<172 534> 660 50<275.464 437.399>
VStem: 534 132<214.734 300 350 494.247>
LayerCount: 2
Fore
SplineSet
534 300 m 1
 172 300 l 1
 185 116 266 40 340 40 c 0
 427 40 520 116 534 300 c 1
536 350 m 1
 536 560 474 660 358 660 c 0
 274 660 252 622 219 575 c 1
 109 608 l 1
 155 665 237 710 373 710 c 0
 504 710 666 600 666 350 c 0
 666 100 475 -10 344 -10 c 0
 211 -10 40 100 40 350 c 1
 536 350 l 1
EndSplineSet
Validated: 1
EndChar

StartChar: uni019E
Encoding: 414 414 653
Width: 531
VWidth: 0
Flags: W
HStem: 0 21G<72 197> 400 50<197.701 314.268>
VStem: 72 125<0 391.817> 338 125<-200 351.628>
AnchorPoint: "cedilla" 264 0 basechar 0
AnchorPoint: "top" 268 490 basechar 0
LayerCount: 2
Fore
SplineSet
188 440 m 1
 204 445 234 450 254 450 c 0
 394 450 463 382 463 240 c 2
 463 -200 l 1
 338 -200 l 1
 338 228 l 2
 338 368 316 400 269 400 c 0
 243 400 219 394 197 383 c 1
 197 0 l 1
 72 0 l 1
 72 440 l 1
 188 440 l 1
EndSplineSet
Validated: 1048577
EndChar

StartChar: uni0220
Encoding: 544 544 654
Width: 681
VWidth: 0
Flags: W
HStem: 0 21G<72 202> 660 50<267.127 432.903> 680 20G<72 202>
VStem: 72 130<0 610.86 666 700> 487 130<-199 587.726>
LayerCount: 2
Fore
SplineSet
72 0 m 9xd8
 72 700 l 1
 202 700 l 1xb8
 202 666 l 1
 233 682 269 710 342 710 c 0
 482 710 617 642 617 500 c 2
 617 -199 l 17
 487 -199 l 9
 487 488 l 2
 487 628 427 660 357 660 c 0
 285 660 235 623 202 594 c 1
 202 0 l 17
 72 0 l 9xd8
EndSplineSet
Validated: 1
EndChar

StartChar: uni01A2
Encoding: 418 418 655
Width: 902
VWidth: 0
Flags: W
HStem: -10 50<286.381 420.627> 555 50<621.444 685.935> 660 50<276.102 418.913>
VStem: 50 130<207.236 494.263> 523 130<202.207 498.662> 694 125<-200 540.645>
LayerCount: 2
Fore
SplineSet
819 -200 m 1
 694 -200 l 1
 694 435 l 2
 694 517 693 555 657 555 c 0
 638 555 633 550 619 530 c 1
 641 481 653 421 653 350 c 0
 653 100 508 -10 344 -10 c 0
 211 -10 50 100 50 350 c 0
 50 600 201 710 335 710 c 0
 432 710 527 671 587 586 c 1
 610 599 637 605 662 605 c 0
 732 605 819 567 819 468 c 2
 819 -200 l 1
341 660 m 0
 251 660 180 560 180 350 c 0
 180 130 270 40 350 40 c 0
 448 40 523 140 523 350 c 0
 523 570 446 660 341 660 c 0
EndSplineSet
Validated: 1
EndChar

StartChar: uni01A3
Encoding: 419 419 656
Width: 720
VWidth: 0
Flags: W
HStem: -10 50<207.713 314.523> 365 50<451.601 515.935> 400 50<207.83 313.864>
VStem: 44 125<104.505 320.966> 349 125<109 345.232> 524 125<-200 350.645>
LayerCount: 2
Fore
SplineSet
649 -200 m 1xdc
 524 -200 l 1
 524 245 l 2
 524 327 523 365 487 365 c 0xdc
 468 365 463 360 449 340 c 1
 465 307 474 267 474 220 c 0
 474 66 380 -10 250 -10 c 0
 120 -10 44 80 44 220 c 0
 44 360 150 450 250 450 c 0xbc
 315 450 371 431 411 392 c 1
 435 408 465 415 492 415 c 0
 562 415 649 377 649 278 c 2
 649 -200 l 1xdc
349 220 m 0
 349 326 332 400 265 400 c 0xbc
 191 400 169 330 169 220 c 0
 169 110 187 40 265 40 c 0
 335 40 349 114 349 220 c 0
EndSplineSet
Validated: 1
EndChar

StartChar: uni01AC
Encoding: 428 428 657
Width: 716
VWidth: 0
Flags: W
HStem: 0 21G<294 424> 448 21G<117 152.923> 650 50<175.633 294 424 651>
VStem: 20 116<503.899 612.852> 294 130<0 650>
LayerCount: 2
Fore
SplineSet
653 700 m 1
 651 650 l 1
 424 650 l 1
 424 0 l 1
 294 0 l 1
 294 650 l 1
 233 650 l 2
 174 650 136 600 136 556 c 0
 136 512 151 508 164 500 c 1
 146 448 l 1
 88 456 20 486 20 551 c 0
 20 639 106 700 223 700 c 2
 653 700 l 1
EndSplineSet
Validated: 1
EndChar

StartChar: uni01AE
Encoding: 430 430 658
Width: 625
VWidth: 0
Flags: W
HStem: -170 50<387.915 487.252> 650 50<20 248 378 605>
VStem: 248 130<-99.2599 650>
LayerCount: 2
Fore
SplineSet
248 650 m 1
 20 650 l 1
 20 700 l 1
 607 700 l 1
 605 650 l 1
 378 650 l 1
 378 0 l 2
 378 -82 381 -120 417 -120 c 0
 436 -120 456 -115 470 -95 c 1
 533 -125 l 1
 507 -156 470 -170 432 -170 c 0
 362 -170 248 -132 248 -33 c 2
 248 650 l 1
EndSplineSet
Validated: 1
EndChar

StartChar: uni01AD
Encoding: 429 429 659
Width: 323
VWidth: 0
Flags: W
HStem: -10 50<224.065 307.806> 390 50<41 92 217 295> 617 50<227.146 326.252>
VStem: 92 125<51.3567 390 440 596.41>
LayerCount: 2
Fore
SplineSet
217 440 m 1
 295 440 l 1
 295 390 l 1
 217 390 l 1
 216 160 l 2
 216 78 217 40 253 40 c 0
 272 40 277 45 291 65 c 1
 354 35 l 1
 328 4 286 -10 248 -10 c 0
 178 -10 91 28 91 127 c 2
 92 390 l 1
 26 390 l 1
 41 440 l 1
 92 440 l 1
 92 530 l 2
 92 629 201 667 271 667 c 0
 309 667 346 653 372 622 c 1
 309 592 l 1
 295 612 275 617 256 617 c 0
 220 617 217 579 217 497 c 2
 217 440 l 1
EndSplineSet
Validated: 1
EndChar

StartChar: uni0288
Encoding: 648 648 660
Width: 321
VWidth: 0
Flags: W
HStem: -170 50<227.146 326.252> 390 50<41 92 217 295>
VStem: 92 125<-99.4098 390 440 585>
LayerCount: 2
Fore
SplineSet
92 390 m 1
 26 390 l 1
 41 440 l 1
 92 440 l 1
 92 585 l 1
 217 600 l 1
 217 440 l 1
 295 440 l 1
 295 390 l 1
 217 390 l 1
 217 0 l 2
 217 -82 220 -120 256 -120 c 0
 275 -120 295 -115 309 -95 c 1
 372 -125 l 1
 346 -156 309 -170 271 -170 c 0
 201 -170 92 -132 92 -33 c 2
 92 390 l 1
EndSplineSet
Validated: 1
EndChar

StartChar: uni01B5
Encoding: 437 437 661
Width: 508
VWidth: 0
Flags: W
HStem: 0 50<177 480> 340 50<110 186 333 402> 650 50<50 328>
LayerCount: 2
Fore
SplineSet
328 650 m 1
 35 650 l 1
 50 700 l 1
 476 700 l 1
 333 390 l 1
 402 390 l 1
 402 340 l 1
 310 340 l 1
 177 50 l 1
 480 50 l 1
 480 0 l 1
 30 0 l 1
 186 340 l 1
 110 340 l 1
 110 390 l 1
 209 390 l 1
 328 650 l 1
EndSplineSet
Validated: 1
EndChar

StartChar: uni01B6
Encoding: 438 438 662
Width: 420
VWidth: 0
Flags: W
HStem: 0 50<172 402> 203 50<75 145 290 352> 390 50<36 254>
LayerCount: 2
Fore
SplineSet
254 390 m 1
 21 390 l 1
 36 440 l 1
 399 440 l 1
 290 253 l 1
 352 253 l 1
 352 203 l 1
 261 203 l 1
 172 50 l 1
 402 50 l 1
 402 0 l 1
 26 0 l 1
 145 203 l 1
 75 203 l 1
 75 253 l 1
 174 253 l 1
 254 390 l 1
EndSplineSet
Validated: 1
EndChar

StartChar: uni01C2
Encoding: 450 450 665
Width: 346
VWidth: 0
Flags: W
HStem: 0 21G<133 213> 280 50<40 133 213 306> 390 50<40 133 213 306> 680 20G<133 213>
VStem: 133 80<0 280 330 390 440 700>
LayerCount: 2
Fore
SplineSet
133 280 m 1
 40 280 l 1
 40 330 l 1
 133 330 l 1
 133 390 l 1
 40 390 l 1
 40 440 l 1
 133 440 l 1
 133 700 l 1
 213 700 l 1
 213 440 l 1
 306 440 l 1
 306 390 l 1
 213 390 l 1
 213 330 l 1
 306 330 l 1
 306 280 l 1
 213 280 l 1
 213 0 l 1
 133 0 l 1
 133 280 l 1
EndSplineSet
Validated: 1
EndChar

StartChar: uni0222
Encoding: 546 546 697
Width: 630
VWidth: 0
Flags: W
HStem: -10 50<237.723 401.555> 660 50<233.941 282 352 397.005>
VStem: 45 125<110.024 258.81> 69 125<483.492 603.016> 445 125<466.628 600.225> 460 125<106.154 242.983>
LayerCount: 2
Fore
SplineSet
352 710 m 1xd8
 444 710 570 630 570 530 c 0xd8
 570 435 503 399 424 373 c 1
 509 333 585 281 585 178 c 0
 585 70 453 -10 308 -10 c 0
 175 -10 45 78 45 178 c 0xe4
 45 286 124 332 212 365 c 1
 135 400 69 447 69 538 c 0
 69 626 190 710 282 710 c 1
 282 660 l 1
 236 660 194 606 194 538 c 0
 194 475 260 443 338 410 c 1
 399 435 445 468 445 530 c 0
 445 596 396 660 352 660 c 1
 352 710 l 1xd8
292 332 m 1
 224 306 170 266 170 178 c 0
 170 102 231 40 315 40 c 0
 411 40 460 92 460 178 c 0xe4
 460 261 380 297 292 332 c 1
EndSplineSet
Validated: 1
EndChar

StartChar: uni0223
Encoding: 547 547 698
Width: 570
VWidth: 0
Flags: W
HStem: -10 50<223.514 348.066> 550 49<200.629 267.424> 600 50<312 364.436>
VStem: 45 125<98.6551 252.127> 69 125<439.692 543.225> 385 125<447.349 576.527> 400 125<94.2403 246.662>
LayerCount: 2
Fore
SplineSet
312 650 m 1xec
 404 650 510 608 510 508 c 0xec
 510 429 451 393 382 363 c 1
 457 331 525 285 525 178 c 0
 525 50 416 -10 278 -10 c 0
 164 -10 45 50 45 178 c 0xf2
 45 271 114 314 190 348 c 1
 125 375 69 411 69 488 c 0
 69 559 161 599 228 599 c 0
 244 599 260 597 277 592 c 1
 264 544 l 1
 251 548 240 550 230 550 c 0
 207 550 194 536 194 488 c 0
 194 440 239 418 296 396 c 1
 347 422 385 454 385 508 c 0
 385 574 356 600 312 600 c 1
 312 650 l 1xec
272 316 m 1
 215 287 170 250 170 178 c 0
 170 102 220 40 285 40 c 0
 350 40 400 92 400 178 c 0xf2
 400 255 341 288 272 316 c 1
EndSplineSet
Validated: 1
EndChar

StartChar: uni0241
Encoding: 577 577 709
Width: 546
VWidth: 0
Flags: W
HStem: 0 21G<110 235> 272 48<235 304.071> 620 50<146.652 318.834>
VStem: 110 125<0 272> 376 125<390.823 556.936>
LayerCount: 2
Fore
SplineSet
235 0 m 1
 110 0 l 1
 110 320 l 1
 213 320 l 2
 288 320 376 356 376 466 c 0
 376 576 325 620 230 620 c 0
 148 620 111 575 88 538 c 1
 30 583 l 1
 70 634 163 670 245 670 c 0
 375 670 501 606 501 466 c 0
 501 340 345 272 235 272 c 1
 235 0 l 1
EndSplineSet
Validated: 1
EndChar

StartChar: uni0242
Encoding: 578 578 710
Width: 486
VWidth: 0
Flags: W
HStem: 0 120<110 234.877> 72 48<235 250> 400 50<148.31 273.032>
VStem: 110 125<0 72> 316 125<173.448 346.236>
LayerCount: 2
Fore
SplineSet
235 0 m 1xb8
 110 0 l 1
 110 120 l 1
 175 120 l 2xb8
 250 120 316 146 316 256 c 0
 316 366 264 400 210 400 c 0
 150 400 125 355 102 318 c 1
 30 353 l 1
 70 404 143 450 225 450 c 0
 325 450 441 396 441 256 c 0
 441 130 321 72 235 72 c 1x78
 235 0 l 1xb8
EndSplineSet
Validated: 1
EndChar

StartChar: uni0251
Encoding: 593 593 711
Width: 600
VWidth: 0
Flags: W
HStem: -10 50<233.606 375.598 474 557.684> 400 50<227.226 343.694> 420 20G<368 488>
VStem: 44 120<114.669 327.089> 368 120<62.6101 375.527 434 440> 558 34<44.4025 64>
LayerCount: 2
Fore
SplineSet
488 440 m 1xbc
 488 135 l 2
 488 71 502 40 525 40 c 0
 541 40 558 49 558 64 c 1
 592 64 l 1
 592 25 569 -10 492 -10 c 0
 456 -10 426 1 404 21 c 1
 377 1 354 -10 295 -10 c 0
 128 -10 44 80 44 220 c 0
 44 360 130 450 275 450 c 0xdc
 309 450 341 444 368 434 c 1
 368 440 l 1
 488 440 l 1xbc
368 338 m 1
 353 376 331 400 290 400 c 0
 215 400 164 330 164 220 c 0
 164 110 215 40 310 40 c 0
 340 40 360 48 376 62 c 1
 371 75 368 89 368 104 c 2
 368 338 l 1
EndSplineSet
Validated: 1
EndChar

StartChar: uni2C6D
Encoding: 11373 11373 712
Width: 706
VWidth: 0
Flags: W
HStem: -10 50<327.92 521.957 657.229 740.276> 660 50<312.434 501.797> 680 20G<519 649>
VStem: 50 130<215.477 486.149> 519 130<67.7991 640.411 693 700>
LayerCount: 2
Fore
SplineSet
519 700 m 1xb8
 649 700 l 1xb8
 649 160 l 2
 649 78 650 40 686 40 c 0
 705 40 710 45 724 65 c 1
 787 35 l 1
 761 4 714 -10 676 -10 c 0
 638 -10 595 1 564 27 c 1
 520 4 466 -10 407 -10 c 0
 234 -10 50 100 50 350 c 0
 50 600 234 710 388 710 c 0xd8
 439 710 482 704 519 693 c 1
 519 700 l 1xb8
519 629 m 1
 488 648 450 660 403 660 c 0xd8
 278 660 180 560 180 350 c 0
 180 130 306 40 422 40 c 0
 464 40 501 49 532 67 c 1
 524 84 519 104 519 127 c 2
 519 629 l 1
EndSplineSet
Validated: 1
EndChar

StartChar: uni019C
Encoding: 412 412 713
Width: 950
VWidth: 0
Flags: W
HStem: -10 50<244.809 367.81 577.596 691.381> 0 21G<743 868> 640 20G<84 209 415 540 743 868>
VStem: 84 125<97.6146 660> 415 125<92.3961 660> 743 125<0 42 98.3819 660>
LayerCount: 2
Fore
SplineSet
868 660 m 1xbc
 868 0 l 1
 743 0 l 1x7c
 743 42 l 1
 726 18 706 -10 645 -10 c 0
 548 -10 505 14 471 62 c 1
 425 8 357 -10 312 -10 c 0
 172 -10 84 58 84 200 c 2
 84 660 l 1
 209 660 l 1
 209 212 l 2
 209 76 246 40 297 40 c 0
 369 40 415 84 415 200 c 2
 415 660 l 1
 540 660 l 1
 540 212 l 2
 540 76 578 40 630 40 c 0
 702 40 728 104 743 146 c 1
 743 660 l 1
 868 660 l 1xbc
EndSplineSet
Validated: 1
EndChar

StartChar: uni026F
Encoding: 623 623 714
Width: 818
VWidth: 0
Flags: W
HStem: -10 50<226.278 343.512 498.071 624.143> 420 20G<72 197 344 469 625 750>
VStem: 72 125<77.4348 440> 344 125<70.2717 440> 625 125<44.2305 440>
LayerCount: 2
Fore
SplineSet
625 52 m 1
 625 440 l 1
 750 440 l 1
 750 0 l 1
 635 0 l 1
 614 -7 592 -10 569 -10 c 0
 506 -10 452 4 419 32 c 1
 386 8 347 -10 306 -10 c 0
 166 -10 72 33 72 175 c 2
 72 440 l 1
 197 440 l 1
 197 196 l 2
 197 63 226 40 291 40 c 0
 311 40 329 43 344 50 c 1
 344 440 l 1
 469 440 l 1
 469 196 l 2
 469 63 498 40 568 40 c 0
 590 40 608 44 625 52 c 1
EndSplineSet
Validated: 1
EndChar

StartChar: uni0271
Encoding: 625 625 715
Width: 818
VWidth: 0
Flags: W
HStem: -170 50<515.748 614.854> 0 21G<72 197 353 478> 400 50<197.857 323.929 478.488 595.722>
VStem: 72 125<0 395.77> 353 125<0 369.728> 625 125<-99.4098 362.565>
LayerCount: 2
Fore
SplineSet
750 -33 m 2
 750 -132 641 -170 571 -170 c 0
 533 -170 496 -156 470 -125 c 1
 533 -95 l 1
 547 -115 567 -120 586 -120 c 0
 622 -120 625 -82 625 0 c 2
 625 244 l 2
 625 377 596 400 531 400 c 0
 511 400 493 397 478 390 c 1
 478 0 l 1
 353 0 l 1
 353 244 l 2
 353 377 324 400 254 400 c 0
 232 400 214 396 197 388 c 1
 197 0 l 1
 72 0 l 1
 72 440 l 1
 187 440 l 1
 208 447 230 450 253 450 c 0
 316 450 370 436 403 408 c 1
 436 432 475 450 516 450 c 0
 656 450 750 407 750 265 c 2
 750 -33 l 2
EndSplineSet
Validated: 1
EndChar

StartChar: uni2C6E
Encoding: 11374 11374 716
Width: 794
VWidth: 0
Flags: W
HStem: -170 50<471.748 571.085> 0 21G<85 215> 680 20G<85 224.337 571.663 711>
VStem: 85 130<0 511> 581 130<-99.2599 511>
LayerCount: 2
Fore
SplineSet
711 -33 m 2
 711 -132 597 -170 527 -170 c 0
 489 -170 452 -156 426 -125 c 1
 489 -95 l 1
 503 -115 523 -120 542 -120 c 0
 578 -120 581 -82 581 0 c 2
 581 511 l 1
 398 121 l 1
 215 511 l 1
 215 0 l 1
 85 0 l 1
 85 700 l 1
 215 700 l 1
 398 308 l 1
 581 700 l 1
 711 700 l 1
 711 -33 l 2
EndSplineSet
Validated: 1
EndChar

StartChar: uni027D
Encoding: 637 637 717
Width: 376
VWidth: 0
Flags: W
HStem: -170 50<207.146 306.252> 400 50<218.591 360.813> 420 20G<72 197>
VStem: 72 125<-99.4098 377.802 427 440>
LayerCount: 2
Fore
SplineSet
72 440 m 1xb0
 197 440 l 1xb0
 197 427 l 1
 222 442 246 450 281 450 c 0
 318 450 348 445 373 436 c 1
 373 362 l 1
 358 391 325 400 288 400 c 0xd0
 246 400 221 384 197 359 c 1
 197 0 l 2
 197 -82 200 -120 236 -120 c 0
 255 -120 275 -115 289 -95 c 1
 352 -125 l 1
 326 -156 289 -170 251 -170 c 0
 181 -170 72 -132 72 -33 c 2
 72 440 l 1xb0
EndSplineSet
Validated: 1
EndChar

StartChar: uni0244
Encoding: 580 580 718
Width: 685
VWidth: 0
Flags: W
HStem: -10 50<275.47 414.062> 340 50<28 76 206 479 609 657> 680 20G<76 206 479 609>
VStem: 76 130<160.097 340 390 700> 479 130<145.107 340 390 700>
LayerCount: 2
Fore
SplineSet
28 340 m 1
 28 390 l 1
 76 390 l 1
 76 700 l 1
 206 700 l 1
 206 390 l 1
 479 390 l 1
 479 700 l 1
 609 700 l 1
 609 390 l 1
 657 390 l 1
 657 340 l 1
 609 340 l 1
 609 298 l 2
 609 48 484 -10 340 -10 c 0
 234 -10 76 48 76 298 c 2
 76 340 l 1
 28 340 l 1
479 340 m 1
 206 340 l 1
 206 298 l 2
 206 78 278 40 346 40 c 0
 422 40 479 88 479 298 c 2
 479 340 l 1
EndSplineSet
Validated: 1
EndChar

StartChar: uni0289
Encoding: 649 649 719
Width: 521
VWidth: 0
Flags: W
HStem: -10 50<220.855 335.515> 203 50<33 70 195 336 461 498> 420 20G<70 195 336 461>
VStem: 70 125<79.3555 203 253 440> 336 125<44.2305 203 253 440>
LayerCount: 2
Fore
SplineSet
33 203 m 1
 33 253 l 1
 70 253 l 1
 70 440 l 1
 195 440 l 1
 195 253 l 1
 336 253 l 1
 336 440 l 1
 461 440 l 1
 461 253 l 1
 498 253 l 1
 498 203 l 1
 461 203 l 1
 461 0 l 1
 337 0 l 1
 312 -7 287 -10 264 -10 c 0
 109 -10 70 75 70 203 c 1
 33 203 l 1
195 203 m 1
 196 71 211 40 279 40 c 0
 301 40 319 44 336 52 c 1
 336 203 l 1
 195 203 l 1
EndSplineSet
Validated: 1
EndChar

StartChar: uni028C
Encoding: 652 652 720
Width: 415
VWidth: 0
Flags: W
HStem: 0 21G<9 96.2603 293.74 409> 420 20G<161.727 256.273>
AnchorPoint: "bottom" 210 0 basechar 0
AnchorPoint: "top" 211 490 basechar 0
LayerCount: 2
Fore
SplineSet
195 292 m 1
 89 0 l 1
 9 0 l 1
 169 440 l 1
 249 440 l 1
 409 0 l 1
 301 0 l 1
 195 292 l 1
EndSplineSet
Validated: 1048577
EndChar

StartChar: uni0245
Encoding: 581 581 721
Width: 634
VWidth: 0
Flags: W
HStem: 0 21G<19 141.287 494.713 617> 680 20G<266.714 369.286>
AnchorPoint: "bottom" 316 0 basechar 0
AnchorPoint: "top" 318 700 basechar 0
LayerCount: 2
Fore
SplineSet
318 505 m 1
 134 0 l 1
 19 0 l 1
 274 700 l 1
 362 700 l 1
 617 0 l 1
 502 0 l 1
 318 505 l 1
EndSplineSet
Validated: 1048577
EndChar

StartChar: uni2C64
Encoding: 11364 11364 723
Width: 556
VWidth: 0
Flags: W
HStem: -170 50<224.915 324.252> 0 21G<405 532> 320 50<215 265.073> 650 50<215 324.801>
VStem: 85 130<-99.2599 320 370 650> 377 130<425.554 594.036> 405 127<0 98.4018>
LayerCount: 2
Fore
SplineSet
215 0 m 2xfa
 215 -82 218 -120 254 -120 c 0
 273 -120 293 -115 307 -95 c 1
 370 -125 l 1
 344 -156 307 -170 269 -170 c 0
 199 -170 85 -132 85 -33 c 2
 85 700 l 1
 290 700 l 2
 450 700 507 590 507 510 c 0xfc
 507 447 471 366 379 334 c 1
 445 272 532 95 532 0 c 1
 405 0 l 1
 405 93 318 264 244 320 c 1
 215 320 l 1
 215 0 l 2xfa
215 650 m 1
 215 370 l 1
 260 370 l 2
 345 370 377 450 377 510 c 0
 377 570 345 650 260 650 c 2
 215 650 l 1
EndSplineSet
Validated: 1
EndChar

StartChar: uni048A
Encoding: 1162 1162 742
Width: 787
VWidth: 0
Flags: W
HStem: 0 50<654 666> 680 20G<85 215 524 654> 700 67<309.316 428.684>
VStem: 85 130<0 45 196 700> 256 38<786.041 796.684> 444 38<786.041 796.684> 524 130<50 503 655 700>
LayerCount: 2
Fore
SplineSet
215 0 m 1
 85 0 l 1
 85 700 l 1
 215 700 l 1
 215 196 l 1
 524 655 l 1
 524 700 l 1
 654 700 l 1
 654 50 l 5
 760 50 l 5
 686 -124 l 5
 640 -124 l 5
 666 0 l 5
 524 0 l 5
 524 503 l 1
 215 45 l 1
 215 0 l 1
369 767 m 0
 406 767 441 791 444 813 c 1
 482 793 l 1
 476 743 427 700 369 700 c 0
 311 700 262 743 256 793 c 1
 294 813 l 1
 297 791 332 767 369 767 c 0
EndSplineSet
Validated: 1
EndChar

StartChar: uni048B
Encoding: 1163 1163 743
Width: 637
VWidth: 0
Flags: W
HStem: 0 50<501 516> 420 20G<60 185 376 501> 530 67<204.316 323.684>
VStem: 60 125<0 30 142 440> 151 38<616.041 626.684> 339 38<616.041 626.684> 376 125<50 295 408 440>
LayerCount: 2
Fore
SplineSet
264 597 m 0xec
 301 597 336 621 339 643 c 1
 377 623 l 1
 371 573 322 530 264 530 c 0
 206 530 157 573 151 623 c 1
 189 643 l 1
 192 621 227 597 264 597 c 0xec
60 440 m 1xf2
 185 440 l 1
 185 142 l 1
 376 408 l 1
 376 440 l 1
 501 440 l 1
 501 50 l 5
 610 50 l 5
 536 -124 l 5
 490 -124 l 5
 516 0 l 5
 376 0 l 5
 376 295 l 1
 185 30 l 1
 185 0 l 1
 60 0 l 1
 60 440 l 1xf2
EndSplineSet
Validated: 1
EndChar

StartChar: uni048C
Encoding: 1164 1164 744
Width: 563
VWidth: 0
Flags: W
HStem: 0 50<246 344.531> 390 50<246 345.176> 530 50<40 116 246 327> 680 20G<116 246>
VStem: 116 130<50 390 440 530 580 700> 408 130<126.983 311.333>
LayerCount: 2
Fore
SplineSet
538 223 m 0
 538 123 474 0 316 0 c 2
 116 0 l 1
 116 530 l 1
 40 530 l 1
 40 580 l 1
 116 580 l 1
 116 700 l 1
 246 700 l 1
 246 580 l 1
 327 580 l 1
 327 530 l 1
 246 530 l 1
 246 440 l 1
 314 440 l 2
 451 440 538 325 538 223 c 0
246 390 m 1
 246 50 l 1
 286 50 l 2
 371 50 408 153 408 223 c 0
 408 293 371 390 286 390 c 2
 246 390 l 1
EndSplineSet
Validated: 1
EndChar

StartChar: uni048D
Encoding: 1165 1165 745
Width: 495
VWidth: 0
Flags: W
HStem: 0 50<228 311.267> 215 50<228 310.406> 318 50<25 103 228 305> 420 20G<103 228>
VStem: 103 125<50 215 265 318 368 440> 338 125<73.795 188.21>
LayerCount: 2
Fore
SplineSet
463 129 m 0
 463 68 428 0 270 0 c 2
 103 0 l 1
 103 318 l 1
 25 318 l 5
 25 368 l 5
 103 368 l 1
 103 440 l 1
 228 440 l 1
 228 368 l 1
 305 368 l 5
 305 318 l 5
 228 318 l 1
 228 265 l 1
 268 265 l 2
 406 265 463 226 463 129 c 0
228 215 m 1
 228 50 l 1
 245 50 l 2
 308 50 338 81 338 129 c 0
 338 177 312 215 235 215 c 2
 228 215 l 1
EndSplineSet
Validated: 1
EndChar

StartChar: uni048E
Encoding: 1166 1166 746
Width: 532
VWidth: 0
Flags: W
HStem: 0 21G<85 215> 320 50<215 289> 650 50<215 324.801>
VStem: 85 130<0 320 370 650> 377 130<424.971 594.036>
LayerCount: 2
Fore
SplineSet
215 650 m 1
 215 370 l 1
 260 370 l 2
 271 370 280 371 289 373 c 1
 244 415 l 1
 317 475 l 1
 353 421 l 1
 370 448 377 481 377 510 c 0
 377 570 345 650 260 650 c 2
 215 650 l 1
215 320 m 1
 215 0 l 1
 85 0 l 1
 85 700 l 1
 290 700 l 2
 450 700 507 590 507 510 c 0
 507 453 477 381 403 344 c 1
 438 291 l 1
 407 265 l 1
 342 324 l 1
 326 321 309 320 290 320 c 2
 215 320 l 1
EndSplineSet
Validated: 1
EndChar

StartChar: uni048F
Encoding: 1167 1167 747
Width: 531
VWidth: 0
Flags: W
HStem: -8 50<233.542 312.278> 402 50<228.578 329.254>
VStem: 72 125<-200 4 88.6029 369.557> 364 125<123.527 324.66>
LayerCount: 2
Fore
SplineSet
197 246 m 0
 197 154 204 42 282 42 c 0
 294 42 304 45 313 51 c 1
 248 111 l 1
 321 171 l 1
 353 122 l 1
 361 152 364 188 364 222 c 0
 364 307 350 402 292 402 c 0
 209 402 197 342 197 246 c 0
197 4 m 1
 197 -200 l 1
 72 -200 l 1
 72 442 l 1
 196 442 l 1
 220 449 247 452 277 452 c 0
 402 452 489 347 489 222 c 0
 489 150 457 84 406 42 c 1
 442 -13 l 1
 411 -39 l 1
 356 11 l 1
 329 -1 299 -8 267 -8 c 0
 241 -8 218 -4 197 4 c 1
EndSplineSet
Validated: 1
EndChar

StartChar: uni0492
Encoding: 1170 1170 748
Width: 555
VWidth: 0
Flags: W
HStem: 0 21G<133 263> 390 50<40 133 263 365> 650 50<263 537>
VStem: 133 130<0 390 440 650>
LayerCount: 2
Fore
SplineSet
40 390 m 1
 40 440 l 1
 133 440 l 1
 133 700 l 1
 537 700 l 1
 537 650 l 1
 263 650 l 1
 263 440 l 1
 365 440 l 1
 365 390 l 1
 263 390 l 1
 263 0 l 1
 133 0 l 1
 133 390 l 1
 40 390 l 1
EndSplineSet
Validated: 1
EndChar

StartChar: uni0493
Encoding: 1171 1171 749
Width: 436
VWidth: 0
Flags: W
HStem: 0 21G<121 246> 234 50<25 121 246 350> 390 50<246 410>
VStem: 121 125<0 234 284 390>
LayerCount: 2
Fore
SplineSet
25 234 m 1
 25 284 l 1
 121 284 l 1
 121 440 l 1
 410 440 l 1
 410 390 l 1
 246 390 l 1
 246 284 l 1
 350 284 l 1
 350 234 l 1
 246 234 l 1
 246 0 l 1
 121 0 l 1
 121 234 l 1
 25 234 l 1
EndSplineSet
Validated: 1
EndChar

StartChar: uni0494
Encoding: 1172 1172 750
Width: 655
VWidth: 0
Flags: W
HStem: -106 50<331.352 429.753> -29 20G<289.769 320> 0 21G<85 215> 400 50<252.643 412.759> 650 50<215 489>
VStem: 85 130<0 369.252 425 650> 457 130<18.875 332.719>
LayerCount: 2
Fore
SplineSet
215 353 m 5
 215 0 l 1
 85 0 l 1
 85 700 l 1
 489 700 l 1
 489 650 l 1
 215 650 l 1
 215 425 l 5
 246 441 288 450 325 450 c 4
 465 450 587 382 587 240 c 6
 587 142 l 6
 587 -58 467 -106 377 -106 c 4
 341 -106 289 -89 259 -61 c 5
 309 -9 l 5
 331 -41 357 -56 392 -56 c 4
 431 -56 457 -12 457 120 c 6
 457 228 l 6
 457 368 410 400 340 400 c 4
 295 400 248 382 215 353 c 5
EndSplineSet
Validated: 1
EndChar

StartChar: uni0495
Encoding: 1173 1173 751
Width: 555
VWidth: 0
Flags: W
HStem: -115 50<265.954 351.512> 0 21G<60 185> 238 50<215.401 335.261> 390 50<185 349>
VStem: 60 125<0 209.256 264 390> 366 125<-15.3997 186.654>
LayerCount: 2
Fore
SplineSet
366 66 m 4
 366 206 338 238 287 238 c 4
 242 238 218 221 185 192 c 5
 185 0 l 1
 60 0 l 1
 60 440 l 1
 349 440 l 1
 349 390 l 1
 185 390 l 1
 185 264 l 5
 216 280 235 288 272 288 c 4
 412 288 491 220 491 78 c 4
 491 -39 406 -115 306 -115 c 4
 263 -115 219 -100 198 -70 c 5
 248 -18 l 5
 268 -54 286 -65 321 -65 c 4
 360 -65 366 -4 366 66 c 4
EndSplineSet
Validated: 1
EndChar

StartChar: uni0496
Encoding: 1174 1174 752
Width: 877
VWidth: 0
Flags: W
HStem: 0 50<720.311 742.834> 650 50<52 86.7957 702.204 737>
VStem: 330 129<0 310 403 700> 764 48<-154 -18.668>
LayerCount: 2
Fore
SplineSet
459 403 m 1
 516 483 541 700 737 700 c 1
 737 650 l 1
 655 650 624 428 503 350 c 1
 599 287 693 132 730 50 c 1
 812 50 l 1
 812 -154 l 1
 764 -154 l 1
 764 -40 732 0 732 0 c 1
 617 0 l 1
 617 17 533 244 459 310 c 1
 459 0 l 1
 330 0 l 1
 330 310 l 1
 256 244 172 17 172 0 c 1
 42 0 l 1
 42 33 161 268 286 350 c 1
 165 428 134 650 52 650 c 1
 52 700 l 1
 248 700 273 483 330 403 c 1
 330 700 l 1
 459 700 l 1
 459 403 l 1
EndSplineSet
Validated: 1
EndChar

StartChar: uni0497
Encoding: 1175 1175 753
Width: 694
VWidth: 0
Flags: W
HStem: 0 21G<34 144 252 377> 390 50<34 75.4069 553.593 595>
VStem: 34 110<0 54.9117> 252 125<0 181 255 440> 602 48<-154 -18.668>
LayerCount: 2
Fore
SplineSet
377 255 m 1
 426 307 434 440 595 440 c 1
 595 390 l 1
 522 390 521 281 449 221 c 1
 504 169 552 98 577 50 c 1
 650 50 l 1
 650 -154 l 1
 602 -154 l 1
 602 -40 570 0 570 0 c 1
 485 0 l 1
 485 36 429 130 377 181 c 1
 377 0 l 1
 252 0 l 1
 252 181 l 1
 200 130 144 36 144 0 c 1
 34 0 l 1
 34 28 99 144 180 221 c 1
 108 281 107 390 34 390 c 1
 34 440 l 1
 195 440 203 307 252 255 c 1
 252 440 l 1
 377 440 l 1
 377 255 l 1
EndSplineSet
Validated: 1
EndChar

StartChar: uni0498
Encoding: 1176 1176 754
Width: 526
VWidth: 0
Flags: W
HStem: -176 24<188 257.8> -10 50<176.397 225> 390 50<182 268.194> 660 50<175.082 291.985>
VStem: 281 77<-139.669 -70.0933> 322 130<488.98 626.398> 352 130<130.229 303.601>
LayerCount: 2
Fore
SplineSet
132 144 m 1xf8
 147 74 177 40 244 40 c 0
 312 40 352 155 352 215 c 0xf2
 352 275 312 390 202 390 c 2
 182 390 l 1
 182 440 l 1
 294 440 322 510 322 555 c 0
 322 615 288 660 252 660 c 0
 178 660 157 629 143 583 c 1
 63 605 l 1
 101 676 174 710 243 710 c 0
 375 710 452 635 452 555 c 0xf4
 452 502 427 446 354 415 c 1
 451 370 482 275 482 215 c 0xf2
 482 145 427 25 295 -4 c 1
 291 -35 l 1
 328 -43 358 -65 358 -102 c 0
 358 -142 300 -176 188 -176 c 1
 188 -152 l 1
 232 -152 281 -144 281 -108 c 0
 281 -78 262 -63 216 -60 c 1
 225 -10 l 1
 123 -7 67 48 40 119 c 1
 132 144 l 1xf8
EndSplineSet
Validated: 1
EndChar

StartChar: uni0499
Encoding: 1177 1177 755
Width: 438
VWidth: 0
Flags: W
HStem: -176 24<132 201.8> -8 48<145 169 238 253.317> 220 50<144 230.21> 400 50<146.367 238.99>
VStem: 225 77<-139.669 -70.0933> 247 125<286.262 396.338> 271 125<53.4812 195.112>
LayerCount: 2
Fore
SplineSet
106 108 m 1xf8
 122 73 159 40 211 40 c 0
 244 40 271 57 271 125 c 0xf2
 271 190 242 220 179 220 c 2
 144 220 l 1
 144 270 l 1
 172 270 l 2
 228 270 247 303 247 339 c 0
 247 377 237 400 211 400 c 0
 152 400 136 374 130 340 c 1
 49 359 l 1
 65 404 109 450 199 450 c 0
 322 450 372 404 372 339 c 0xf4
 372 311 353 275 305 250 c 1
 370 224 396 176 396 125 c 0xf2
 396 54 350 2 238 -8 c 1
 235 -35 l 1
 272 -43 302 -65 302 -102 c 0
 302 -142 244 -176 132 -176 c 1
 132 -152 l 1
 176 -152 225 -144 225 -108 c 0
 225 -78 206 -63 160 -60 c 1
 169 -8 l 1
 99 3 50 49 30 87 c 1
 106 108 l 1xf8
EndSplineSet
Validated: 1
EndChar

StartChar: uni049A
Encoding: 1178 1178 756
Width: 727
VWidth: 0
Flags: W
HStem: 0 50<538.726 592.834> 680 20G<85 215 439.206 590>
VStem: 85 130<0 279 428 700> 614 48<-154 -18.668>
LayerCount: 2
Fore
SplineSet
582 50 m 10
 662 50 l 1
 662 -154 l 1
 614 -154 l 1
 614 -40 582 0 582 0 c 1
 335 0 355 312 272 343 c 1
 215 279 l 1
 215 0 l 1
 85 0 l 1
 85 700 l 1
 215 700 l 1
 215 428 l 1
 457 700 l 1
 590 700 l 1
 319 397 l 1
 511 347 463 50 582 50 c 10
EndSplineSet
Validated: 1
EndChar

StartChar: uni049B
Encoding: 1179 1179 757
Width: 534
VWidth: 0
Flags: W
HStem: 0 50<407 420.834> 420 20G<72 197 298.239 428>
VStem: 72 125<0 181 306 440> 442 48<-154 -18.668>
LayerCount: 2
Fore
SplineSet
197 306 m 1
 316 440 l 1
 428 440 l 1
 254 245 l 1
 407 50 l 1
 490 50 l 1
 490 -154 l 1
 442 -154 l 1
 442 -40 410 0 410 0 c 1
 340 0 l 1
 197 181 l 1
 197 0 l 1
 72 0 l 1
 72 440 l 1
 197 440 l 1
 197 306 l 1
EndSplineSet
Validated: 1
EndChar

StartChar: uni049C
Encoding: 1180 1180 758
Width: 710
VWidth: 0
Flags: W
HStem: 0 58<650.556 688> 342 66<215 265> 680 20G<85 215 492 695>
VStem: 85 130<0 342 408 700> 265 56<222 342 435 530>
LayerCount: 2
Fore
SplineSet
215 0 m 1
 85 0 l 1
 85 700 l 1
 215 700 l 1
 215 408 l 1
 265 408 l 1
 265 530 l 1
 321 530 l 1
 321 435 l 1
 357 468 421 540 563 700 c 1
 695 700 l 1
 427 399 l 1
 600 355 577 58 688 58 c 1
 688 0 l 1
 404 0 509 341 321 342 c 1
 321 222 l 1
 265 222 l 1
 265 342 l 1
 215 342 l 1
 215 0 l 1
EndSplineSet
Validated: 1
EndChar

StartChar: uni049D
Encoding: 1181 1181 759
Width: 613
VWidth: 0
Flags: W
HStem: 0 21G<72 197 457.909 580> 220 50<197 232 288 297> 420 20G<72 197 432.118 562>
VStem: 72 125<0 220 270 440> 232 56<90 220 270 398>
LayerCount: 2
Fore
SplineSet
197 0 m 1
 72 0 l 1
 72 440 l 1
 197 440 l 1
 197 270 l 1
 232 270 l 1
 232 398 l 1
 288 398 l 1
 288 270 l 1
 298 270 l 1
 450 440 l 1
 562 440 l 1
 388 245 l 1
 580 0 l 1
 474 0 l 1
 297 220 l 1
 288 220 l 1
 288 90 l 1
 232 90 l 1
 232 220 l 1
 197 220 l 1
 197 0 l 1
EndSplineSet
Validated: 1
EndChar

StartChar: uni049E
Encoding: 1182 1182 760
Width: 643
VWidth: 0
Flags: W
HStem: 0 58<576.726 620> 550 50<40 123 253 326> 680 20G<123 253 477.206 628>
VStem: 123 130<0 279 428 550 600 700>
LayerCount: 2
Fore
SplineSet
253 0 m 1
 123 0 l 1
 123 550 l 1
 40 550 l 1
 40 600 l 1
 123 600 l 1
 123 700 l 1
 253 700 l 1
 253 600 l 1
 326 600 l 1
 326 550 l 1
 253 550 l 1
 253 428 l 1
 495 700 l 1
 628 700 l 1
 357 397 l 1
 549 347 501 58 620 58 c 1
 620 0 l 1
 373 0 393 312 310 343 c 1
 253 279 l 1
 253 0 l 1
EndSplineSet
Validated: 1
EndChar

StartChar: uni049F
Encoding: 1183 1183 761
Width: 511
VWidth: 0
Flags: W
HStem: 0 21G<104 229 356.199 478> 420 20G<330.239 460> 480 50<30 104 229 310> 640 20G<104 229>
VStem: 104 125<0 181 306 480 530 660>
LayerCount: 2
Fore
SplineSet
310 530 m 1
 310 480 l 1
 229 480 l 1
 229 306 l 1
 348 440 l 1
 460 440 l 1
 286 245 l 1
 478 0 l 1
 372 0 l 1
 229 181 l 1
 229 0 l 1
 104 0 l 1
 104 480 l 1
 30 480 l 1
 30 530 l 1
 104 530 l 1
 104 660 l 1
 229 660 l 1
 229 530 l 1
 310 530 l 1
EndSplineSet
Validated: 1
EndChar

StartChar: uni04A0
Encoding: 1184 1184 762
Width: 755
VWidth: 0
Flags: W
HStem: 0 58<688.726 732> 650 50<10 235>
VStem: 235 130<0 279 428 650>
LayerCount: 2
Fore
SplineSet
365 0 m 1
 235 0 l 1
 235 650 l 1
 10 650 l 1
 10 700 l 1
 365 700 l 1
 365 428 l 1
 607 700 l 1
 740 700 l 1
 469 397 l 1
 661 347 613 58 732 58 c 1
 732 0 l 1
 485 0 505 312 422 343 c 1
 365 279 l 1
 365 0 l 1
EndSplineSet
Validated: 1
EndChar

StartChar: uni04A1
Encoding: 1185 1185 763
Width: 568
VWidth: 0
Flags: W
HStem: 0 21G<161 286 413.199 535> 390 50<15 161>
VStem: 161 125<0 181 306 390>
LayerCount: 2
Fore
SplineSet
286 306 m 1
 405 440 l 1
 517 440 l 1
 343 245 l 1
 535 0 l 1
 429 0 l 1
 286 181 l 1
 286 0 l 1
 161 0 l 1
 161 390 l 1
 15 390 l 1
 15 440 l 1
 286 440 l 1
 286 306 l 1
EndSplineSet
Validated: 1
EndChar

StartChar: uni04A2
Encoding: 1186 1186 764
Width: 735
VWidth: 0
Flags: W
HStem: 0 50<577 600.834> 350 50<215 447> 680 20G<85 215 447 577>
VStem: 85 130<0 350 400 700> 447 130<50 350 400 700> 622 48<-154 -18.668>
LayerCount: 2
Fore
SplineSet
215 700 m 1
 215 400 l 1
 447 400 l 1
 447 700 l 1
 577 700 l 1
 577 50 l 1
 670 50 l 1
 670 -154 l 1
 622 -154 l 1
 622 -40 590 0 590 0 c 1
 447 0 l 1
 447 350 l 1
 215 350 l 1
 215 0 l 1
 85 0 l 1
 85 700 l 1
 215 700 l 1
EndSplineSet
Validated: 1
EndChar

StartChar: uni04A3
Encoding: 1187 1187 765
Width: 600
VWidth: 0
Flags: W
HStem: 0 50<456 486.834> 215 50<185 331> 420 20G<60 185 331 456>
VStem: 60 125<0 215 265 440> 331 125<50 215 265 440> 508 48<-154 -18.668>
LayerCount: 2
Fore
SplineSet
60 440 m 1
 185 440 l 1
 185 265 l 1
 331 265 l 1
 331 440 l 1
 456 440 l 1
 456 50 l 1
 556 50 l 1
 556 -154 l 1
 508 -154 l 1
 508 -40 476 0 476 0 c 1
 331 0 l 1
 331 215 l 1
 185 215 l 1
 185 0 l 1
 60 0 l 1
 60 440 l 1
EndSplineSet
Validated: 1
EndChar

StartChar: uni04A4
Encoding: 1188 1188 766
Width: 869
VWidth: 0
Flags: W
HStem: 0 21G<85 215 447 577> 350 50<215 447> 650 50<577 851>
VStem: 85 130<0 350 400 700> 447 130<0 350 400 650>
LayerCount: 2
Fore
SplineSet
215 700 m 1
 215 400 l 1
 447 400 l 1
 447 700 l 1
 851 700 l 1
 851 650 l 1
 577 650 l 1
 577 0 l 1
 447 0 l 1
 447 350 l 1
 215 350 l 1
 215 0 l 1
 85 0 l 1
 85 700 l 1
 215 700 l 1
EndSplineSet
Validated: 1
EndChar

StartChar: uni04A5
Encoding: 1189 1189 767
Width: 646
VWidth: 0
Flags: W
HStem: 0 21G<60 185 331 456> 215 50<185 331> 390 50<456 620>
VStem: 60 125<0 215 265 440> 331 125<0 215 265 390>
LayerCount: 2
Fore
SplineSet
60 440 m 1
 185 440 l 1
 185 265 l 1
 331 265 l 1
 331 440 l 1
 620 440 l 1
 620 390 l 1
 456 390 l 1
 456 0 l 1
 331 0 l 1
 331 215 l 1
 185 215 l 1
 185 0 l 1
 60 0 l 1
 60 440 l 1
EndSplineSet
Validated: 1
EndChar

StartChar: uni04A6
Encoding: 1190 1190 768
Width: 1001
VWidth: 0
Flags: W
HStem: -106 50<677.352 775.753> -29 20G<635.769 666> 0 21G<85 215 431 561> 400 50<598.643 758.759> 650 50<215 431>
VStem: 85 130<0 650> 431 130<0 369.252 425 650> 803 130<18.875 332.719>
LayerCount: 2
Fore
SplineSet
85 0 m 1
 85 700 l 1
 561 700 l 1
 561 425 l 1
 592 441 634 450 671 450 c 0
 811 450 933 382 933 240 c 2
 933 142 l 6
 933 -58 813 -106 723 -106 c 4
 687 -106 635 -89 605 -61 c 5
 655 -9 l 5
 677 -41 703 -56 738 -56 c 4
 777 -56 803 -12 803 120 c 6
 803 228 l 2
 803 368 756 400 686 400 c 0
 641 400 594 382 561 353 c 1
 561 0 l 1
 431 0 l 1
 431 650 l 1
 215 650 l 1
 215 0 l 1
 85 0 l 1
EndSplineSet
Validated: 1
EndChar

StartChar: uni04A7
Encoding: 1191 1191 769
Width: 826
VWidth: 0
Flags: W
HStem: -115 50<536.954 622.512> 0 21G<60 185 331 456> 238 50<486.401 606.261> 390 50<185 331>
VStem: 60 125<0 390> 331 125<0 209.256 264 390> 637 125<-15.3997 186.654>
LayerCount: 2
Fore
SplineSet
637 66 m 4
 637 206 609 238 558 238 c 0
 513 238 489 221 456 192 c 1
 456 0 l 1
 331 0 l 1
 331 390 l 1
 185 390 l 1
 185 0 l 1
 60 0 l 1
 60 440 l 1
 456 440 l 1
 456 264 l 1
 487 280 506 288 543 288 c 0
 683 288 762 220 762 78 c 4
 762 -39 677 -115 577 -115 c 4
 534 -115 490 -100 469 -70 c 5
 519 -18 l 5
 539 -54 557 -65 592 -65 c 4
 631 -65 637 -4 637 66 c 4
EndSplineSet
Validated: 1
EndChar

StartChar: uni04A8
Encoding: 1192 1192 770
Width: 845
VWidth: 0
Flags: W
HStem: -10 50<291.314 446.975 563.683 698.437> 619 41<490.082 549.963> 660 41<286.432 343>
VStem: 50 130<207.236 492.468> 313 130<218.981 496.879> 591 130<226.944 496.879>
LayerCount: 2
Fore
SplineSet
797 71 m 1
 760 20 708 -10 658 -10 c 0
 603 -10 550 1 504 23 c 1
 453 1 397 -10 342 -10 c 0
 212 -10 50 100 50 350 c 0
 50 600 212 701 343 701 c 1
 344 660 l 1
 240 644 180 560 180 350 c 0
 180 130 274 40 357 40 c 0
 386 40 418 45 448 57 c 1
 366 118 313 221 313 358 c 0
 313 540 408 660 521 660 c 0
 626 660 721 540 721 358 c 0
 721 216 655 114 563 54 c 1
 588 44 615 40 643 40 c 0
 680 40 715 67 739 112 c 1
 797 71 l 1
507 94 m 1
 556 138 591 215 591 342 c 0
 591 498 566 619 522 619 c 0
 472 619 443 498 443 342 c 0
 443 215 468 138 507 94 c 1
EndSplineSet
Validated: 1
EndChar

StartChar: uni04A9
Encoding: 1193 1193 771
Width: 680
VWidth: 0
Flags: W
HStem: -10 50<236.901 331.087 480.73 551.437> 349 50<384.903 432.617> 390 50<215.624 251>
VStem: 44 125<131.513 332.264> 241 125<122.245 316.909> 449 125<122.487 312.168>
LayerCount: 2
Fore
SplineSet
650 71 m 1xdc
 613 20 561 -10 511 -10 c 0
 473 -10 437 -4 405 6 c 1
 371 -5 333 -10 295 -10 c 0
 191 -10 44 70 44 230 c 0
 44 352 120 440 251 440 c 1
 251 390 l 1xbc
 198 375 169 330 169 230 c 0
 169 90 235 40 310 40 c 0
 318 40 325 40 332 41 c 1
 275 81 241 143 241 222 c 0
 241 310 290 399 408 399 c 0
 517 399 574 310 574 222 c 0
 574 139 537 79 480 41 c 1
 486 40 491 40 496 40 c 0
 533 40 568 67 592 112 c 1
 650 71 l 1xdc
408 74 m 1
 434 100 449 142 449 206 c 0
 449 296 434 349 409 349 c 0xdc
 383 349 366 306 366 206 c 0
 366 139 384 98 408 74 c 1
EndSplineSet
Validated: 1
EndChar

StartChar: uni04AA
Encoding: 1194 1194 772
Width: 650
VWidth: 0
Flags: W
HStem: -176 24<294 363.8> -8 48<301.858 331 400 457.265> 660 50<278.601 440.536>
VStem: 50 130<215.796 494.263> 387 77<-139.669 -70.0933>
LayerCount: 2
Fore
SplineSet
400 -8 m 1
 397 -35 l 1
 434 -43 464 -65 464 -102 c 0
 464 -142 406 -176 294 -176 c 1
 294 -152 l 1
 338 -152 387 -144 387 -108 c 0
 387 -78 368 -63 322 -60 c 1
 331 -8 l 1
 205 8 50 119 50 350 c 0
 50 600 212 710 343 710 c 0
 479 710 561 665 607 608 c 1
 497 575 l 1
 464 622 442 660 358 660 c 0
 242 660 180 560 180 350 c 0
 180 130 282 40 377 40 c 0
 454 40 479 72 516 129 c 1
 610 102 l 1
 566 46 491 2 400 -8 c 1
EndSplineSet
Validated: 1
EndChar

StartChar: uni04AB
Encoding: 1195 1195 773
Width: 497
VWidth: 0
Flags: W
HStem: -176 24<202 271.8> -8 48<218.023 239 309 340.312> 400 50<207.608 310.159>
VStem: 44 125<115.985 320.966> 295 77<-139.669 -70.0933>
LayerCount: 2
Fore
SplineSet
336 297 m 1
 320 357 320 400 265 400 c 0
 190 400 169 330 169 220 c 0
 169 110 190 40 285 40 c 0
 336 40 342 63 365 100 c 1
 455 77 l 1
 422 34 372 2 309 -7 c 1
 305 -35 l 1
 342 -43 372 -65 372 -102 c 0
 372 -142 314 -176 202 -176 c 1
 202 -152 l 1
 246 -152 295 -144 295 -108 c 0
 295 -78 276 -63 230 -60 c 1
 239 -8 l 1
 125 5 44 91 44 220 c 0
 44 360 150 450 250 450 c 0
 342 450 404 398 436 330 c 1
 336 297 l 1
EndSplineSet
Validated: 1
EndChar

StartChar: uni04AC
Encoding: 1196 1196 774
Width: 625
VWidth: 0
Flags: W
HStem: 0 50<378 406.834> 650 50<20 248 378 605>
VStem: 248 130<50 650> 428 48<-154 -18.668>
LayerCount: 2
Fore
SplineSet
20 700 m 1
 607 700 l 1
 605 650 l 1
 378 650 l 1
 378 50 l 5
 476 50 l 5
 476 -154 l 5
 428 -154 l 5
 428 -40 396 0 396 0 c 5
 248 0 l 5
 248 650 l 1
 20 650 l 1
 20 700 l 1
EndSplineSet
Validated: 1
EndChar

StartChar: uni04AD
Encoding: 1197 1197 775
Width: 459
VWidth: 0
Flags: W
HStem: 0 50<294 323.834> 390 50<26 169 294 437>
VStem: 169 125<50 390> 345 48<-154 -18.668>
LayerCount: 2
Fore
SplineSet
313 0 m 5
 169 0 l 5
 169 390 l 1
 26 390 l 1
 26 440 l 1
 437 440 l 1
 437 390 l 1
 294 390 l 1
 294 50 l 5
 393 50 l 5
 393 -154 l 5
 345 -154 l 5
 345 -40 313 0 313 0 c 5
EndSplineSet
Validated: 1
EndChar

StartChar: uni04AF
Encoding: 1199 1199 777
Width: 415
VWidth: 0
Flags: W
HStem: 420 20G<9 124.26 321.74 409>
VStem: 147 125<-200 60>
LayerCount: 2
Fore
SplineSet
223 148 m 1
 329 440 l 1
 409 440 l 1
 272 63 l 1
 272 -200 l 1
 147 -200 l 1
 147 60 l 1
 9 440 l 1
 117 440 l 1
 223 148 l 1
EndSplineSet
Validated: 1
EndChar

StartChar: uni04B0
Encoding: 1200 1200 778
Width: 465
VWidth: 0
Flags: W
HStem: 0 21G<187 317> 204 50<112 187 317 392> 680 20G<11 147.206 374.794 475>
VStem: 187 130<0 204 254 355>
LayerCount: 2
Fore
SplineSet
112 204 m 1
 112 254 l 1
 187 254 l 1
 187 355 l 1
 11 700 l 1
 137 700 l 1
 261 457 l 1
 385 700 l 1
 475 700 l 1
 317 391 l 1
 317 254 l 1
 392 254 l 1
 392 204 l 1
 317 204 l 1
 317 0 l 1
 187 0 l 1
 187 204 l 1
 112 204 l 1
EndSplineSet
Validated: 1
EndChar

StartChar: uni04B1
Encoding: 1201 1201 779
Width: 415
VWidth: 0
Flags: W
HStem: -50 50<69 147 272 349> 420 20G<9 124.26 321.74 409>
VStem: 147 125<-200 -50 0 60>
LayerCount: 2
Fore
SplineSet
69 -50 m 1
 69 0 l 1
 147 0 l 1
 147 60 l 1
 9 440 l 1
 117 440 l 1
 223 148 l 1
 329 440 l 1
 409 440 l 1
 272 63 l 1
 272 0 l 1
 349 0 l 1
 349 -50 l 1
 272 -50 l 1
 272 -200 l 1
 147 -200 l 1
 147 -50 l 1
 69 -50 l 1
EndSplineSet
Validated: 1
EndChar

StartChar: uni04B2
Encoding: 1202 1202 780
Width: 681
VWidth: 0
Flags: W
HStem: 0 50<501 546.834> 680 20G<44 180.179 387.821 488>
VStem: 568 48<-154 -18.668>
LayerCount: 2
Fore
SplineSet
536 0 m 1
 401 0 l 1
 266 265 l 1
 131 0 l 1
 42 0 l 1
 221 352 l 1
 44 700 l 1
 170 700 l 1
 284 476 l 1
 398 700 l 1
 488 700 l 1
 329 388 l 1
 501 50 l 1
 616 50 l 1
 616 -154 l 1
 568 -154 l 1
 568 -40 536 0 536 0 c 1
EndSplineSet
Validated: 1
EndChar

StartChar: uni04B3
Encoding: 1203 1203 781
Width: 548
VWidth: 0
Flags: W
HStem: 0 50<382 434.834> 420 20G<7 141.12 278.04 377>
VStem: 456 48<-154 -18.668>
LayerCount: 2
Fore
SplineSet
149 222 m 1
 7 440 l 1
 128 440 l 1
 210 315 l 1
 291 440 l 1
 377 440 l 1
 253 249 l 1
 382 50 l 1
 504 50 l 1
 504 -154 l 1
 456 -154 l 1
 456 -40 424 0 424 0 c 1
 293 0 l 1
 192 155 l 1
 91 0 l 1
 4 0 l 1
 149 222 l 1
EndSplineSet
Validated: 1
EndChar

StartChar: uni04B4
Encoding: 1204 1204 782
Width: 833
VWidth: 0
Flags: W
HStem: 0 50<333 574> 650 50<20 203 333 515>
VStem: 203 130<50 650> 574 130<50 700> 720 48<-154 -18.668>
LayerCount: 2
Fore
SplineSet
203 650 m 1
 20 650 l 1
 20 700 l 1
 517 700 l 1
 515 650 l 1
 333 650 l 1
 333 50 l 1
 574 50 l 1
 574 700 l 1
 704 700 l 1
 704 50 l 1
 768 50 l 1
 768 -154 l 1
 720 -154 l 1
 720 -40 688 0 688 0 c 1
 203 0 l 1
 203 650 l 1
EndSplineSet
Validated: 1
EndChar

StartChar: uni04B5
Encoding: 1205 1205 783
Width: 673
VWidth: 0
Flags: W
HStem: 0 50<274 440> 390 50<26 149 274 397>
VStem: 149 125<50 390> 440 125<50 440> 581 48<-154 -18.668>
LayerCount: 2
Fore
SplineSet
26 440 m 1
 397 440 l 1
 397 390 l 1
 274 390 l 1
 274 50 l 1
 440 50 l 1
 440 440 l 1
 565 440 l 1
 565 50 l 1
 629 50 l 1
 629 -154 l 1
 581 -154 l 1
 581 -40 549 0 549 0 c 1
 149 0 l 1
 149 390 l 1
 26 390 l 1
 26 440 l 1
EndSplineSet
Validated: 1
EndChar

StartChar: uni04B6
Encoding: 1206 1206 784
Width: 669
VWidth: 0
Flags: W
HStem: 0 50<506 534.834> 255 50<234.848 353.996> 680 20G<60 190 376 506>
VStem: 60 130<386.259 700> 376 130<50 280 327.253 700> 556 48<-154 -18.668>
LayerCount: 2
Fore
SplineSet
506 50 m 1
 604 50 l 1
 604 -154 l 1
 556 -154 l 1
 556 -40 524 0 524 0 c 1
 376 0 l 1
 376 280 l 1
 354 264 316 255 279 255 c 0
 139 255 60 336 60 530 c 2
 60 700 l 1
 190 700 l 1
 190 542 l 2
 190 328 238 305 294 305 c 0
 330 305 358 323 376 352 c 1
 376 700 l 1
 506 700 l 1
 506 50 l 1
EndSplineSet
Validated: 1
EndChar

StartChar: uni04B7
Encoding: 1207 1207 785
Width: 543
VWidth: 0
Flags: W
HStem: 0 50<401 429.834> 153 50<180.205 270.811> 420 20G<40 165 276 401>
VStem: 40 125<238.133 440> 276 125<50 170 207.895 440> 451 48<-154 -18.668>
LayerCount: 2
Fore
SplineSet
401 50 m 1
 499 50 l 1
 499 -154 l 1
 451 -154 l 1
 451 -40 419 0 419 0 c 1
 276 0 l 1
 276 170 l 1
 267 161 251 153 214 153 c 0
 61 153 40 235 40 440 c 1
 165 440 l 1
 165 214 171 203 229 203 c 0
 274 203 276 237 276 250 c 2
 276 440 l 1
 401 440 l 1
 401 50 l 1
EndSplineSet
Validated: 1
EndChar

StartChar: uni04B8
Encoding: 1208 1208 786
Width: 609
VWidth: 0
Flags: W
HStem: 0 21G<416 546> 256 50<326 390.401> 422 20G<270 326> 680 20G<60 190 416 546>
VStem: 60 130<395.647 700> 270 56<134 258.024 312 442> 416 130<0 280 330.414 700>
LayerCount: 2
Fore
SplineSet
270 442 m 1
 326 442 l 1
 326 306 l 1
 360 309 400 326 416 352 c 1
 416 700 l 1
 546 700 l 1
 546 0 l 1
 416 0 l 1
 416 280 l 1
 399 268 360 259 326 256 c 1
 326 134 l 1
 270 134 l 1
 270 256 l 1
 146 267 60 350 60 530 c 2
 60 700 l 1
 190 700 l 1
 190 542 l 2
 190 383 228 329 270 312 c 1
 270 442 l 1
EndSplineSet
Validated: 1
EndChar

StartChar: uni04B9
Encoding: 1209 1209 787
Width: 500
VWidth: 0
Flags: W
HStem: 0 21G<316 441> 155 51<270 305.253> 420 20G<40 165 316 441>
VStem: 40 125<259.834 440> 214 56<66 155.489 207 299> 316 125<0 170 217.534 440>
LayerCount: 2
Fore
SplineSet
214 299 m 1
 270 299 l 1
 270 206 l 1
 301 214 316 239 316 250 c 2
 316 440 l 1
 441 440 l 1
 441 0 l 1
 316 0 l 1
 316 170 l 1
 310 164 292 158 270 155 c 1
 270 66 l 1
 214 66 l 1
 214 154 l 1
 77 161 40 244 40 440 c 1
 165 440 l 1
 165 266 180 219 214 207 c 1
 214 299 l 1
EndSplineSet
Validated: 1
EndChar

StartChar: uni04BA
Encoding: 1210 1210 788
Width: 681
VWidth: 0
Flags: W
HStem: 0 21G<72 202 487 617> 400 50<267.127 432.903> 680 20G<72 202>
VStem: 72 130<0 350.86 406 700> 487 130<0 327.726>
LayerCount: 2
Fore
SplineSet
72 0 m 9
 72 700 l 1
 202 700 l 1
 202 406 l 1
 233 422 269 450 342 450 c 0
 482 450 617 382 617 240 c 2
 617 0 l 17
 487 0 l 9
 487 228 l 2
 487 368 427 400 357 400 c 0
 285 400 235 363 202 334 c 1
 202 0 l 17
 72 0 l 9
EndSplineSet
Validated: 1
EndChar

StartChar: uni04BC
Encoding: 1212 1212 790
Width: 872
VWidth: 0
Flags: W
HStem: -10 50<434.601 596.536> 350 50<146.937 206 338 700> 660 50<455.234 598.34>
VStem: 32 90<432.208 530> 206 130<205.753 350 400 478.462>
LayerCount: 2
Fore
SplineSet
336 350 m 1
 336 140 398 40 514 40 c 0
 598 40 620 78 653 125 c 1
 763 92 l 1
 717 35 635 -10 499 -10 c 0
 368 -10 206 100 206 350 c 1
 62 350 32 440 32 558 c 1
 122 530 l 1
 122 400 172 400 209 400 c 1
 233 615 406 710 528 710 c 0
 661 710 832 600 832 350 c 1
 336 350 l 1
338 400 m 1
 700 400 l 1
 687 584 606 660 532 660 c 0
 445 660 352 584 338 400 c 1
EndSplineSet
Validated: 1
EndChar

StartChar: uni04BD
Encoding: 1213 1213 791
Width: 664
VWidth: 0
Flags: W
HStem: -10 50<377.43 506.22> 220 50<151.78 206 333 496> 400 50<370.12 469.185>
VStem: 32 90<302.208 400> 206 125<114.707 220 270 318.852>
LayerCount: 2
Fore
SplineSet
333 270 m 1
 496 270 l 1
 493 344 481 400 427 400 c 0
 364 400 339 351 333 270 c 1
331 220 m 1
 331 110 352 40 447 40 c 0
 498 40 515 63 522 100 c 1
 617 77 l 1
 577 26 514 -10 432 -10 c 0
 302 -10 206 80 206 220 c 1
 62 220 32 310 32 428 c 1
 122 400 l 1
 122 275 177 270 211 270 c 1
 233 381 324 450 412 450 c 0
 551 450 622 330 622 220 c 1
 331 220 l 1
EndSplineSet
Validated: 1
EndChar

StartChar: uni04BE
Encoding: 1214 1214 792
Width: 851
VWidth: 0
Flags: W
HStem: 350 50<146.937 206 338 700> 660 50<455.234 598.34>
VStem: 32 90<432.208 530> 206 130<205.753 350 400 478.462> 502 48<-154 -20.2245>
LayerCount: 2
Fore
SplineSet
338 400 m 1
 700 400 l 1
 687 584 606 660 532 660 c 0
 445 660 352 584 338 400 c 1
336 350 m 1
 336 140 398 40 514 40 c 0
 598 40 620 78 653 125 c 1
 763 92 l 1
 723 43 656 2 550 -8 c 1
 550 -154 l 1
 502 -154 l 1
 502 -70 484 -26 475 -9 c 1
 349 3 206 115 206 350 c 1
 62 350 32 440 32 558 c 1
 122 530 l 1
 122 400 172 400 209 400 c 1
 233 615 406 710 528 710 c 0
 661 710 832 600 832 350 c 1
 336 350 l 1
EndSplineSet
Validated: 1
EndChar

StartChar: uni04BF
Encoding: 1215 1215 793
Width: 664
VWidth: 0
Flags: W
HStem: 220 50<151.78 206 333 496> 400 50<370.12 469.185>
VStem: 32 90<302.208 400> 206 125<114.741 220 270 318.852> 421 48<-154 -17.8076>
LayerCount: 2
Fore
SplineSet
331 220 m 1
 331 110 352 40 447 40 c 0
 498 40 515 63 522 100 c 1
 617 77 l 1
 583 34 533 2 469 -7 c 1
 469 -154 l 1
 421 -154 l 1
 421 -67 403 -23 394 -7 c 1
 284 9 206 94 206 220 c 1
 62 220 32 310 32 428 c 1
 122 400 l 1
 122 274 177 270 211 270 c 1
 233 381 324 450 412 450 c 0
 551 450 622 330 622 220 c 1
 331 220 l 1
333 270 m 1
 496 270 l 1
 493 344 481 400 427 400 c 0
 364 400 339 351 333 270 c 1
EndSplineSet
Validated: 1
EndChar

StartChar: uni04C3
Encoding: 1219 1219 797
Width: 658
VWidth: 0
Flags: W
HStem: -106 50<331.352 429.753> -29 20G<289.769 320> 0 21G<85 215> 680 20G<85 215 439.206 590>
VStem: 85 130<0 279 428 700> 457 130<18.875 333.614>
LayerCount: 2
Fore
SplineSet
215 279 m 1
 215 0 l 1
 85 0 l 1
 85 700 l 1
 215 700 l 1
 215 428 l 1
 457 700 l 1
 590 700 l 1
 366 448 l 1
 488 436 587 368 587 240 c 2
 587 142 l 2
 587 -58 467 -106 377 -106 c 0
 341 -106 289 -89 259 -61 c 1
 309 -9 l 1
 331 -41 357 -56 392 -56 c 0
 431 -56 457 -12 457 120 c 2
 457 228 l 2
 457 368 410 400 340 400 c 0
 334 400 328 400 322 399 c 1
 215 279 l 1
EndSplineSet
Validated: 1
EndChar

StartChar: uni04C4
Encoding: 1220 1220 798
Width: 535
VWidth: 0
Flags: W
HStem: -115 50<265.954 351.512> 0 21G<72 197> 238 50<292 337.014> 420 20G<72 197 298.239 428>
VStem: 72 125<0 181 306 440> 366 125<-15.3997 186.783>
LayerCount: 2
Fore
SplineSet
197 181 m 1
 197 0 l 1
 72 0 l 1
 72 440 l 1
 197 440 l 1
 197 306 l 1
 316 440 l 1
 428 440 l 1
 292 288 l 1
 419 282 491 213 491 78 c 0
 491 -39 406 -115 306 -115 c 0
 263 -115 219 -100 198 -70 c 1
 248 -18 l 1
 268 -54 286 -65 321 -65 c 0
 360 -65 366 -4 366 66 c 0
 366 206 338 238 287 238 c 0
 269 238 254 235 241 230 c 1
 197 181 l 1
EndSplineSet
Validated: 1
EndChar

StartChar: uni04C5
Encoding: 1221 1221 799
Width: 741
VWidth: 0
Flags: W
HStem: -10 50<62.7483 169.456> 0 50<608 620> 650 50<317 478>
VStem: 187 130<54.5735 650> 478 130<50 650>
LayerCount: 2
Fore
SplineSet
608 50 m 1x78
 714 50 l 1
 640 -124 l 1
 594 -124 l 1
 620 0 l 1
 478 0 l 1x78
 478 650 l 1
 317 650 l 1
 317 127 l 2
 317 14 216 -10 118 -10 c 0
 80 -10 43 4 17 35 c 1
 80 65 l 1
 94 45 114 40 133 40 c 0xb8
 173 40 187 78 187 160 c 2
 187 700 l 1
 608 700 l 1
 608 50 l 1x78
EndSplineSet
Validated: 1
EndChar

StartChar: uni04C6
Encoding: 1222 1222 800
Width: 654
VWidth: 0
Flags: W
HStem: -10 50<75.7483 182.967> 0 50<519 531> 390 50<325 394>
VStem: 200 125<53.7144 390> 394 125<50 390>
LayerCount: 2
Fore
SplineSet
519 50 m 1x78
 625 50 l 1
 551 -124 l 1
 505 -124 l 1
 531 0 l 1
 394 0 l 1x78
 394 390 l 1
 325 390 l 1
 325 127 l 2
 325 11 233 -10 131 -10 c 0
 93 -10 56 4 30 35 c 1
 93 65 l 1
 107 45 127 40 146 40 c 0xb8
 186 40 200 78 200 160 c 2
 200 440 l 1
 519 440 l 1
 519 50 l 1x78
EndSplineSet
Validated: 1
EndChar

